Atma-Bold.ufo
<glyph name="exclam" format="1">
  <advance width="324"/>
  <unicode hex="0021"/>
  <outline>
    <contour>
      <point x="88" y="250" type="qcurve"/>
      <point x="76" y="344"/>
      <point x="65" y="531"/>
      <point x="65" y="648" type="qcurve" smooth="yes"/>
      <point x="65" y="658"/>
      <point x="66" y="682"/>
      <point x="67" y="705" type="qcurve"/>
      <point x="99" y="721"/>
      <point x="164" y="737"/>
      <point x="200" y="737" type="qcurve"/>
      <point x="223" y="737"/>
      <point x="265" y="730"/>
      <point x="284" y="723" type="qcurve"/>
      <point x="263" y="629"/>
      <point x="238" y="348"/>
      <point x="241" y="245" type="qcurve"/>
      <point x="232" y="242"/>
      <point x="206" y="240"/>
      <point x="185" y="240" type="qcurve" smooth="yes"/>
      <point x="162" y="240"/>
      <point x="111" y="245"/>
    </contour>
    <contour>
      <point x="182" y="-30" type="qcurve" smooth="yes"/>
      <point x="154" y="-30"/>
      <point x="99" y="-19"/>
      <point x="81" y="-10" type="qcurve"/>
      <point x="78" y="30"/>
      <point x="78" y="109"/>
      <point x="81" y="153" type="qcurve"/>
      <point x="105" y="153"/>
      <point x="153" y="151"/>
      <point x="197" y="149" type="qcurve" smooth="yes"/>
      <point x="222" y="148"/>
      <point x="247" y="147"/>
      <point x="259" y="147" type="qcurve"/>
      <point x="262" y="92"/>
      <point x="267" y="17"/>
      <point x="271" y="-21" type="qcurve"/>
      <point x="247" y="-26"/>
      <point x="207" y="-30"/>
    </contour>
  </outline>
</glyph>
<glyph name="numbersign" format="1">
  <advance width="623.864857786"/>
  <unicode hex="0023"/>
  <outline>
    <contour>
      <point x="250" y="259" type="qcurve"/>
      <point x="271" y="258"/>
      <point x="344" y="256"/>
      <point x="352" y="256" type="qcurve"/>
      <point x="352" y="257"/>
      <point x="371" y="324"/>
      <point x="376" y="345" type="qcurve"/>
      <point x="350" y="346"/>
      <point x="300" y="349"/>
      <point x="275" y="351" type="qcurve"/>
      <point x="268" y="323"/>
      <point x="256" y="279"/>
    </contour>
    <contour>
      <point x="607" y="263" type="qcurve"/>
      <point x="616" y="232"/>
      <point x="611" y="158"/>
      <point x="598" y="132" type="qcurve"/>
      <point x="556" y="131"/>
      <point x="474" y="131"/>
      <point x="433" y="132" type="qcurve"/>
      <point x="417" y="89"/>
      <point x="381" y="3"/>
      <point x="360" y="-41" type="qcurve"/>
      <point x="334" y="-39"/>
      <point x="288" y="-21"/>
      <point x="261" y="-3" type="qcurve"/>
      <point x="274" y="27"/>
      <point x="301" y="97"/>
      <point x="314" y="137" type="qcurve"/>
      <point x="307" y="138"/>
      <point x="233" y="143"/>
      <point x="211" y="146" type="qcurve"/>
      <point x="194" y="101"/>
      <point x="157" y="10"/>
      <point x="135" y="-36" type="qcurve"/>
      <point x="109" y="-34"/>
      <point x="63" y="-16"/>
      <point x="36" y="2" type="qcurve"/>
      <point x="51" y="36"/>
      <point x="80" y="115"/>
      <point x="95" y="160" type="qcurve"/>
      <point x="66" y="164"/>
      <point x="29" y="170"/>
      <point x="13" y="173" type="qcurve"/>
      <point x="8" y="198"/>
      <point x="13" y="247"/>
      <point x="23" y="278" type="qcurve"/>
      <point x="47" y="275"/>
      <point x="100" y="269"/>
      <point x="129" y="267" type="qcurve"/>
      <point x="137" y="296"/>
      <point x="150" y="343"/>
      <point x="155" y="364" type="qcurve"/>
      <point x="128" y="367"/>
      <point x="67" y="376"/>
      <point x="28" y="383" type="qcurve"/>
      <point x="23" y="408"/>
      <point x="28" y="457"/>
      <point x="38" y="488" type="qcurve"/>
      <point x="67" y="484"/>
      <point x="139" y="477"/>
      <point x="180" y="474" type="qcurve"/>
      <point x="187" y="511"/>
      <point x="199" y="589"/>
      <point x="202" y="627" type="qcurve"/>
      <point x="235" y="626"/>
      <point x="304" y="601"/>
      <point x="325" y="582" type="qcurve"/>
      <point x="318" y="542"/>
      <point x="308" y="490"/>
      <point x="303" y="468" type="qcurve"/>
      <point x="320" y="467"/>
      <point x="362" y="466"/>
      <point x="404" y="465" type="qcurve"/>
      <point x="412" y="508"/>
      <point x="424" y="588"/>
      <point x="427" y="622" type="qcurve"/>
      <point x="460" y="621"/>
      <point x="529" y="596"/>
      <point x="550" y="577" type="qcurve"/>
      <point x="544" y="545"/>
      <point x="534" y="491"/>
      <point x="529" y="467" type="qcurve"/>
      <point x="555" y="468"/>
      <point x="601" y="471"/>
      <point x="622" y="473" type="qcurve"/>
      <point x="631" y="442"/>
      <point x="626" y="368"/>
      <point x="613" y="342" type="qcurve"/>
      <point x="593" y="341"/>
      <point x="546" y="341"/>
      <point x="499" y="341" type="qcurve"/>
      <point x="494" y="320"/>
      <point x="482" y="278"/>
      <point x="475" y="256" type="qcurve"/>
      <point x="516" y="257"/>
      <point x="581" y="260"/>
    </contour>
  </outline>
</glyph>
<glyph name="quotesingle" format="1">
  <advance width="249"/>
  <unicode hex="0027"/>
  <outline>
    <contour>
      <point x="114" y="751" type="qcurve" smooth="yes"/>
      <point x="135" y="751"/>
      <point x="184" y="744"/>
      <point x="204" y="737" type="qcurve"/>
      <point x="192" y="657"/>
      <point x="171" y="546"/>
      <point x="159" y="495" type="qcurve"/>
      <point x="145" y="490"/>
      <point x="86" y="486"/>
      <point x="57" y="488" type="qcurve"/>
      <point x="53" y="544"/>
      <point x="48" y="655"/>
      <point x="45" y="737" type="qcurve"/>
      <point x="55" y="744"/>
      <point x="92" y="751"/>
    </contour>
  </outline>
</glyph>
<glyph name="parenright" format="1">
  <advance width="444"/>
  <unicode hex="0029"/>
  <outline>
    <contour>
      <point x="-45" y="-97" type="qcurve"/>
      <point x="69" y="-12"/>
      <point x="190" y="208"/>
      <point x="190" y="330" type="qcurve" smooth="yes"/>
      <point x="190" y="437"/>
      <point x="93" y="620"/>
      <point x="-26" y="735" type="qcurve"/>
      <point x="-7" y="761"/>
      <point x="42" y="796"/>
      <point x="88" y="817" type="qcurve"/>
      <point x="207" y="714"/>
      <point x="337" y="463"/>
      <point x="337" y="336" type="qcurve" smooth="yes"/>
      <point x="337" y="188"/>
      <point x="204" y="-70"/>
      <point x="69" y="-183" type="qcurve"/>
      <point x="37" y="-171"/>
      <point x="-19" y="-129"/>
    </contour>
  </outline>
</glyph>
<glyph name="plus" format="1">
  <advance width="501"/>
  <unicode hex="002B"/>
  <outline>
    <contour>
      <point x="323" y="271" type="qcurve"/>
      <point x="322" y="233"/>
      <point x="314" y="158"/>
      <point x="309" y="122" type="qcurve"/>
      <point x="276" y="118"/>
      <point x="217" y="117"/>
      <point x="189" y="119" type="qcurve"/>
      <point x="193" y="163"/>
      <point x="199" y="237"/>
      <point x="200" y="270" type="qcurve"/>
      <point x="157" y="271"/>
      <point x="74" y="279"/>
      <point x="39" y="284" type="qcurve"/>
      <point x="39" y="318"/>
      <point x="43" y="373"/>
      <point x="47" y="405" type="qcurve"/>
      <point x="84" y="400"/>
      <point x="161" y="394"/>
      <point x="199" y="393" type="qcurve"/>
      <point x="198" y="427"/>
      <point x="193" y="498"/>
      <point x="188" y="536" type="qcurve"/>
      <point x="220" y="540"/>
      <point x="275" y="544"/>
      <point x="309" y="544" type="qcurve"/>
      <point x="313" y="516"/>
      <point x="320" y="443"/>
      <point x="323" y="393" type="qcurve"/>
      <point x="370" y="395"/>
      <point x="445" y="400"/>
      <point x="478" y="404" type="qcurve"/>
      <point x="478" y="373"/>
      <point x="469" y="313"/>
      <point x="461" y="284" type="qcurve"/>
      <point x="431" y="279"/>
      <point x="362" y="273"/>
    </contour>
  </outline>
</glyph>
<glyph name="comma" format="1">
  <advance width="284"/>
  <unicode hex="002C"/>
  <outline>
    <contour>
      <point x="78" y="145" type="qcurve"/>
      <point x="129" y="149"/>
      <point x="226" y="141"/>
      <point x="264" y="129" type="qcurve"/>
      <point x="258" y="32"/>
      <point x="212" y="-152"/>
      <point x="172" y="-237" type="qcurve"/>
      <point x="130" y="-235"/>
      <point x="63" y="-225"/>
      <point x="35" y="-217" type="qcurve"/>
      <point x="58" y="-127"/>
      <point x="79" y="53"/>
    </contour>
  </outline>
</glyph>
<glyph name="slash" format="1">
  <advance width="464"/>
  <unicode hex="002F"/>
  <outline>
    <contour>
      <point x="367" y="760" type="qcurve"/>
      <point x="399" y="758"/>
      <point x="480" y="714"/>
      <point x="509" y="683" type="qcurve"/>
      <point x="424" y="484"/>
      <point x="169" y="-25"/>
      <point x="62" y="-211" type="qcurve"/>
      <point x="30" y="-200"/>
      <point x="-35" y="-168"/>
      <point x="-52" y="-154" type="qcurve"/>
      <point x="32" y="2"/>
      <point x="321" y="630"/>
    </contour>
  </outline>
</glyph>
<glyph name="zero" format="1">
  <advance width="639"/>
  <unicode hex="0030"/>
  <outline>
    <contour>
      <point x="30" y="293" type="qcurve" smooth="yes"/>
      <point x="30" y="460"/>
      <point x="216" y="673"/>
      <point x="363" y="673" type="qcurve" smooth="yes"/>
      <point x="481" y="673"/>
      <point x="609" y="532"/>
      <point x="609" y="402" type="qcurve" smooth="yes"/>
      <point x="609" y="328"/>
      <point x="566" y="175"/>
      <point x="527" y="117" type="qcurve" smooth="yes"/>
      <point x="482" y="49"/>
      <point x="354" y="-20"/>
      <point x="274" y="-20" type="qcurve" smooth="yes"/>
      <point x="158" y="-20"/>
      <point x="30" y="149"/>
    </contour>
    <contour>
      <point x="400" y="347" type="qcurve" smooth="yes"/>
      <point x="400" y="445"/>
      <point x="364" y="543"/>
      <point x="328" y="543" type="qcurve" smooth="yes"/>
      <point x="286" y="543"/>
      <point x="235" y="422"/>
      <point x="235" y="321" type="qcurve" smooth="yes"/>
      <point x="235" y="232"/>
      <point x="280" y="110"/>
      <point x="317" y="110" type="qcurve" smooth="yes"/>
      <point x="356" y="110"/>
      <point x="400" y="242"/>
    </contour>
  </outline>
</glyph>
<glyph name="three" format="1">
  <advance width="575.0"/>
  <unicode hex="0033"/>
  <outline>
    <contour>
      <point x="540" y="178" type="qcurve" smooth="yes"/>
      <point x="540" y="84"/>
      <point x="380" y="-57"/>
      <point x="273" y="-57" type="qcurve" smooth="yes"/>
      <point x="162" y="-57"/>
      <point x="35" y="52"/>
      <point x="30" y="154" type="qcurve"/>
      <point x="66" y="172"/>
      <point x="156" y="189"/>
      <point x="213" y="189" type="qcurve"/>
      <point x="213" y="129"/>
      <point x="256" y="52"/>
      <point x="284" y="52" type="qcurve" smooth="yes"/>
      <point x="308" y="52"/>
      <point x="334" y="95"/>
      <point x="334" y="137" type="qcurve" smooth="yes"/>
      <point x="334" y="197"/>
      <point x="255" y="273"/>
      <point x="183" y="278" type="qcurve"/>
      <point x="173" y="317"/>
      <point x="168" y="364"/>
      <point x="168" y="395" type="qcurve"/>
      <point x="205" y="418"/>
      <point x="270" y="468"/>
      <point x="298" y="495" type="qcurve"/>
      <point x="239" y="490"/>
      <point x="117" y="471"/>
      <point x="55" y="458" type="qcurve"/>
      <point x="45" y="486"/>
      <point x="34" y="566"/>
      <point x="34" y="608" type="qcurve"/>
      <point x="116" y="634"/>
      <point x="387" y="670"/>
      <point x="503" y="671" type="qcurve"/>
      <point x="517" y="637"/>
      <point x="532" y="551"/>
      <point x="532" y="504" type="qcurve"/>
      <point x="482" y="449"/>
      <point x="413" y="389"/>
      <point x="367" y="356" type="qcurve"/>
      <point x="455" y="330"/>
      <point x="540" y="243"/>
    </contour>
  </outline>
</glyph>
<glyph name="four" format="1">
  <advance width="653"/>
  <unicode hex="0034"/>
  <outline>
    <contour>
      <point x="503" y="102" type="qcurve"/>
      <point x="498" y="60"/>
      <point x="491" y="-2"/>
      <point x="489" y="-29" type="qcurve"/>
      <point x="469" y="-38"/>
      <point x="414" y="-48"/>
      <point x="382" y="-48" type="qcurve" smooth="yes"/>
      <point x="362" y="-48"/>
      <point x="335" y="-45"/>
      <point x="322" y="-41" type="qcurve"/>
      <point x="320" y="-27"/>
      <point x="319" y="10"/>
      <point x="319" y="50" type="qcurve" smooth="yes"/>
      <point x="319" y="77"/>
      <point x="319" y="106"/>
      <point x="320" y="119" type="qcurve"/>
      <point x="233" y="127"/>
      <point x="67" y="143"/>
      <point x="24" y="148" type="qcurve"/>
      <point x="21" y="156"/>
      <point x="10" y="199"/>
      <point x="3" y="234" type="qcurve"/>
      <point x="90" y="373"/>
      <point x="194" y="602"/>
      <point x="242" y="761" type="qcurve"/>
      <point x="280" y="761"/>
      <point x="365" y="743"/>
      <point x="434" y="718" type="qcurve"/>
      <point x="387" y="590"/>
      <point x="295" y="390"/>
      <point x="237" y="290" type="qcurve"/>
      <point x="243" y="289"/>
      <point x="258" y="287"/>
      <point x="272" y="284" type="qcurve" smooth="yes"/>
      <point x="296" y="280"/>
      <point x="321" y="276"/>
      <point x="331" y="275" type="qcurve"/>
      <point x="335" y="316"/>
      <point x="344" y="377"/>
      <point x="349" y="398" type="qcurve"/>
      <point x="375" y="412"/>
      <point x="438" y="424"/>
      <point x="478" y="424" type="qcurve" smooth="yes"/>
      <point x="497" y="424"/>
      <point x="545" y="418"/>
      <point x="568" y="412" type="qcurve"/>
      <point x="558" y="386"/>
      <point x="537" y="302"/>
      <point x="527" y="250" type="qcurve"/>
      <point x="543" y="248"/>
      <point x="579" y="244"/>
      <point x="635" y="239" type="qcurve"/>
      <point x="635" y="202"/>
      <point x="615" y="121"/>
      <point x="600" y="96" type="qcurve"/>
      <point x="581" y="97"/>
      <point x="531" y="100"/>
    </contour>
  </outline>
</glyph>
<glyph name="five" format="1">
  <advance width="602"/>
  <unicode hex="0035"/>
  <outline>
    <contour>
      <point x="528" y="221" type="qcurve" smooth="yes"/>
      <point x="528" y="110"/>
      <point x="380" y="-37"/>
      <point x="263" y="-37" type="qcurve" smooth="yes"/>
      <point x="147" y="-37"/>
      <point x="12" y="88"/>
      <point x="6" y="204" type="qcurve"/>
      <point x="53" y="204"/>
      <point x="150" y="192"/>
      <point x="200" y="180" type="qcurve"/>
      <point x="200" y="128"/>
      <point x="232" y="72"/>
      <point x="261" y="72" type="qcurve" smooth="yes"/>
      <point x="291" y="72"/>
      <point x="322" y="118"/>
      <point x="322" y="163" type="qcurve" smooth="yes"/>
      <point x="322" y="218"/>
      <point x="259" y="289"/>
      <point x="206" y="289" type="qcurve" smooth="yes"/>
      <point x="191" y="289"/>
      <point x="158" y="283"/>
      <point x="139" y="277" type="qcurve"/>
      <point x="124" y="287"/>
      <point x="79" y="329"/>
      <point x="71" y="341" type="qcurve"/>
      <point x="70" y="353"/>
      <point x="69" y="382"/>
      <point x="69" y="411" type="qcurve" smooth="yes"/>
      <point x="69" y="471"/>
      <point x="81" y="610"/>
      <point x="94" y="692" type="qcurve"/>
      <point x="210" y="667"/>
      <point x="416" y="646"/>
      <point x="551" y="646" type="qcurve"/>
      <point x="551" y="599"/>
      <point x="536" y="513"/>
      <point x="522" y="479" type="qcurve"/>
      <point x="459" y="480"/>
      <point x="335" y="491"/>
      <point x="256" y="502" type="qcurve"/>
      <point x="254" y="465"/>
      <point x="253" y="431"/>
      <point x="253" y="419" type="qcurve"/>
      <point x="266" y="422"/>
      <point x="304" y="425"/>
      <point x="320" y="425" type="qcurve" smooth="yes"/>
      <point x="412" y="425"/>
      <point x="528" y="311"/>
    </contour>
  </outline>
</glyph>
<glyph name="seven" format="1">
  <advance width="539"/>
  <unicode hex="0037"/>
  <outline>
    <contour>
      <point x="497" y="471" type="qcurve"/>
      <point x="416" y="382"/>
      <point x="271" y="124"/>
      <point x="213" y="-36" type="qcurve"/>
      <point x="160" y="-41"/>
      <point x="64" y="-27"/>
      <point x="17" y="-7" type="qcurve"/>
      <point x="73" y="145"/>
      <point x="219" y="389"/>
      <point x="318" y="497" type="qcurve"/>
      <point x="240" y="495"/>
      <point x="87" y="499"/>
      <point x="1" y="506" type="qcurve"/>
      <point x="-1" y="556"/>
      <point x="15" y="644"/>
      <point x="35" y="682" type="qcurve"/>
      <point x="184" y="653"/>
      <point x="422" y="621"/>
      <point x="527" y="615" type="qcurve"/>
      <point x="528" y="584"/>
      <point x="516" y="524"/>
    </contour>
  </outline>
</glyph>
<glyph name="eight" format="1">
  <advance width="639"/>
  <unicode hex="0038"/>
  <outline>
    <contour>
      <point x="482" y="49" type="qcurve" smooth="yes"/>
      <point x="441" y="22"/>
      <point x="334" y="-6"/>
      <point x="270" y="-6" type="qcurve" smooth="yes"/>
      <point x="160" y="-6"/>
      <point x="38" y="89"/>
      <point x="38" y="170" type="qcurve" smooth="yes"/>
      <point x="38" y="225"/>
      <point x="102" y="316"/>
      <point x="161" y="346" type="qcurve"/>
      <point x="102" y="365"/>
      <point x="38" y="450"/>
      <point x="38" y="507" type="qcurve" smooth="yes"/>
      <point x="38" y="602"/>
      <point x="215" y="723"/>
      <point x="355" y="723" type="qcurve" smooth="yes"/>
      <point x="467" y="723"/>
      <point x="589" y="643"/>
      <point x="589" y="569" type="qcurve" smooth="yes"/>
      <point x="589" y="513"/>
      <point x="522" y="407"/>
      <point x="463" y="374" type="qcurve"/>
      <point x="525" y="358"/>
      <point x="589" y="286"/>
      <point x="589" y="233" type="qcurve" smooth="yes"/>
      <point x="589" y="182"/>
      <point x="532" y="82"/>
    </contour>
    <contour>
      <point x="310" y="414" type="qcurve" smooth="yes"/>
      <point x="344" y="414"/>
      <point x="381" y="476"/>
      <point x="381" y="528" type="qcurve" smooth="yes"/>
      <point x="381" y="571"/>
      <point x="349" y="619"/>
      <point x="322" y="619" type="qcurve" smooth="yes"/>
      <point x="287" y="619"/>
      <point x="243" y="559"/>
      <point x="243" y="513" type="qcurve" smooth="yes"/>
      <point x="243" y="469"/>
      <point x="279" y="414"/>
    </contour>
    <contour>
      <point x="310" y="97" type="qcurve" smooth="yes"/>
      <point x="343" y="97"/>
      <point x="381" y="161"/>
      <point x="381" y="211" type="qcurve" smooth="yes"/>
      <point x="381" y="257"/>
      <point x="351" y="303"/>
      <point x="322" y="303" type="qcurve" smooth="yes"/>
      <point x="286" y="303"/>
      <point x="243" y="245"/>
      <point x="243" y="196" type="qcurve" smooth="yes"/>
      <point x="243" y="155"/>
      <point x="280" y="97"/>
    </contour>
  </outline>
</glyph>
<glyph name="colon" format="1">
  <advance width="282"/>
  <unicode hex="003A"/>
  <outline>
    <contour>
      <point x="139" y="553" type="qcurve" smooth="yes"/>
      <point x="167" y="553"/>
      <point x="221" y="542"/>
      <point x="239" y="533" type="qcurve"/>
      <point x="242" y="491"/>
      <point x="246" y="400"/>
      <point x="247" y="370" type="qcurve"/>
      <point x="201" y="371"/>
      <point x="70" y="376"/>
      <point x="57" y="376" type="qcurve"/>
      <point x="54" y="431"/>
      <point x="49" y="506"/>
      <point x="45" y="544" type="qcurve"/>
      <point x="68" y="549"/>
      <point x="112" y="553"/>
    </contour>
    <contour>
      <point x="63" y="154" type="qcurve"/>
      <point x="110" y="159"/>
      <point x="206" y="163"/>
      <point x="255" y="163" type="qcurve"/>
      <point x="255" y="158"/>
      <point x="258" y="27"/>
      <point x="257" y="-17" type="qcurve"/>
      <point x="203" y="-17"/>
      <point x="89" y="-10"/>
      <point x="64" y="-4" type="qcurve"/>
      <point x="63" y="32"/>
      <point x="63" y="92"/>
    </contour>
  </outline>
</glyph>
<glyph name="equal" format="1">
  <advance width="501"/>
  <unicode hex="003D"/>
  <outline>
    <contour>
      <point x="38" y="358" type="qcurve"/>
      <point x="38" y="392"/>
      <point x="42" y="447"/>
      <point x="46" y="479" type="qcurve"/>
      <point x="146" y="466"/>
      <point x="361" y="466"/>
      <point x="477" y="478" type="qcurve"/>
      <point x="477" y="447"/>
      <point x="468" y="387"/>
      <point x="460" y="358" type="qcurve"/>
      <point x="367" y="343"/>
      <point x="130" y="344"/>
    </contour>
    <contour>
      <point x="24" y="189" type="qcurve"/>
      <point x="24" y="223"/>
      <point x="28" y="278"/>
      <point x="32" y="310" type="qcurve"/>
      <point x="132" y="297"/>
      <point x="347" y="297"/>
      <point x="463" y="309" type="qcurve"/>
      <point x="463" y="278"/>
      <point x="454" y="218"/>
      <point x="446" y="189" type="qcurve"/>
      <point x="353" y="174"/>
      <point x="116" y="175"/>
    </contour>
  </outline>
</glyph>
<glyph name="A" format="1">
  <advance width="673"/>
  <unicode hex="0041"/>
  <outline>
    <contour>
      <point x="672" y="-55" type="qcurve"/>
      <point x="637" y="-78"/>
      <point x="540" y="-109"/>
      <point x="473" y="-117" type="qcurve"/>
      <point x="467" y="-57"/>
      <point x="446" y="74"/>
      <point x="430" y="142" type="qcurve"/>
      <point x="366" y="141"/>
      <point x="264" y="135"/>
      <point x="219" y="129" type="qcurve"/>
      <point x="203" y="84"/>
      <point x="169" y="2"/>
      <point x="152" y="-32" type="qcurve"/>
      <point x="103" y="-24"/>
      <point x="16" y="23"/>
      <point x="-9" y="55" type="qcurve"/>
      <point x="68" y="198"/>
      <point x="182" y="489"/>
      <point x="244" y="710" type="qcurve"/>
      <point x="293" y="710"/>
      <point x="372" y="701"/>
      <point x="420" y="689" type="qcurve"/>
      <point x="507" y="551"/>
      <point x="635" y="171"/>
    </contour>
    <contour>
      <point x="327" y="481" type="qcurve"/>
      <point x="314" y="432"/>
      <point x="282" y="322"/>
      <point x="264" y="265" type="qcurve"/>
      <point x="298" y="270"/>
      <point x="363" y="276"/>
      <point x="396" y="277" type="qcurve"/>
      <point x="379" y="333"/>
      <point x="345" y="435"/>
    </contour>
    <contour>
      <point x="309" y="745" type="move" name="top"/>
    </contour>
  </outline>
</glyph>
<glyph name="C" format="1">
  <advance width="618"/>
  <unicode hex="0043"/>
  <outline>
    <contour>
      <point x="437" y="235" type="qcurve"/>
      <point x="478" y="239"/>
      <point x="569" y="222"/>
      <point x="589" y="207" type="qcurve"/>
      <point x="581" y="92"/>
      <point x="430" y="-35"/>
      <point x="299" y="-35" type="qcurve" smooth="yes"/>
      <point x="175" y="-35"/>
      <point x="35" y="119"/>
      <point x="35" y="261" type="qcurve" smooth="yes"/>
      <point x="35" y="443"/>
      <point x="235" y="693"/>
      <point x="387" y="693" type="qcurve" smooth="yes"/>
      <point x="480" y="693"/>
      <point x="594" y="578"/>
      <point x="603" y="475" type="qcurve"/>
      <point x="550" y="452"/>
      <point x="474" y="438"/>
      <point x="416" y="438" type="qcurve"/>
      <point x="416" y="503"/>
      <point x="383" y="573"/>
      <point x="353" y="573" type="qcurve" smooth="yes"/>
      <point x="311" y="573"/>
      <point x="255" y="419"/>
      <point x="255" y="310" type="qcurve" smooth="yes"/>
      <point x="255" y="204"/>
      <point x="306" y="91"/>
      <point x="353" y="91" type="qcurve" smooth="yes"/>
      <point x="401" y="91"/>
      <point x="445" y="167"/>
    </contour>
  </outline>
</glyph>
<glyph name="D" format="1">
  <advance width="633"/>
  <unicode hex="0044"/>
  <outline>
    <contour>
      <point x="613" y="441" type="qcurve" smooth="yes"/>
      <point x="613" y="302"/>
      <point x="399" y="36"/>
      <point x="247" y="-9" type="qcurve"/>
      <point x="203" y="-9"/>
      <point x="111" y="-2"/>
      <point x="77" y="4" type="qcurve"/>
      <point x="61" y="145"/>
      <point x="45" y="398"/>
      <point x="45" y="508" type="qcurve" smooth="yes"/>
      <point x="45" y="545"/>
      <point x="46" y="621"/>
      <point x="48" y="659" type="qcurve"/>
      <point x="115" y="690"/>
      <point x="229" y="717"/>
      <point x="291" y="717" type="qcurve" smooth="yes"/>
      <point x="448" y="717"/>
      <point x="613" y="575"/>
    </contour>
    <contour>
      <point x="258" y="598" type="qcurve"/>
      <point x="250" y="503"/>
      <point x="241" y="300"/>
      <point x="241" y="191" type="qcurve" smooth="yes"/>
      <point x="241" y="169"/>
      <point x="241" y="146"/>
      <point x="242" y="137" type="qcurve"/>
      <point x="322" y="179"/>
      <point x="408" y="336"/>
      <point x="408" y="439" type="qcurve" smooth="yes"/>
      <point x="408" y="512"/>
      <point x="335" y="599"/>
      <point x="274" y="599" type="qcurve" smooth="yes"/>
      <point x="267" y="599"/>
      <point x="261" y="599"/>
    </contour>
  </outline>
</glyph>
<glyph name="H" format="1">
  <advance width="687"/>
  <unicode hex="0048"/>
  <outline>
    <contour>
      <point x="620" y="710" type="qcurve"/>
      <point x="628" y="546"/>
      <point x="639" y="106"/>
      <point x="639" y="-60" type="qcurve"/>
      <point x="584" y="-60"/>
      <point x="466" y="-50"/>
      <point x="440" y="-42" type="qcurve"/>
      <point x="440" y="23"/>
      <point x="438" y="197"/>
      <point x="437" y="286" type="qcurve"/>
      <point x="388" y="285"/>
      <point x="302" y="280"/>
      <point x="264" y="275" type="qcurve"/>
      <point x="263" y="225"/>
      <point x="262" y="114"/>
      <point x="262" y="24" type="qcurve"/>
      <point x="236" y="16"/>
      <point x="129" y="4"/>
      <point x="86" y="4" type="qcurve"/>
      <point x="65" y="259"/>
      <point x="48" y="571"/>
      <point x="48" y="680" type="qcurve"/>
      <point x="72" y="696"/>
      <point x="144" y="714"/>
      <point x="182" y="714" type="qcurve" smooth="yes"/>
      <point x="210" y="714"/>
      <point x="256" y="708"/>
      <point x="279" y="702" type="qcurve"/>
      <point x="275" y="657"/>
      <point x="269" y="515"/>
      <point x="267" y="427" type="qcurve"/>
      <point x="311" y="434"/>
      <point x="393" y="443"/>
      <point x="434" y="444" type="qcurve"/>
      <point x="432" y="531"/>
      <point x="424" y="680"/>
      <point x="420" y="730" type="qcurve"/>
      <point x="444" y="736"/>
      <point x="485" y="742"/>
      <point x="507" y="742" type="qcurve" smooth="yes"/>
      <point x="539" y="742"/>
      <point x="599" y="725"/>
    </contour>
  </outline>
</glyph>
<glyph name="I" format="1">
  <advance width="332"/>
  <unicode hex="0049"/>
  <outline>
    <contour>
      <point x="273" y="526" type="qcurve" smooth="yes"/>
      <point x="273" y="390"/>
      <point x="261" y="93"/>
      <point x="251" y="-12" type="qcurve"/>
      <point x="223" y="-20"/>
      <point x="126" y="-32"/>
      <point x="85" y="-32" type="qcurve"/>
      <point x="85" y="177"/>
      <point x="67" y="519"/>
      <point x="49" y="655" type="qcurve"/>
      <point x="73" y="671"/>
      <point x="138" y="689"/>
      <point x="174" y="689" type="qcurve" smooth="yes"/>
      <point x="201" y="689"/>
      <point x="244" y="684"/>
      <point x="270" y="677" type="qcurve"/>
      <point x="271" y="646"/>
      <point x="273" y="569"/>
    </contour>
  </outline>
</glyph>
<glyph name="J" format="1">
  <advance width="535"/>
  <unicode hex="004A"/>
  <outline>
    <contour>
      <point x="453" y="152" type="qcurve" smooth="yes"/>
      <point x="431" y="36"/>
      <point x="315" y="-88"/>
      <point x="229" y="-88" type="qcurve"/>
      <point x="148" y="-88"/>
      <point x="20" y="39"/>
      <point x="10" y="127" type="qcurve"/>
      <point x="40" y="153"/>
      <point x="114" y="184"/>
      <point x="159" y="190" type="qcurve"/>
      <point x="173" y="99"/>
      <point x="200" y="41"/>
      <point x="222" y="41" type="qcurve" smooth="yes"/>
      <point x="252" y="41"/>
      <point x="278" y="126"/>
      <point x="278" y="218" type="qcurve" smooth="yes"/>
      <point x="278" y="322"/>
      <point x="262" y="584"/>
      <point x="248" y="692" type="qcurve"/>
      <point x="271" y="708"/>
      <point x="345" y="726"/>
      <point x="385" y="726" type="qcurve" smooth="yes"/>
      <point x="413" y="726"/>
      <point x="459" y="720"/>
      <point x="482" y="714" type="qcurve"/>
      <point x="483" y="683"/>
      <point x="485" y="606"/>
      <point x="485" y="563" type="qcurve" smooth="yes"/>
      <point x="485" y="429"/>
      <point x="471" y="248"/>
    </contour>
  </outline>
</glyph>
<glyph name="M" format="1">
  <advance width="837"/>
  <unicode hex="004D"/>
  <outline>
    <contour>
      <point x="804" y="-14" type="qcurve"/>
      <point x="749" y="-35"/>
      <point x="656" y="-51"/>
      <point x="596" y="-51" type="qcurve"/>
      <point x="605" y="50"/>
      <point x="617" y="320"/>
      <point x="621" y="471" type="qcurve"/>
      <point x="584" y="409"/>
      <point x="520" y="277"/>
      <point x="493" y="207" type="qcurve"/>
      <point x="469" y="200"/>
      <point x="402" y="198"/>
      <point x="371" y="204" type="qcurve"/>
      <point x="342" y="269"/>
      <point x="276" y="394"/>
      <point x="239" y="453" type="qcurve"/>
      <point x="239" y="332"/>
      <point x="266" y="95"/>
      <point x="289" y="16" type="qcurve"/>
      <point x="262" y="8"/>
      <point x="152" y="-4"/>
      <point x="105" y="-4" type="qcurve"/>
      <point x="86" y="127"/>
      <point x="60" y="534"/>
      <point x="60" y="689" type="qcurve"/>
      <point x="103" y="719"/>
      <point x="206" y="761"/>
      <point x="251" y="767" type="qcurve"/>
      <point x="323" y="674"/>
      <point x="420" y="520"/>
      <point x="454" y="447" type="qcurve"/>
      <point x="492" y="535"/>
      <point x="583" y="696"/>
      <point x="634" y="766" type="qcurve"/>
      <point x="674" y="760"/>
      <point x="754" y="737"/>
      <point x="790" y="720" type="qcurve"/>
      <point x="797" y="583"/>
      <point x="804" y="189"/>
    </contour>
  </outline>
</glyph>
<glyph name="P" format="1">
  <advance width="634"/>
  <unicode hex="0050"/>
  <outline>
    <contour>
      <point x="261" y="209" type="qcurve"/>
      <point x="261" y="173"/>
      <point x="263" y="90"/>
      <point x="270" y="-68" type="qcurve"/>
      <point x="225" y="-68"/>
      <point x="133" y="-61"/>
      <point x="98" y="-55" type="qcurve"/>
      <point x="79" y="104"/>
      <point x="61" y="399"/>
      <point x="61" y="538" type="qcurve" smooth="yes"/>
      <point x="61" y="569"/>
      <point x="64" y="639"/>
      <point x="68" y="684" type="qcurve"/>
      <point x="120" y="710"/>
      <point x="269" y="742"/>
      <point x="341" y="742" type="qcurve" smooth="yes"/>
      <point x="463" y="742"/>
      <point x="596" y="639"/>
      <point x="596" y="547" type="qcurve" smooth="yes"/>
      <point x="596" y="435"/>
      <point x="417" y="253"/>
    </contour>
    <contour>
      <point x="390" y="511" type="qcurve" smooth="yes"/>
      <point x="390" y="569"/>
      <point x="345" y="629"/>
      <point x="300" y="629" type="qcurve" smooth="yes"/>
      <point x="291" y="629"/>
      <point x="282" y="629"/>
      <point x="278" y="628" type="qcurve"/>
      <point x="272" y="561"/>
      <point x="264" y="417"/>
      <point x="262" y="338" type="qcurve"/>
      <point x="326" y="355"/>
      <point x="390" y="441"/>
    </contour>
  </outline>
</glyph>
<glyph name="R" format="1">
  <advance width="638"/>
  <unicode hex="0052"/>
  <outline>
    <contour>
      <point x="643" y="44" type="qcurve"/>
      <point x="612" y="12"/>
      <point x="522" y="-38"/>
      <point x="463" y="-55" type="qcurve"/>
      <point x="399" y="96"/>
      <point x="334" y="223"/>
      <point x="298" y="276" type="qcurve"/>
      <point x="289" y="274"/>
      <point x="280" y="271"/>
      <point x="276" y="269" type="qcurve"/>
      <point x="274" y="197"/>
      <point x="266" y="60"/>
      <point x="260" y="-7" type="qcurve"/>
      <point x="215" y="-7"/>
      <point x="123" y="0"/>
      <point x="88" y="6" type="qcurve"/>
      <point x="89" y="53"/>
      <point x="90" y="99"/>
      <point x="90" y="119" type="qcurve" smooth="yes"/>
      <point x="90" y="246"/>
      <point x="73" y="522"/>
      <point x="55" y="684" type="qcurve"/>
      <point x="102" y="724"/>
      <point x="237" y="770"/>
      <point x="303" y="770" type="qcurve" smooth="yes"/>
      <point x="434" y="770"/>
      <point x="576" y="658"/>
      <point x="576" y="557" type="qcurve" smooth="yes"/>
      <point x="576" y="496"/>
      <point x="512" y="390"/>
      <point x="449" y="348" type="qcurve"/>
      <point x="502" y="287"/>
      <point x="597" y="139"/>
    </contour>
    <contour>
      <point x="278" y="394" type="qcurve"/>
      <point x="278" y="390" type="line"/>
      <point x="325" y="408"/>
      <point x="371" y="482"/>
      <point x="371" y="539" type="qcurve" smooth="yes"/>
      <point x="371" y="595"/>
      <point x="322" y="657"/>
      <point x="276" y="657" type="qcurve"/>
      <point x="272" y="657" type="line"/>
      <point x="275" y="559"/>
      <point x="278" y="444"/>
    </contour>
  </outline>
</glyph>
<glyph name="V" format="1">
  <advance width="622"/>
  <unicode hex="0056"/>
  <outline>
    <contour>
      <point x="627" y="730" type="qcurve"/>
      <point x="599" y="533"/>
      <point x="466" y="104"/>
      <point x="378" y="-76" type="qcurve"/>
      <point x="351" y="-87"/>
      <point x="263" y="-98"/>
      <point x="207" y="-98" type="qcurve"/>
      <point x="137" y="79"/>
      <point x="33" y="428"/>
      <point x="0" y="597" type="qcurve"/>
      <point x="45" y="617"/>
      <point x="156" y="639"/>
      <point x="216" y="640" type="qcurve"/>
      <point x="243" y="438"/>
      <point x="290" y="201"/>
      <point x="317" y="120" type="qcurve"/>
      <point x="354" y="229"/>
      <point x="418" y="546"/>
      <point x="447" y="769" type="qcurve"/>
      <point x="495" y="766"/>
      <point x="587" y="746"/>
    </contour>
  </outline>
</glyph>
<glyph name="X" format="1">
  <advance width="649"/>
  <unicode hex="0058"/>
  <outline>
    <contour>
      <point x="621" y="40" type="qcurve"/>
      <point x="601" y="18"/>
      <point x="526" y="-32"/>
      <point x="479" y="-56" type="qcurve"/>
      <point x="421" y="62"/>
      <point x="353" y="193"/>
      <point x="323" y="247" type="qcurve"/>
      <point x="267" y="178"/>
      <point x="162" y="61"/>
      <point x="100" y="-2" type="qcurve"/>
      <point x="75" y="14"/>
      <point x="13" y="73"/>
      <point x="-4" y="97" type="qcurve"/>
      <point x="136" y="266"/>
      <point x="204" y="352"/>
      <point x="235" y="394" type="qcurve"/>
      <point x="183" y="475"/>
      <point x="77" y="616"/>
      <point x="20" y="679" type="qcurve"/>
      <point x="61" y="715"/>
      <point x="162" y="777"/>
      <point x="208" y="794" type="qcurve"/>
      <point x="251" y="735"/>
      <point x="331" y="615"/>
      <point x="369" y="554" type="qcurve"/>
      <point x="409" y="613"/>
      <point x="473" y="719"/>
      <point x="501" y="771" type="qcurve"/>
      <point x="539" y="753"/>
      <point x="615" y="689"/>
      <point x="639" y="654" type="qcurve"/>
      <point x="604" y="600"/>
      <point x="516" y="482"/>
      <point x="455" y="405" type="qcurve"/>
      <point x="502" y="318"/>
      <point x="584" y="137"/>
    </contour>
  </outline>
</glyph>
<glyph name="Y" format="1">
  <advance width="564"/>
  <unicode hex="0059"/>
  <outline>
    <contour>
      <point x="559" y="661" type="qcurve"/>
      <point x="496" y="420"/>
      <point x="347" y="56"/>
      <point x="246" y="-103" type="qcurve"/>
      <point x="206" y="-93"/>
      <point x="117" y="-53"/>
      <point x="92" y="-33" type="qcurve"/>
      <point x="127" y="26"/>
      <point x="186" y="137"/>
      <point x="210" y="192" type="qcurve"/>
      <point x="137" y="282"/>
      <point x="29" y="524"/>
      <point x="-5" y="673" type="qcurve"/>
      <point x="37" y="703"/>
      <point x="134" y="734"/>
      <point x="194" y="737" type="qcurve"/>
      <point x="209" y="626"/>
      <point x="251" y="466"/>
      <point x="285" y="392" type="qcurve"/>
      <point x="308" y="463"/>
      <point x="346" y="627"/>
      <point x="363" y="729" type="qcurve"/>
      <point x="423" y="721"/>
      <point x="518" y="688"/>
    </contour>
  </outline>
</glyph>
<glyph name="bracketleft" format="1">
  <advance width="435"/>
  <unicode hex="005B"/>
  <outline>
    <contour>
      <point x="420" y="-125" type="qcurve"/>
      <point x="345" y="-134"/>
      <point x="200" y="-143"/>
      <point x="132" y="-143" type="qcurve"/>
      <point x="107" y="13"/>
      <point x="67" y="545"/>
      <point x="64" y="756" type="qcurve"/>
      <point x="181" y="779"/>
      <point x="317" y="796"/>
      <point x="388" y="798" type="qcurve"/>
      <point x="388" y="759"/>
      <point x="383" y="694"/>
      <point x="378" y="671" type="qcurve"/>
      <point x="343" y="671"/>
      <point x="272" y="670"/>
      <point x="237" y="668" type="qcurve"/>
      <point x="226" y="531"/>
      <point x="234" y="187"/>
      <point x="252" y="-13" type="qcurve"/>
      <point x="277" y="-13"/>
      <point x="354" y="-4"/>
      <point x="401" y="5" type="qcurve"/>
      <point x="408" y="-15"/>
      <point x="420" y="-96"/>
    </contour>
  </outline>
</glyph>
<glyph name="asciicircum" format="1">
  <advance width="500"/>
  <unicode hex="005E"/>
  <outline>
    <contour>
      <point x="504" y="159" type="qcurve"/>
      <point x="478" y="146"/>
      <point x="430" y="129"/>
      <point x="394" y="122" type="qcurve"/>
      <point x="362" y="198"/>
      <point x="289" y="336"/>
      <point x="250" y="398" type="qcurve"/>
      <point x="211" y="336"/>
      <point x="138" y="198"/>
      <point x="106" y="122" type="qcurve"/>
      <point x="70" y="129"/>
      <point x="22" y="146"/>
      <point x="-4" y="159" type="qcurve"/>
      <point x="31" y="253"/>
      <point x="164" y="497"/>
      <point x="218" y="565" type="qcurve"/>
      <point x="282" y="565" type="line"/>
      <point x="336" y="497"/>
      <point x="469" y="253"/>
    </contour>
  </outline>
</glyph>
<glyph name="e" format="1">
  <advance width="545"/>
  <unicode hex="0065"/>
  <outline>
    <contour>
      <point x="242" y="346" type="qcurve"/>
      <point x="254" y="343"/>
      <point x="277" y="340"/>
      <point x="285" y="340" type="qcurve" smooth="yes"/>
      <point x="293" y="340"/>
      <point x="314" y="341"/>
      <point x="318" y="342" type="qcurve"/>
      <point x="324" y="366"/>
      <point x="331" y="408"/>
      <point x="331" y="425" type="qcurve" smooth="yes"/>
      <point x="331" y="446"/>
      <point x="320" y="466"/>
      <point x="309" y="466" type="qcurve" smooth="yes"/>
      <point x="289" y="466"/>
      <point x="253" y="401"/>
    </contour>
    <contour>
      <point x="363" y="192" type="qcurve"/>
      <point x="401" y="185"/>
      <point x="480" y="144"/>
      <point x="505" y="118" type="qcurve"/>
      <point x="497" y="92"/>
      <point x="439" y="32"/>
      <point x="399" y="12" type="qcurve" smooth="yes"/>
      <point x="367" y="-4"/>
      <point x="292" y="-21"/>
      <point x="251" y="-21" type="qcurve" smooth="yes"/>
      <point x="147" y="-21"/>
      <point x="30" y="100"/>
      <point x="30" y="204" type="qcurve" smooth="yes"/>
      <point x="30" y="269"/>
      <point x="71" y="394"/>
      <point x="109" y="445" type="qcurve" smooth="yes"/>
      <point x="152" y="502"/>
      <point x="264" y="566"/>
      <point x="323" y="566" type="qcurve" smooth="yes"/>
      <point x="407" y="566"/>
      <point x="507" y="481"/>
      <point x="507" y="410" type="qcurve" smooth="yes"/>
      <point x="507" y="378"/>
      <point x="494" y="301"/>
      <point x="484" y="273" type="qcurve"/>
      <point x="453" y="258"/>
      <point x="362" y="243"/>
      <point x="299" y="243" type="qcurve" smooth="yes"/>
      <point x="281" y="243"/>
      <point x="246" y="247"/>
      <point x="229" y="250" type="qcurve"/>
      <point x="228" y="244"/>
      <point x="228" y="229"/>
      <point x="228" y="214" type="qcurve" smooth="yes"/>
      <point x="228" y="154"/>
      <point x="259" y="90"/>
      <point x="288" y="90" type="qcurve" smooth="yes"/>
      <point x="307" y="90"/>
      <point x="351" y="152"/>
    </contour>
  </outline>
</glyph>
<glyph name="f" format="1">
  <advance width="474"/>
  <unicode hex="0066"/>
  <outline>
    <contour>
      <point x="268" y="361" type="qcurve"/>
      <point x="276" y="274"/>
      <point x="314" y="61"/>
      <point x="329" y="11" type="qcurve"/>
      <point x="290" y="-3"/>
      <point x="173" y="-21"/>
      <point x="120" y="-21" type="qcurve"/>
      <point x="107" y="38"/>
      <point x="82" y="284"/>
      <point x="81" y="381" type="qcurve"/>
      <point x="58" y="385"/>
      <point x="21" y="395"/>
      <point x="10" y="400" type="qcurve"/>
      <point x="10" y="420"/>
      <point x="24" y="483"/>
      <point x="31" y="490" type="qcurve"/>
      <point x="42" y="488"/>
      <point x="71" y="486"/>
      <point x="87" y="485" type="qcurve"/>
      <point x="103" y="603"/>
      <point x="215" y="727"/>
      <point x="305" y="727" type="qcurve" smooth="yes"/>
      <point x="379" y="727"/>
      <point x="464" y="648"/>
      <point x="464" y="584" type="qcurve" smooth="yes"/>
      <point x="464" y="571"/>
      <point x="459" y="545"/>
      <point x="455" y="534" type="qcurve"/>
      <point x="423" y="534"/>
      <point x="352" y="544"/>
      <point x="313" y="555" type="qcurve"/>
      <point x="316" y="562"/>
      <point x="318" y="577"/>
      <point x="318" y="586" type="qcurve" smooth="yes"/>
      <point x="318" y="602"/>
      <point x="311" y="616"/>
      <point x="302" y="616" type="qcurve" smooth="yes"/>
      <point x="284" y="616"/>
      <point x="266" y="549"/>
      <point x="264" y="477" type="qcurve"/>
      <point x="276" y="476"/>
      <point x="304" y="476"/>
      <point x="330" y="476" type="qcurve" smooth="yes"/>
      <point x="376" y="476"/>
      <point x="431" y="479"/>
      <point x="448" y="482" type="qcurve"/>
      <point x="448" y="457"/>
      <point x="441" y="391"/>
      <point x="436" y="368" type="qcurve"/>
      <point x="422" y="363"/>
      <point x="380" y="359"/>
      <point x="345" y="359" type="qcurve" smooth="yes"/>
      <point x="331" y="359"/>
      <point x="298" y="360"/>
    </contour>
  </outline>
</glyph>
<glyph name="g" format="1">
  <advance width="577"/>
  <unicode hex="0067"/>
  <outline>
    <contour>
      <point x="225" y="285" type="qcurve" smooth="yes"/>
      <point x="225" y="212"/>
      <point x="271" y="125"/>
      <point x="306" y="125" type="qcurve" smooth="yes"/>
      <point x="313" y="125"/>
      <point x="327" y="134"/>
      <point x="333" y="142" type="qcurve"/>
      <point x="333" y="150" type="line" smooth="yes"/>
      <point x="333" y="207"/>
      <point x="318" y="355"/>
      <point x="306" y="423" type="qcurve"/>
      <point x="303" y="424"/>
      <point x="296" y="424"/>
      <point x="289" y="424" type="qcurve" smooth="yes"/>
      <point x="256" y="424"/>
      <point x="225" y="356"/>
    </contour>
    <contour>
      <point x="533" y="169" type="qcurve" smooth="yes"/>
      <point x="533" y="-34"/>
      <point x="386" y="-247"/>
      <point x="250" y="-247" type="qcurve" smooth="yes"/>
      <point x="156" y="-247"/>
      <point x="51" y="-154"/>
      <point x="51" y="-87" type="qcurve"/>
      <point x="82" y="-63"/>
      <point x="169" y="-30"/>
      <point x="214" y="-24" type="qcurve"/>
      <point x="223" y="-86"/>
      <point x="247" y="-135"/>
      <point x="267" y="-135" type="qcurve" smooth="yes"/>
      <point x="295" y="-135"/>
      <point x="327" y="-50"/>
      <point x="331" y="41" type="qcurve"/>
      <point x="312" y="22"/>
      <point x="268" y="4"/>
      <point x="241" y="4" type="qcurve" smooth="yes"/>
      <point x="146" y="4"/>
      <point x="30" y="136"/>
      <point x="30" y="243" type="qcurve" smooth="yes"/>
      <point x="30" y="390"/>
      <point x="177" y="541"/>
      <point x="321" y="541" type="qcurve" smooth="yes"/>
      <point x="358" y="541"/>
      <point x="454" y="527"/>
      <point x="496" y="515" type="qcurve"/>
      <point x="510" y="467"/>
      <point x="533" y="258"/>
    </contour>
  </outline>
</glyph>
<glyph name="h" format="1">
  <advance width="598"/>
  <unicode hex="0068"/>
  <outline>
    <contour>
      <point x="548" y="343" type="qcurve" smooth="yes"/>
      <point x="548" y="259"/>
      <point x="497" y="31"/>
      <point x="469" y="-32" type="qcurve"/>
      <point x="428" y="-32"/>
      <point x="340" y="-14"/>
      <point x="294" y="3" type="qcurve"/>
      <point x="322" y="102"/>
      <point x="350" y="272"/>
      <point x="350" y="342" type="qcurve" smooth="yes"/>
      <point x="350" y="383"/>
      <point x="337" y="412"/>
      <point x="319" y="412" type="qcurve" smooth="yes"/>
      <point x="305" y="412"/>
      <point x="270" y="380"/>
      <point x="252" y="349" type="qcurve"/>
      <point x="250" y="309"/>
      <point x="248" y="216"/>
      <point x="248" y="160" type="qcurve" smooth="yes"/>
      <point x="248" y="133"/>
      <point x="249" y="77"/>
      <point x="251" y="47" type="qcurve"/>
      <point x="227" y="39"/>
      <point x="119" y="27"/>
      <point x="72" y="27" type="qcurve"/>
      <point x="64" y="142"/>
      <point x="55" y="389"/>
      <point x="55" y="496" type="qcurve" smooth="yes"/>
      <point x="55" y="581"/>
      <point x="58" y="688"/>
      <point x="62" y="729" type="qcurve"/>
      <point x="83" y="741"/>
      <point x="166" y="755"/>
      <point x="216" y="755" type="qcurve" smooth="yes"/>
      <point x="243" y="755"/>
      <point x="276" y="751"/>
      <point x="293" y="747" type="qcurve"/>
      <point x="282" y="695"/>
      <point x="265" y="562"/>
      <point x="259" y="480" type="qcurve"/>
      <point x="286" y="512"/>
      <point x="353" y="543"/>
      <point x="392" y="543" type="qcurve" smooth="yes"/>
      <point x="472" y="543"/>
      <point x="548" y="445"/>
    </contour>
  </outline>
</glyph>
<glyph name="i" format="1">
  <advance width="304"/>
  <unicode hex="0069"/>
  <outline>
    <contour>
      <point x="201" y="756" type="qcurve" smooth="yes"/>
      <point x="231" y="756"/>
      <point x="283" y="746"/>
      <point x="301" y="737" type="qcurve"/>
      <point x="292" y="716"/>
      <point x="270" y="635"/>
      <point x="265" y="604" type="qcurve"/>
      <point x="231" y="598"/>
      <point x="147" y="593"/>
      <point x="94" y="594" type="qcurve"/>
      <point x="87" y="616"/>
      <point x="80" y="660"/>
      <point x="80" y="681" type="qcurve" smooth="yes"/>
      <point x="80" y="697"/>
      <point x="83" y="721"/>
      <point x="86" y="731" type="qcurve"/>
      <point x="109" y="744"/>
      <point x="166" y="756"/>
    </contour>
    <contour>
      <point x="62" y="504" type="qcurve"/>
      <point x="89" y="520"/>
      <point x="161" y="536"/>
      <point x="203" y="536" type="qcurve" smooth="yes"/>
      <point x="223" y="536"/>
      <point x="262" y="532"/>
      <point x="280" y="529" type="qcurve"/>
      <point x="258" y="464"/>
      <point x="225" y="180"/>
      <point x="219" y="11" type="qcurve"/>
      <point x="198" y="0"/>
      <point x="133" y="-13"/>
      <point x="98" y="-13" type="qcurve" smooth="yes"/>
      <point x="83" y="-13"/>
      <point x="61" y="-11"/>
      <point x="53" y="-9" type="qcurve"/>
      <point x="38" y="134"/>
      <point x="42" y="397"/>
    </contour>
  </outline>
</glyph>
<glyph name="k" format="1">
  <advance width="580"/>
  <unicode hex="006B"/>
  <outline>
    <contour>
      <point x="233" y="158" type="qcurve"/>
      <point x="234" y="100"/>
      <point x="241" y="10"/>
      <point x="248" y="-32" type="qcurve"/>
      <point x="213" y="-45"/>
      <point x="135" y="-56"/>
      <point x="77" y="-56" type="qcurve"/>
      <point x="64" y="2"/>
      <point x="50" y="185"/>
      <point x="50" y="296" type="qcurve" smooth="yes"/>
      <point x="50" y="412"/>
      <point x="64" y="689"/>
      <point x="75" y="748" type="qcurve"/>
      <point x="119" y="748"/>
      <point x="261" y="724"/>
      <point x="293" y="710" type="qcurve"/>
      <point x="279" y="661"/>
      <point x="249" y="460"/>
      <point x="241" y="357" type="qcurve"/>
      <point x="269" y="387"/>
      <point x="329" y="461"/>
      <point x="416" y="577" type="qcurve"/>
      <point x="453" y="560"/>
      <point x="529" y="490"/>
      <point x="549" y="456" type="qcurve"/>
      <point x="510" y="407"/>
      <point x="406" y="314"/>
      <point x="336" y="264" type="qcurve"/>
      <point x="374" y="226"/>
      <point x="474" y="148"/>
      <point x="560" y="92" type="qcurve"/>
      <point x="512" y="34"/>
      <point x="441" y="-19"/>
      <point x="401" y="-31" type="qcurve"/>
      <point x="355" y="10"/>
      <point x="271" y="104"/>
    </contour>
  </outline>
</glyph>
<glyph name="l" format="1">
  <advance width="316"/>
  <unicode hex="006C"/>
  <outline>
    <contour>
      <point x="256" y="-42" type="qcurve"/>
      <point x="230" y="-50"/>
      <point x="127" y="-62"/>
      <point x="85" y="-62" type="qcurve"/>
      <point x="70" y="109"/>
      <point x="50" y="544"/>
      <point x="50" y="708" type="qcurve"/>
      <point x="73" y="724"/>
      <point x="142" y="742"/>
      <point x="179" y="742" type="qcurve" smooth="yes"/>
      <point x="207" y="742"/>
      <point x="253" y="736"/>
      <point x="276" y="730" type="qcurve"/>
      <point x="267" y="629"/>
      <point x="256" y="191"/>
    </contour>
  </outline>
</glyph>
<glyph name="m" format="1">
  <advance width="872"/>
  <unicode hex="006D"/>
  <outline>
    <contour>
      <point x="822" y="390" type="qcurve" smooth="yes"/>
      <point x="822" y="295"/>
      <point x="785" y="42"/>
      <point x="762" y="-43" type="qcurve"/>
      <point x="704" y="-43"/>
      <point x="606" y="-33"/>
      <point x="561" y="-23" type="qcurve"/>
      <point x="596" y="135"/>
      <point x="624" y="323"/>
      <point x="624" y="384" type="qcurve" smooth="yes"/>
      <point x="624" y="412"/>
      <point x="608" y="439"/>
      <point x="591" y="439" type="qcurve" smooth="yes"/>
      <point x="575" y="439"/>
      <point x="543" y="393"/>
      <point x="530" y="351" type="qcurve"/>
      <point x="530" y="343" type="line" smooth="yes"/>
      <point x="530" y="265"/>
      <point x="504" y="62"/>
      <point x="490" y="10" type="qcurve"/>
      <point x="452" y="10"/>
      <point x="362" y="19"/>
      <point x="304" y="29" type="qcurve"/>
      <point x="323" y="141"/>
      <point x="340" y="281"/>
      <point x="340" y="326" type="qcurve" smooth="yes"/>
      <point x="340" y="354"/>
      <point x="324" y="381"/>
      <point x="307" y="381" type="qcurve" smooth="yes"/>
      <point x="289" y="381"/>
      <point x="255" y="335"/>
      <point x="243" y="294" type="qcurve"/>
      <point x="242" y="214"/>
      <point x="241" y="131"/>
      <point x="241" y="99" type="qcurve" smooth="yes"/>
      <point x="241" y="92"/>
      <point x="240" y="41"/>
      <point x="241" y="22" type="qcurve"/>
      <point x="213" y="14"/>
      <point x="117" y="2"/>
      <point x="76" y="2" type="qcurve"/>
      <point x="57" y="142"/>
      <point x="30" y="447"/>
      <point x="30" y="544" type="qcurve"/>
      <point x="53" y="556"/>
      <point x="137" y="570"/>
      <point x="181" y="570" type="qcurve" smooth="yes"/>
      <point x="201" y="570"/>
      <point x="239" y="566"/>
      <point x="258" y="562" type="qcurve"/>
      <point x="255" y="536"/>
      <point x="249" y="472"/>
      <point x="248" y="439" type="qcurve"/>
      <point x="277" y="485"/>
      <point x="357" y="532"/>
      <point x="406" y="532" type="qcurve" smooth="yes"/>
      <point x="440" y="532"/>
      <point x="490" y="502"/>
      <point x="505" y="473" type="qcurve"/>
      <point x="537" y="530"/>
      <point x="631" y="590"/>
      <point x="690" y="590" type="qcurve" smooth="yes"/>
      <point x="755" y="590"/>
      <point x="822" y="489"/>
    </contour>
  </outline>
</glyph>
<glyph name="n" format="1">
  <advance width="598"/>
  <unicode hex="006E"/>
  <outline>
    <contour>
      <point x="241" y="99" type="qcurve" smooth="yes"/>
      <point x="241" y="71"/>
      <point x="242" y="16"/>
      <point x="244" y="-22" type="qcurve"/>
      <point x="216" y="-30"/>
      <point x="120" y="-42"/>
      <point x="79" y="-42" type="qcurve"/>
      <point x="64" y="67"/>
      <point x="41" y="409"/>
      <point x="41" y="525" type="qcurve"/>
      <point x="64" y="537"/>
      <point x="148" y="551"/>
      <point x="192" y="551" type="qcurve" smooth="yes"/>
      <point x="212" y="551"/>
      <point x="250" y="547"/>
      <point x="269" y="543" type="qcurve"/>
      <point x="264" y="507"/>
      <point x="260" y="475"/>
      <point x="259" y="459" type="qcurve"/>
      <point x="288" y="501"/>
      <point x="362" y="543"/>
      <point x="406" y="543" type="qcurve" smooth="yes"/>
      <point x="476" y="543"/>
      <point x="548" y="442"/>
      <point x="548" y="343" type="qcurve" smooth="yes"/>
      <point x="548" y="265"/>
      <point x="522" y="62"/>
      <point x="508" y="10" type="qcurve"/>
      <point x="469" y="10"/>
      <point x="375" y="19"/>
      <point x="314" y="29" type="qcurve"/>
      <point x="331" y="123"/>
      <point x="350" y="286"/>
      <point x="350" y="337" type="qcurve" smooth="yes"/>
      <point x="350" y="365"/>
      <point x="334" y="392"/>
      <point x="317" y="392" type="qcurve" smooth="yes"/>
      <point x="298" y="392"/>
      <point x="262" y="348"/>
      <point x="248" y="309" type="qcurve"/>
      <point x="244" y="246"/>
      <point x="241" y="141"/>
    </contour>
  </outline>
</glyph>
<glyph name="p" format="1">
  <advance width="569"/>
  <unicode hex="0070"/>
  <outline>
    <contour>
      <point x="241" y="126" type="qcurve"/>
      <point x="249" y="122"/>
      <point x="264" y="118"/>
      <point x="272" y="118" type="qcurve" smooth="yes"/>
      <point x="305" y="118"/>
      <point x="350" y="254"/>
      <point x="350" y="358" type="qcurve" smooth="yes"/>
      <point x="350" y="396"/>
      <point x="331" y="431"/>
      <point x="312" y="431" type="qcurve" smooth="yes"/>
      <point x="292" y="431"/>
      <point x="260" y="394"/>
      <point x="249" y="358" type="qcurve"/>
      <point x="246" y="311"/>
      <point x="242" y="198"/>
    </contour>
    <contour>
      <point x="243" y="11" type="qcurve"/>
      <point x="245" y="-38"/>
      <point x="253" y="-145"/>
      <point x="260" y="-213" type="qcurve"/>
      <point x="232" y="-221"/>
      <point x="136" y="-233"/>
      <point x="95" y="-233" type="qcurve"/>
      <point x="79" y="-119"/>
      <point x="58" y="212"/>
      <point x="58" y="353" type="qcurve" smooth="yes"/>
      <point x="58" y="412"/>
      <point x="62" y="506"/>
      <point x="67" y="552" type="qcurve"/>
      <point x="90" y="564"/>
      <point x="170" y="578"/>
      <point x="213" y="578" type="qcurve" smooth="yes"/>
      <point x="230" y="578"/>
      <point x="258" y="575"/>
      <point x="277" y="570" type="qcurve"/>
      <point x="273" y="558"/>
      <point x="267" y="525"/>
      <point x="263" y="497" type="qcurve"/>
      <point x="292" y="535"/>
      <point x="361" y="573"/>
      <point x="401" y="573" type="qcurve" smooth="yes"/>
      <point x="470" y="573"/>
      <point x="549" y="470"/>
      <point x="549" y="379" type="qcurve" smooth="yes"/>
      <point x="549" y="215"/>
      <point x="394" y="10"/>
      <point x="274" y="10" type="qcurve" smooth="yes"/>
      <point x="261" y="10"/>
      <point x="248" y="10"/>
    </contour>
  </outline>
</glyph>
<glyph name="q" format="1">
  <advance width="599"/>
  <unicode hex="0071"/>
  <outline>
    <contour>
      <point x="487" y="-223" type="qcurve"/>
      <point x="467" y="-232"/>
      <point x="412" y="-242"/>
      <point x="380" y="-242" type="qcurve" smooth="yes"/>
      <point x="360" y="-242"/>
      <point x="333" y="-239"/>
      <point x="320" y="-235" type="qcurve"/>
      <point x="319" y="-224"/>
      <point x="316" y="-89"/>
      <point x="315" y="9" type="qcurve"/>
      <point x="293" y="-20"/>
      <point x="242" y="-50"/>
      <point x="214" y="-50" type="qcurve" smooth="yes"/>
      <point x="126" y="-50"/>
      <point x="30" y="80"/>
      <point x="30" y="196" type="qcurve" smooth="yes"/>
      <point x="30" y="348"/>
      <point x="177" y="529"/>
      <point x="302" y="529" type="qcurve" smooth="yes"/>
      <point x="312" y="529"/>
      <point x="341" y="526"/>
      <point x="353" y="523" type="qcurve"/>
      <point x="354" y="527"/>
      <point x="356" y="536"/>
      <point x="358" y="545" type="qcurve" smooth="yes"/>
      <point x="359" y="549"/>
      <point x="360" y="553"/>
      <point x="360" y="555" type="qcurve"/>
      <point x="386" y="569"/>
      <point x="449" y="581"/>
      <point x="489" y="581" type="qcurve" smooth="yes"/>
      <point x="508" y="581"/>
      <point x="556" y="575"/>
      <point x="579" y="569" type="qcurve"/>
      <point x="551" y="497"/>
      <point x="487" y="-26"/>
    </contour>
    <contour>
      <point x="225" y="230" type="qcurve" smooth="yes"/>
      <point x="225" y="158"/>
      <point x="250" y="89"/>
      <point x="276" y="89" type="qcurve" smooth="yes"/>
      <point x="287" y="89"/>
      <point x="307" y="107"/>
      <point x="316" y="124" type="qcurve"/>
      <point x="317" y="187"/>
      <point x="329" y="343"/>
      <point x="338" y="417" type="qcurve"/>
      <point x="332" y="419"/>
      <point x="320" y="420"/>
      <point x="314" y="420" type="qcurve" smooth="yes"/>
      <point x="271" y="420"/>
      <point x="225" y="322"/>
    </contour>
  </outline>
</glyph>
<glyph name="s" format="1">
  <advance width="499"/>
  <unicode hex="0073"/>
  <outline>
    <contour>
      <point x="307" y="336" type="qcurve" smooth="yes"/>
      <point x="397" y="282"/>
      <point x="458" y="196"/>
      <point x="458" y="143" type="qcurve" smooth="yes"/>
      <point x="458" y="62"/>
      <point x="318" y="-45"/>
      <point x="217" y="-45" type="qcurve" smooth="yes"/>
      <point x="131" y="-45"/>
      <point x="15" y="59"/>
      <point x="15" y="130" type="qcurve"/>
      <point x="38" y="141"/>
      <point x="114" y="156"/>
      <point x="144" y="156" type="qcurve"/>
      <point x="144" y="112"/>
      <point x="181" y="58"/>
      <point x="215" y="58" type="qcurve" smooth="yes"/>
      <point x="240" y="58"/>
      <point x="266" y="80"/>
      <point x="266" y="101" type="qcurve" smooth="yes"/>
      <point x="266" y="122"/>
      <point x="233" y="162"/>
      <point x="176" y="197" type="qcurve" smooth="yes"/>
      <point x="91" y="250"/>
      <point x="35" y="331"/>
      <point x="35" y="382" type="qcurve" smooth="yes"/>
      <point x="35" y="462"/>
      <point x="158" y="567"/>
      <point x="254" y="567" type="qcurve" smooth="yes"/>
      <point x="349" y="567"/>
      <point x="468" y="483"/>
      <point x="484" y="407" type="qcurve"/>
      <point x="455" y="388"/>
      <point x="381" y="367"/>
      <point x="321" y="363" type="qcurve"/>
      <point x="314" y="410"/>
      <point x="285" y="453"/>
      <point x="260" y="453" type="qcurve" smooth="yes"/>
      <point x="243" y="453"/>
      <point x="224" y="433"/>
      <point x="224" y="416" type="qcurve" smooth="yes"/>
      <point x="224" y="400"/>
      <point x="254" y="367"/>
    </contour>
  </outline>
</glyph>
<glyph name="u" format="1">
  <advance width="549"/>
  <unicode hex="0075"/>
  <outline>
    <contour>
      <point x="246" y="-10" type="qcurve" smooth="yes"/>
      <point x="140" y="-10"/>
      <point x="30" y="132"/>
      <point x="30" y="265" type="qcurve" smooth="yes"/>
      <point x="30" y="338"/>
      <point x="61" y="497"/>
      <point x="76" y="526" type="qcurve"/>
      <point x="99" y="532"/>
      <point x="146" y="538"/>
      <point x="166" y="538" type="qcurve" smooth="yes"/>
      <point x="197" y="538"/>
      <point x="242" y="530"/>
      <point x="254" y="523" type="qcurve"/>
      <point x="245" y="469"/>
      <point x="235" y="357"/>
      <point x="235" y="305" type="qcurve" smooth="yes"/>
      <point x="235" y="213"/>
      <point x="257" y="110"/>
      <point x="277" y="110" type="qcurve" smooth="yes"/>
      <point x="296" y="110"/>
      <point x="318" y="228"/>
      <point x="318" y="323" type="qcurve" smooth="yes"/>
      <point x="318" y="368"/>
      <point x="310" y="465"/>
      <point x="306" y="484" type="qcurve"/>
      <point x="344" y="500"/>
      <point x="456" y="519"/>
      <point x="509" y="519" type="qcurve"/>
      <point x="514" y="496"/>
      <point x="519" y="424"/>
      <point x="519" y="382" type="qcurve" smooth="yes"/>
      <point x="519" y="190"/>
      <point x="381" y="-10"/>
    </contour>
  </outline>
</glyph>
<glyph name="y" format="1">
  <advance width="583"/>
  <unicode hex="0079"/>
  <outline>
    <contour>
      <point x="539" y="169" type="qcurve" smooth="yes"/>
      <point x="539" y="-34"/>
      <point x="392" y="-247"/>
      <point x="256" y="-247" type="qcurve" smooth="yes"/>
      <point x="162" y="-247"/>
      <point x="57" y="-154"/>
      <point x="57" y="-87" type="qcurve"/>
      <point x="88" y="-63"/>
      <point x="175" y="-30"/>
      <point x="220" y="-24" type="qcurve"/>
      <point x="229" y="-86"/>
      <point x="253" y="-135"/>
      <point x="273" y="-135" type="qcurve" smooth="yes"/>
      <point x="305" y="-135"/>
      <point x="336" y="-30"/>
      <point x="339" y="93" type="qcurve"/>
      <point x="313" y="54"/>
      <point x="248" y="16"/>
      <point x="207" y="16" type="qcurve" smooth="yes"/>
      <point x="131" y="16"/>
      <point x="30" y="155"/>
      <point x="30" y="261" type="qcurve" smooth="yes"/>
      <point x="30" y="328"/>
      <point x="48" y="449"/>
      <point x="72" y="539" type="qcurve"/>
      <point x="123" y="539"/>
      <point x="214" y="530"/>
      <point x="266" y="520" type="qcurve"/>
      <point x="246" y="443"/>
      <point x="230" y="333"/>
      <point x="230" y="272" type="qcurve" smooth="yes"/>
      <point x="230" y="222"/>
      <point x="256" y="157"/>
      <point x="278" y="157" type="qcurve" smooth="yes"/>
      <point x="296" y="157"/>
      <point x="325" y="184"/>
      <point x="337" y="212" type="qcurve"/>
      <point x="333" y="287"/>
      <point x="309" y="452"/>
      <point x="298" y="488" type="qcurve"/>
      <point x="333" y="501"/>
      <point x="443" y="515"/>
      <point x="502" y="515" type="qcurve"/>
      <point x="516" y="467"/>
      <point x="539" y="258"/>
    </contour>
  </outline>
</glyph>
<glyph name="exclamdown" format="1">
  <advance width="324"/>
  <unicode hex="00A1"/>
  <outline>
    <contour>
      <point x="142" y="571" type="qcurve" smooth="yes"/>
      <point x="170" y="571"/>
      <point x="225" y="560"/>
      <point x="243" y="551" type="qcurve"/>
      <point x="246" y="511"/>
      <point x="246" y="432"/>
      <point x="243" y="388" type="qcurve"/>
      <point x="219" y="388"/>
      <point x="171" y="390"/>
      <point x="127" y="392" type="qcurve" smooth="yes"/>
      <point x="102" y="393"/>
      <point x="77" y="394"/>
      <point x="65" y="394" type="qcurve"/>
      <point x="62" y="449"/>
      <point x="57" y="524"/>
      <point x="53" y="562" type="qcurve"/>
      <point x="77" y="567"/>
      <point x="117" y="571"/>
    </contour>
    <contour>
      <point x="236" y="291" type="qcurve"/>
      <point x="248" y="197"/>
      <point x="259" y="10"/>
      <point x="259" y="-107" type="qcurve" smooth="yes"/>
      <point x="259" y="-117"/>
      <point x="258" y="-141"/>
      <point x="257" y="-164" type="qcurve"/>
      <point x="225" y="-180"/>
      <point x="160" y="-196"/>
      <point x="124" y="-196" type="qcurve"/>
      <point x="101" y="-196"/>
      <point x="59" y="-189"/>
      <point x="40" y="-182" type="qcurve"/>
      <point x="61" y="-88"/>
      <point x="86" y="193"/>
      <point x="83" y="296" type="qcurve"/>
      <point x="92" y="299"/>
      <point x="118" y="301"/>
      <point x="139" y="301" type="qcurve" smooth="yes"/>
      <point x="162" y="301"/>
      <point x="213" y="296"/>
    </contour>
  </outline>
</glyph>
<glyph name="currency" format="1">
  <advance width="561"/>
  <unicode hex="00A4"/>
  <outline>
    <contour>
      <point x="326" y="370" type="qcurve" smooth="yes"/>
      <point x="326" y="434"/>
      <point x="302" y="496"/>
      <point x="276" y="496" type="qcurve" smooth="yes"/>
      <point x="253" y="496"/>
      <point x="221" y="412"/>
      <point x="221" y="347" type="qcurve" smooth="yes"/>
      <point x="221" y="295"/>
      <point x="251" y="217"/>
      <point x="273" y="217" type="qcurve" smooth="yes"/>
      <point x="297" y="217"/>
      <point x="326" y="306"/>
    </contour>
    <contour>
      <point x="379" y="155" type="qcurve"/>
      <point x="349" y="134"/>
      <point x="277" y="113"/>
      <point x="235" y="113" type="qcurve" smooth="yes"/>
      <point x="210" y="113"/>
      <point x="165" y="123"/>
      <point x="145" y="132" type="qcurve"/>
      <point x="124" y="100"/>
      <point x="90" y="57"/>
      <point x="75" y="42" type="qcurve"/>
      <point x="49" y="53"/>
      <point x="-9" y="99"/>
      <point x="-25" y="121" type="qcurve"/>
      <point x="6" y="148"/>
      <point x="48" y="192"/>
      <point x="66" y="217" type="qcurve"/>
      <point x="56" y="240"/>
      <point x="46" y="293"/>
      <point x="46" y="322" type="qcurve" smooth="yes"/>
      <point x="46" y="374"/>
      <point x="76" y="466"/>
      <point x="104" y="502" type="qcurve"/>
      <point x="75" y="527"/>
      <point x="32" y="570"/>
      <point x="18" y="589" type="qcurve"/>
      <point x="32" y="613"/>
      <point x="85" y="665"/>
      <point x="109" y="678" type="qcurve"/>
      <point x="131" y="643"/>
      <point x="171" y="595"/>
      <point x="194" y="574" type="qcurve"/>
      <point x="222" y="587"/>
      <point x="282" y="600"/>
      <point x="315" y="600" type="qcurve" smooth="yes"/>
      <point x="344" y="600"/>
      <point x="395" y="590"/>
      <point x="416" y="580" type="qcurve"/>
      <point x="434" y="606"/>
      <point x="470" y="652"/>
      <point x="487" y="668" type="qcurve"/>
      <point x="513" y="657"/>
      <point x="570" y="613"/>
      <point x="586" y="591" type="qcurve"/>
      <point x="555" y="564"/>
      <point x="513" y="519"/>
      <point x="494" y="493" type="qcurve"/>
      <point x="499" y="477"/>
      <point x="505" y="440"/>
      <point x="505" y="420" type="qcurve" smooth="yes"/>
      <point x="505" y="373"/>
      <point x="479" y="277"/>
      <point x="455" y="237" type="qcurve"/>
      <point x="485" y="214"/>
      <point x="535" y="164"/>
      <point x="551" y="142" type="qcurve"/>
      <point x="536" y="117"/>
      <point x="484" y="66"/>
      <point x="461" y="54" type="qcurve"/>
      <point x="438" y="89"/>
      <point x="401" y="135"/>
    </contour>
  </outline>
</glyph>
<glyph name="yen" format="1">
  <advance width="601"/>
  <unicode hex="00A5"/>
  <outline>
    <contour>
      <point x="371" y="-32" type="qcurve"/>
      <point x="343" y="-40"/>
      <point x="246" y="-52"/>
      <point x="205" y="-52" type="qcurve"/>
      <point x="205" y="-22"/>
      <point x="204" y="51"/>
      <point x="203" y="129" type="qcurve"/>
      <point x="152" y="129"/>
      <point x="74" y="131"/>
      <point x="45" y="133" type="qcurve"/>
      <point x="45" y="165"/>
      <point x="52" y="239"/>
      <point x="56" y="258" type="qcurve"/>
      <point x="91" y="256"/>
      <point x="164" y="254"/>
      <point x="199" y="254" type="qcurve"/>
      <point x="199" y="264" type="line"/>
      <point x="192" y="280"/>
      <point x="184" y="297"/>
      <point x="180" y="305" type="qcurve"/>
      <point x="112" y="304"/>
      <point x="58" y="303"/>
      <point x="37" y="303" type="qcurve"/>
      <point x="36" y="337"/>
      <point x="40" y="408"/>
      <point x="45" y="428" type="qcurve"/>
      <point x="117" y="428" type="line"/>
      <point x="91" y="476"/>
      <point x="41" y="566"/>
      <point x="19" y="604" type="qcurve"/>
      <point x="35" y="629"/>
      <point x="86" y="667"/>
      <point x="117" y="678" type="qcurve" smooth="yes"/>
      <point x="140" y="686"/>
      <point x="175" y="693"/>
      <point x="193" y="694" type="qcurve"/>
      <point x="226" y="625"/>
      <point x="284" y="471"/>
      <point x="305" y="395" type="qcurve"/>
      <point x="341" y="462"/>
      <point x="398" y="606"/>
      <point x="425" y="697" type="qcurve"/>
      <point x="468" y="689"/>
      <point x="547" y="643"/>
      <point x="582" y="606" type="qcurve"/>
      <point x="562" y="558"/>
      <point x="520" y="475"/>
      <point x="495" y="433" type="qcurve"/>
      <point x="517" y="435"/>
      <point x="553" y="441"/>
      <point x="568" y="445" type="qcurve"/>
      <point x="572" y="429"/>
      <point x="576" y="400"/>
      <point x="576" y="384" type="qcurve" smooth="yes"/>
      <point x="576" y="365"/>
      <point x="566" y="334"/>
      <point x="555" y="320" type="qcurve"/>
      <point x="522" y="314"/>
      <point x="449" y="307"/>
      <point x="410" y="305" type="qcurve"/>
      <point x="405" y="298"/>
      <point x="394" y="283"/>
      <point x="389" y="275" type="qcurve"/>
      <point x="389" y="268"/>
      <point x="389" y="260"/>
      <point x="388" y="257" type="qcurve"/>
      <point x="436" y="258"/>
      <point x="523" y="265"/>
      <point x="553" y="270" type="qcurve"/>
      <point x="555" y="256"/>
      <point x="558" y="230"/>
      <point x="558" y="219" type="qcurve" smooth="yes"/>
      <point x="558" y="201"/>
      <point x="551" y="162"/>
      <point x="545" y="145" type="qcurve"/>
      <point x="507" y="141"/>
      <point x="424" y="135"/>
      <point x="383" y="134" type="qcurve"/>
      <point x="379" y="80"/>
      <point x="374" y="0"/>
    </contour>
  </outline>
</glyph>
<glyph name="section" format="1">
  <advance width="490"/>
  <unicode hex="00A7"/>
  <outline>
    <contour>
      <point x="234" y="320" type="qcurve"/>
      <point x="215" y="313"/>
      <point x="194" y="282"/>
      <point x="194" y="260" type="qcurve" smooth="yes"/>
      <point x="194" y="239"/>
      <point x="228" y="200"/>
      <point x="269" y="175" type="qcurve"/>
      <point x="288" y="183"/>
      <point x="307" y="212"/>
      <point x="307" y="234" type="qcurve" smooth="yes"/>
      <point x="307" y="256"/>
      <point x="276" y="295"/>
    </contour>
    <contour>
      <point x="446" y="-33" type="qcurve" smooth="yes"/>
      <point x="446" y="-106"/>
      <point x="327" y="-199"/>
      <point x="231" y="-199" type="qcurve" smooth="yes"/>
      <point x="150" y="-199"/>
      <point x="46" y="-122"/>
      <point x="20" y="-44" type="qcurve"/>
      <point x="41" y="-29"/>
      <point x="114" y="-3"/>
      <point x="145" y="0" type="qcurve"/>
      <point x="157" y="-52"/>
      <point x="205" y="-111"/>
      <point x="233" y="-111" type="qcurve" smooth="yes"/>
      <point x="254" y="-111"/>
      <point x="279" y="-84"/>
      <point x="279" y="-60" type="qcurve" smooth="yes"/>
      <point x="279" y="-36"/>
      <point x="230" y="15"/>
      <point x="178" y="45" type="qcurve" smooth="yes"/>
      <point x="102" y="88"/>
      <point x="40" y="172"/>
      <point x="40" y="222" type="qcurve" smooth="yes"/>
      <point x="40" y="271"/>
      <point x="98" y="350"/>
      <point x="150" y="372" type="qcurve"/>
      <point x="108" y="403"/>
      <point x="69" y="476"/>
      <point x="69" y="520" type="qcurve" smooth="yes"/>
      <point x="69" y="593"/>
      <point x="186" y="686"/>
      <point x="279" y="686" type="qcurve"/>
      <point x="361" y="686"/>
      <point x="463" y="614"/>
      <point x="480" y="545" type="qcurve"/>
      <point x="457" y="531"/>
      <point x="398" y="516"/>
      <point x="348" y="513" type="qcurve"/>
      <point x="340" y="558"/>
      <point x="309" y="598"/>
      <point x="282" y="598" type="qcurve" smooth="yes"/>
      <point x="261" y="598"/>
      <point x="236" y="571"/>
      <point x="236" y="547" type="qcurve" smooth="yes"/>
      <point x="236" y="523"/>
      <point x="285" y="472"/>
      <point x="337" y="442" type="qcurve" smooth="yes"/>
      <point x="407" y="402"/>
      <point x="461" y="324"/>
      <point x="461" y="272" type="qcurve" smooth="yes"/>
      <point x="461" y="224"/>
      <point x="405" y="146"/>
      <point x="354" y="123" type="qcurve"/>
      <point x="402" y="89"/>
      <point x="446" y="13"/>
    </contour>
  </outline>
</glyph>
<glyph name="ordfeminine" format="1">
  <advance width="358"/>
  <unicode hex="00AA"/>
  <outline>
    <contour>
      <point x="339" y="604" type="qcurve" smooth="yes"/>
      <point x="339" y="569"/>
      <point x="320" y="450"/>
      <point x="302" y="373" type="qcurve"/>
      <point x="278" y="373"/>
      <point x="220" y="379"/>
      <point x="190" y="384" type="qcurve"/>
      <point x="190" y="387"/>
      <point x="191" y="401"/>
      <point x="192" y="404" type="qcurve"/>
      <point x="178" y="400"/>
      <point x="149" y="396"/>
      <point x="132" y="396" type="qcurve" smooth="yes"/>
      <point x="78" y="396"/>
      <point x="15" y="446"/>
      <point x="15" y="488" type="qcurve" smooth="yes"/>
      <point x="15" y="530"/>
      <point x="85" y="571"/>
      <point x="157" y="571" type="qcurve"/>
      <point x="200" y="571" type="line"/>
      <point x="200" y="619"/>
      <point x="190" y="653"/>
      <point x="179" y="653" type="qcurve" smooth="yes"/>
      <point x="170" y="653"/>
      <point x="155" y="619"/>
      <point x="154" y="593" type="qcurve"/>
      <point x="113" y="598"/>
      <point x="57" y="622"/>
      <point x="39" y="641" type="qcurve"/>
      <point x="66" y="685"/>
      <point x="136" y="723"/>
      <point x="190" y="723" type="qcurve" smooth="yes"/>
      <point x="264" y="723"/>
      <point x="339" y="662"/>
    </contour>
    <contour>
      <point x="161" y="479" type="qcurve" smooth="yes"/>
      <point x="161" y="467"/>
      <point x="170" y="457"/>
      <point x="181" y="457" type="qcurve" smooth="yes"/>
      <point x="185" y="457"/>
      <point x="192" y="458"/>
      <point x="196" y="459" type="qcurve"/>
      <point x="196" y="463"/>
      <point x="197" y="472"/>
      <point x="197" y="481" type="qcurve" smooth="yes"/>
      <point x="198" y="494"/>
      <point x="199" y="507"/>
      <point x="199" y="513" type="qcurve"/>
      <point x="179" y="509"/>
      <point x="161" y="493"/>
    </contour>
  </outline>
</glyph>
<glyph name="logicalnot" format="1">
  <advance width="501"/>
  <unicode hex="00AC"/>
  <outline>
    <contour>
      <point x="468" y="403" type="qcurve"/>
      <point x="473" y="338"/>
      <point x="466" y="188"/>
      <point x="455" y="119" type="qcurve"/>
      <point x="421" y="119"/>
      <point x="366" y="123"/>
      <point x="334" y="127" type="qcurve"/>
      <point x="338" y="156"/>
      <point x="344" y="225"/>
      <point x="346" y="272" type="qcurve"/>
      <point x="266" y="266"/>
      <point x="96" y="272"/>
      <point x="29" y="283" type="qcurve"/>
      <point x="29" y="317"/>
      <point x="33" y="372"/>
      <point x="37" y="404" type="qcurve"/>
      <point x="137" y="391"/>
      <point x="352" y="391"/>
    </contour>
  </outline>
</glyph>
<glyph name="registered" format="1">
  <advance width="876"/>
  <unicode hex="00AE"/>
  <outline>
    <contour>
      <point x="740" y="600" type="qcurve" smooth="yes"/>
      <point x="793" y="546"/>
      <point x="851" y="400"/>
      <point x="851" y="320" type="qcurve" smooth="yes"/>
      <point x="851" y="126"/>
      <point x="630" y="-98"/>
      <point x="432" y="-98" type="qcurve" smooth="yes"/>
      <point x="245" y="-98"/>
      <point x="25" y="115"/>
      <point x="25" y="297" type="qcurve" smooth="yes"/>
      <point x="25" y="381"/>
      <point x="93" y="534"/>
      <point x="156" y="592" type="qcurve" smooth="yes"/>
      <point x="216" y="648"/>
      <point x="373" y="708"/>
      <point x="460" y="708" type="qcurve" smooth="yes"/>
      <point x="545" y="708"/>
      <point x="688" y="653"/>
    </contour>
    <contour>
      <point x="156" y="301" type="qcurve" smooth="yes"/>
      <point x="156" y="165"/>
      <point x="308" y="8"/>
      <point x="440" y="8" type="qcurve" smooth="yes"/>
      <point x="569" y="8"/>
      <point x="720" y="177"/>
      <point x="720" y="322" type="qcurve" smooth="yes"/>
      <point x="720" y="452"/>
      <point x="575" y="602"/>
      <point x="448" y="602" type="qcurve" smooth="yes"/>
      <point x="320" y="602"/>
      <point x="156" y="433"/>
    </contour>
    <contour>
      <point x="641" y="137" type="qcurve"/>
      <point x="617" y="114"/>
      <point x="552" y="80"/>
      <point x="508" y="67" type="qcurve"/>
      <point x="474" y="147"/>
      <point x="440" y="213"/>
      <point x="423" y="241" type="qcurve"/>
      <point x="421" y="201"/>
      <point x="416" y="132"/>
      <point x="413" y="100" type="qcurve"/>
      <point x="381" y="100"/>
      <point x="313" y="105"/>
      <point x="286" y="109" type="qcurve"/>
      <point x="285" y="117"/>
      <point x="286" y="147"/>
      <point x="286" y="149" type="qcurve" smooth="yes"/>
      <point x="286" y="220"/>
      <point x="274" y="394"/>
      <point x="262" y="492" type="qcurve"/>
      <point x="298" y="517"/>
      <point x="387" y="545"/>
      <point x="434" y="545" type="qcurve"/>
      <point x="516" y="545"/>
      <point x="614" y="475"/>
      <point x="614" y="418" type="qcurve" smooth="yes"/>
      <point x="614" y="386"/>
      <point x="570" y="326"/>
      <point x="528" y="301" type="qcurve"/>
      <point x="560" y="267"/>
      <point x="615" y="187"/>
    </contour>
    <contour>
      <point x="421" y="469" type="qcurve"/>
      <point x="421" y="467"/>
      <point x="424" y="363"/>
      <point x="424" y="330" type="qcurve"/>
      <point x="424" y="329" type="line"/>
      <point x="445" y="337"/>
      <point x="468" y="378"/>
      <point x="468" y="407" type="qcurve" smooth="yes"/>
      <point x="468" y="435"/>
      <point x="443" y="469"/>
    </contour>
  </outline>
</glyph>
<glyph name="macron" format="1">
  <advance width="259.893390928"/>
  <unicode hex="00AF"/>
  <outline>
    <contour>
      <point x="253" y="618" type="qcurve"/>
      <point x="173" y="604"/>
      <point x="38" y="607"/>
      <point x="7" y="623" type="qcurve"/>
      <point x="5" y="644"/>
      <point x="6" y="705"/>
      <point x="9" y="720" type="qcurve"/>
      <point x="82" y="710"/>
      <point x="190" y="707"/>
      <point x="253" y="712" type="qcurve"/>
      <point x="255" y="686"/>
      <point x="255" y="638"/>
    </contour>
    <contour>
      <point x="127" y="560" type="move" name="_top"/>
    </contour>
  </outline>
</glyph>
<glyph name="acute" format="1">
  <advance width="260"/>
  <unicode hex="00B4"/>
  <outline>
    <contour>
      <point x="223" y="733" type="qcurve"/>
      <point x="217" y="693"/>
      <point x="181" y="615"/>
      <point x="150" y="571" type="qcurve"/>
      <point x="118" y="571"/>
      <point x="63" y="578"/>
      <point x="37" y="585" type="qcurve"/>
      <point x="50" y="624"/>
      <point x="66" y="708"/>
      <point x="68" y="747" type="qcurve"/>
      <point x="106" y="753"/>
      <point x="191" y="746"/>
    </contour>
    <contour>
      <point x="88.0" y="560.0" type="move" name="_top"/>
    </contour>
  </outline>
</glyph>
<glyph name="cedilla" format="1">
  <advance width="261"/>
  <unicode hex="00B8"/>
  <outline>
    <contour>
      <point x="260" y="-124" type="qcurve" smooth="yes"/>
      <point x="260" y="-172"/>
      <point x="184" y="-230"/>
      <point x="121" y="-230" type="qcurve" smooth="yes"/>
      <point x="79" y="-230"/>
      <point x="18" y="-193"/>
      <point x="6" y="-159" type="qcurve"/>
      <point x="24" y="-148"/>
      <point x="55" y="-132"/>
      <point x="71" y="-125" type="qcurve"/>
      <point x="77" y="-144"/>
      <point x="103" y="-167"/>
      <point x="119" y="-167" type="qcurve" smooth="yes"/>
      <point x="133" y="-167"/>
      <point x="150" y="-150"/>
      <point x="150" y="-135" type="qcurve" smooth="yes"/>
      <point x="150" y="-121"/>
      <point x="133" y="-105"/>
      <point x="118" y="-105" type="qcurve" smooth="yes"/>
      <point x="110" y="-105"/>
      <point x="93" y="-109"/>
      <point x="84" y="-114" type="qcurve"/>
      <point x="77" y="-108"/>
      <point x="66" y="-97"/>
      <point x="62" y="-91" type="qcurve"/>
      <point x="74" y="-70"/>
      <point x="89" y="-10"/>
      <point x="88" y="15" type="qcurve"/>
      <point x="145" y="2" type="line"/>
      <point x="144" y="-9"/>
      <point x="140" y="-33"/>
      <point x="136" y="-46" type="qcurve"/>
      <point x="142" y="-44"/>
      <point x="158" y="-42"/>
      <point x="168" y="-42" type="qcurve" smooth="yes"/>
      <point x="209" y="-42"/>
      <point x="260" y="-87"/>
    </contour>
    <contour>
      <point x="114.0" y="0.0" type="move" name="_bottom"/>
    </contour>
  </outline>
</glyph>
<glyph name="ordmasculine" format="1">
  <advance width="364"/>
  <unicode hex="00BA"/>
  <outline>
    <contour>
      <point x="19" y="517" type="qcurve" smooth="yes"/>
      <point x="19" y="599"/>
      <point x="128" y="706"/>
      <point x="214" y="706" type="qcurve" smooth="yes"/>
      <point x="278" y="706"/>
      <point x="346" y="644"/>
      <point x="346" y="586" type="qcurve" smooth="yes"/>
      <point x="346" y="549"/>
      <point x="317" y="469"/>
      <point x="291" y="440" type="qcurve" smooth="yes"/>
      <point x="265" y="410"/>
      <point x="193" y="379"/>
      <point x="149" y="379" type="qcurve" smooth="yes"/>
      <point x="87" y="379"/>
      <point x="19" y="453"/>
    </contour>
    <contour>
      <point x="200" y="551" type="qcurve" smooth="yes"/>
      <point x="200" y="592"/>
      <point x="192" y="627"/>
      <point x="182" y="627" type="qcurve" smooth="yes"/>
      <point x="173" y="627"/>
      <point x="163" y="580"/>
      <point x="163" y="536" type="qcurve" smooth="yes"/>
      <point x="163" y="505"/>
      <point x="173" y="458"/>
      <point x="181" y="458" type="qcurve" smooth="yes"/>
      <point x="191" y="458"/>
      <point x="200" y="490"/>
    </contour>
  </outline>
</glyph>
<glyph name="Oslash" format="1">
  <advance width="649"/>
  <unicode hex="00D8"/>
  <outline>
    <contour>
      <point x="325" y="603" type="qcurve" smooth="yes"/>
      <point x="282" y="603"/>
      <point x="235" y="471"/>
      <point x="235" y="351" type="qcurve" smooth="yes"/>
      <point x="235" y="337"/>
      <point x="235" y="324"/>
      <point x="236" y="318" type="qcurve"/>
      <point x="274" y="385"/>
      <point x="344" y="514"/>
      <point x="377" y="577" type="qcurve"/>
      <point x="367" y="590"/>
      <point x="342" y="603"/>
    </contour>
    <contour>
      <point x="281" y="130" type="qcurve"/>
      <point x="289" y="120"/>
      <point x="310" y="110"/>
      <point x="322" y="110" type="qcurve" smooth="yes"/>
      <point x="364" y="110"/>
      <point x="408" y="224"/>
      <point x="410" y="349" type="qcurve"/>
      <point x="386" y="308"/>
      <point x="330" y="211"/>
    </contour>
    <contour>
      <point x="540" y="131" type="qcurve" smooth="yes"/>
      <point x="494" y="57"/>
      <point x="362" y="-20"/>
      <point x="279" y="-20" type="qcurve" smooth="yes"/>
      <point x="258" y="-20"/>
      <point x="217" y="-13"/>
      <point x="199" y="-7" type="qcurve"/>
      <point x="190" y="-21"/>
      <point x="169" y="-55"/>
      <point x="148" y="-90" type="qcurve"/>
      <point x="107" y="-77"/>
      <point x="57" y="-48"/>
      <point x="31" y="-22" type="qcurve"/>
      <point x="37" y="-13"/>
      <point x="49" y="7"/>
      <point x="62" y="28" type="qcurve" smooth="yes"/>
      <point x="75" y="48"/>
      <point x="87" y="68"/>
      <point x="93" y="77" type="qcurve"/>
      <point x="62" y="122"/>
      <point x="30" y="249"/>
      <point x="30" y="323" type="qcurve" smooth="yes"/>
      <point x="30" y="504"/>
      <point x="217" y="733"/>
      <point x="368" y="733" type="qcurve" smooth="yes"/>
      <point x="389" y="733"/>
      <point x="430" y="728"/>
      <point x="450" y="722" type="qcurve"/>
      <point x="456" y="734"/>
      <point x="470" y="763"/>
      <point x="484" y="791" type="qcurve"/>
      <point x="515" y="783"/>
      <point x="583" y="742"/>
      <point x="607" y="716" type="qcurve"/>
      <point x="603" y="707"/>
      <point x="593" y="688"/>
      <point x="583" y="668" type="qcurve" smooth="yes"/>
      <point x="576" y="655"/>
      <point x="570" y="642"/>
      <point x="567" y="637" type="qcurve"/>
      <point x="593" y="599"/>
      <point x="619" y="496"/>
      <point x="619" y="432" type="qcurve" smooth="yes"/>
      <point x="619" y="354"/>
      <point x="577" y="193"/>
    </contour>
  </outline>
</glyph>
<glyph name="Thorn" format="1">
  <advance width="634"/>
  <unicode hex="00DE"/>
  <outline>
    <contour>
      <point x="265" y="55" type="qcurve"/>
      <point x="266" y="33"/>
      <point x="268" y="-17"/>
      <point x="270" y="-68" type="qcurve"/>
      <point x="225" y="-68"/>
      <point x="133" y="-61"/>
      <point x="98" y="-55" type="qcurve"/>
      <point x="79" y="104"/>
      <point x="61" y="399"/>
      <point x="61" y="538" type="qcurve" smooth="yes"/>
      <point x="61" y="571"/>
      <point x="65" y="654"/>
      <point x="68" y="694" type="qcurve"/>
      <point x="122" y="703"/>
      <point x="238" y="698"/>
      <point x="283" y="685" type="qcurve"/>
      <point x="281" y="668"/>
      <point x="278" y="626"/>
      <point x="274" y="584" type="qcurve"/>
      <point x="291" y="586"/>
      <point x="325" y="587"/>
      <point x="341" y="587" type="qcurve" smooth="yes"/>
      <point x="463" y="587"/>
      <point x="596" y="484"/>
      <point x="596" y="392" type="qcurve" smooth="yes"/>
      <point x="596" y="280"/>
      <point x="420" y="100"/>
    </contour>
    <contour>
      <point x="267" y="471" type="qcurve"/>
      <point x="264" y="409"/>
      <point x="261" y="283"/>
      <point x="261" y="221" type="qcurve"/>
      <point x="261" y="183" type="line"/>
      <point x="325" y="199"/>
      <point x="390" y="285"/>
      <point x="390" y="356" type="qcurve" smooth="yes"/>
      <point x="390" y="414"/>
      <point x="345" y="474"/>
      <point x="300" y="474" type="qcurve" smooth="yes"/>
      <point x="292" y="474"/>
      <point x="275" y="473"/>
    </contour>
  </outline>
</glyph>
<glyph name="germandbls" format="1">
  <advance width="761"/>
  <unicode hex="00DF"/>
  <outline>
    <contour>
      <point x="736" y="143" type="qcurve" smooth="yes"/>
      <point x="736" y="56"/>
      <point x="627" y="-45"/>
      <point x="531" y="-45" type="qcurve" smooth="yes"/>
      <point x="449" y="-45"/>
      <point x="340" y="52"/>
      <point x="334" y="130" type="qcurve"/>
      <point x="357" y="141"/>
      <point x="433" y="156"/>
      <point x="463" y="156" type="qcurve"/>
      <point x="463" y="110"/>
      <point x="494" y="58"/>
      <point x="522" y="58" type="qcurve" smooth="yes"/>
      <point x="542" y="58"/>
      <point x="564" y="81"/>
      <point x="564" y="101" type="qcurve" smooth="yes"/>
      <point x="564" y="122"/>
      <point x="531" y="157"/>
      <point x="475" y="183" type="qcurve" smooth="yes"/>
      <point x="392" y="223"/>
      <point x="337" y="296"/>
      <point x="337" y="347" type="qcurve" smooth="yes"/>
      <point x="337" y="382"/>
      <point x="360" y="442"/>
      <point x="385" y="472" type="qcurve" smooth="yes"/>
      <point x="406" y="498"/>
      <point x="424" y="537"/>
      <point x="424" y="560" type="qcurve" smooth="yes"/>
      <point x="424" y="582"/>
      <point x="388" y="616"/>
      <point x="363" y="616" type="qcurve" smooth="yes"/>
      <point x="315" y="616"/>
      <point x="264" y="531"/>
      <point x="264" y="449" type="qcurve" smooth="yes"/>
      <point x="264" y="355"/>
      <point x="308" y="84"/>
      <point x="329" y="11" type="qcurve"/>
      <point x="290" y="-3"/>
      <point x="173" y="-21"/>
      <point x="120" y="-21" type="qcurve"/>
      <point x="107" y="37"/>
      <point x="82" y="284"/>
      <point x="81" y="381" type="qcurve"/>
      <point x="53" y="387"/>
      <point x="20" y="396"/>
      <point x="10" y="400" type="qcurve"/>
      <point x="10" y="420"/>
      <point x="24" y="483"/>
      <point x="31" y="490" type="qcurve"/>
      <point x="43" y="488"/>
      <point x="73" y="486"/>
      <point x="89" y="485" type="qcurve"/>
      <point x="109" y="600"/>
      <point x="249" y="727"/>
      <point x="355" y="727" type="qcurve" smooth="yes"/>
      <point x="429" y="727"/>
      <point x="534" y="648"/>
      <point x="534" y="596" type="qcurve" smooth="yes"/>
      <point x="534" y="576"/>
      <point x="524" y="541"/>
      <point x="512" y="522" type="qcurve" smooth="yes"/>
      <point x="492" y="489"/>
      <point x="481" y="456"/>
      <point x="481" y="436" type="qcurve" smooth="yes"/>
      <point x="481" y="409"/>
      <point x="522" y="361"/>
      <point x="590" y="320" type="qcurve" smooth="yes"/>
      <point x="679" y="268"/>
      <point x="736" y="190"/>
    </contour>
  </outline>
</glyph>
<glyph name="ae" format="1">
  <advance width="828"/>
  <unicode hex="00E6"/>
  <outline>
    <contour>
      <point x="525" y="311" type="qcurve"/>
      <point x="537" y="308"/>
      <point x="560" y="305"/>
      <point x="568" y="305" type="qcurve" smooth="yes"/>
      <point x="576" y="305"/>
      <point x="597" y="306"/>
      <point x="601" y="307" type="qcurve"/>
      <point x="607" y="331"/>
      <point x="614" y="373"/>
      <point x="614" y="390" type="qcurve" smooth="yes"/>
      <point x="614" y="411"/>
      <point x="603" y="431"/>
      <point x="592" y="431" type="qcurve" smooth="yes"/>
      <point x="572" y="431"/>
      <point x="536" y="366"/>
    </contour>
    <contour>
      <point x="646" y="157" type="qcurve"/>
      <point x="684" y="150"/>
      <point x="763" y="109"/>
      <point x="788" y="83" type="qcurve"/>
      <point x="780" y="57"/>
      <point x="722" y="-3"/>
      <point x="682" y="-23" type="qcurve" smooth="yes"/>
      <point x="650" y="-39"/>
      <point x="575" y="-56"/>
      <point x="534" y="-56" type="qcurve" smooth="yes"/>
      <point x="484" y="-56"/>
      <point x="400" y="-14"/>
      <point x="371" y="24" type="qcurve"/>
      <point x="334" y="-5"/>
      <point x="255" y="-32"/>
      <point x="207" y="-32" type="qcurve" smooth="yes"/>
      <point x="124" y="-32"/>
      <point x="24" y="51"/>
      <point x="24" y="121" type="qcurve" smooth="yes"/>
      <point x="24" y="192"/>
      <point x="139" y="263"/>
      <point x="255" y="263" type="qcurve" smooth="yes"/>
      <point x="293" y="263"/>
      <point x="319" y="263"/>
      <point x="327" y="262" type="qcurve"/>
      <point x="327" y="279"/>
      <point x="327" y="295"/>
      <point x="326" y="301" type="qcurve" smooth="yes"/>
      <point x="324" y="367"/>
      <point x="302" y="424"/>
      <point x="279" y="424" type="qcurve" smooth="yes"/>
      <point x="255" y="424"/>
      <point x="220" y="359"/>
      <point x="219" y="309" type="qcurve"/>
      <point x="155" y="309"/>
      <point x="70" y="357"/>
      <point x="54" y="402" type="qcurve"/>
      <point x="73" y="454"/>
      <point x="210" y="528"/>
      <point x="295" y="528" type="qcurve" smooth="yes"/>
      <point x="343" y="528"/>
      <point x="416" y="494"/>
      <point x="441" y="461" type="qcurve"/>
      <point x="479" y="495"/>
      <point x="569" y="531"/>
      <point x="616" y="531" type="qcurve" smooth="yes"/>
      <point x="692" y="531"/>
      <point x="790" y="443"/>
      <point x="790" y="375" type="qcurve" smooth="yes"/>
      <point x="790" y="343"/>
      <point x="777" y="266"/>
      <point x="767" y="238" type="qcurve"/>
      <point x="736" y="223"/>
      <point x="645" y="208"/>
      <point x="582" y="208" type="qcurve" smooth="yes"/>
      <point x="564" y="208"/>
      <point x="529" y="212"/>
      <point x="512" y="215" type="qcurve"/>
      <point x="511" y="209"/>
      <point x="511" y="194"/>
      <point x="511" y="179" type="qcurve" smooth="yes"/>
      <point x="511" y="119"/>
      <point x="542" y="55"/>
      <point x="571" y="55" type="qcurve" smooth="yes"/>
      <point x="590" y="55"/>
      <point x="634" y="117"/>
    </contour>
    <contour>
      <point x="223" y="107" type="qcurve" smooth="yes"/>
      <point x="223" y="84"/>
      <point x="247" y="59"/>
      <point x="270" y="59" type="qcurve" smooth="yes"/>
      <point x="282" y="59"/>
      <point x="319" y="71"/>
      <point x="338" y="81" type="qcurve"/>
      <point x="329" y="102"/>
      <point x="320" y="151"/>
      <point x="320" y="176" type="qcurve"/>
      <point x="320" y="178" type="line"/>
      <point x="270" y="174"/>
      <point x="223" y="140"/>
    </contour>
  </outline>
</glyph>
<glyph name="ccedilla" format="1">
  <advance width="521"/>
  <unicode hex="00E7"/>
  <outline>
    <contour>
      <point x="385" y="-131" type="qcurve" smooth="yes"/>
      <point x="385" y="-179"/>
      <point x="309" y="-237"/>
      <point x="246" y="-237" type="qcurve" smooth="yes"/>
      <point x="204" y="-237"/>
      <point x="143" y="-200"/>
      <point x="131" y="-166" type="qcurve"/>
      <point x="149" y="-155"/>
      <point x="180" y="-139"/>
      <point x="196" y="-132" type="qcurve"/>
      <point x="202" y="-151"/>
      <point x="228" y="-174"/>
      <point x="244" y="-174" type="qcurve" smooth="yes"/>
      <point x="258" y="-174"/>
      <point x="275" y="-157"/>
      <point x="275" y="-142" type="qcurve" smooth="yes"/>
      <point x="275" y="-128"/>
      <point x="258" y="-112"/>
      <point x="243" y="-112" type="qcurve" smooth="yes"/>
      <point x="235" y="-112"/>
      <point x="218" y="-116"/>
      <point x="209" y="-121" type="qcurve"/>
      <point x="202" y="-115"/>
      <point x="191" y="-104"/>
      <point x="187" y="-98" type="qcurve"/>
      <point x="195" y="-83"/>
      <point x="208" y="-43"/>
      <point x="211" y="-23" type="qcurve"/>
      <point x="123" y="-13"/>
      <point x="25" y="109"/>
      <point x="25" y="203" type="qcurve" smooth="yes"/>
      <point x="25" y="264"/>
      <point x="65" y="386"/>
      <point x="102" y="433" type="qcurve" smooth="yes"/>
      <point x="142" y="487"/>
      <point x="250" y="543"/>
      <point x="313" y="543" type="qcurve" smooth="yes"/>
      <point x="407" y="543"/>
      <point x="511" y="452"/>
      <point x="511" y="372" type="qcurve"/>
      <point x="479" y="357"/>
      <point x="396" y="342"/>
      <point x="338" y="342" type="qcurve"/>
      <point x="338" y="395"/>
      <point x="319" y="446"/>
      <point x="299" y="446" type="qcurve" smooth="yes"/>
      <point x="270" y="446"/>
      <point x="226" y="301"/>
      <point x="226" y="210" type="qcurve" smooth="yes"/>
      <point x="226" y="152"/>
      <point x="256" y="86"/>
      <point x="283" y="86" type="qcurve" smooth="yes"/>
      <point x="307" y="86"/>
      <point x="357" y="125"/>
      <point x="397" y="183" type="qcurve"/>
      <point x="426" y="178"/>
      <point x="482" y="140"/>
      <point x="500" y="114" type="qcurve"/>
      <point x="492" y="90"/>
      <point x="439" y="33"/>
      <point x="403" y="13" type="qcurve" smooth="yes"/>
      <point x="374" y="-3"/>
      <point x="305" y="-22"/>
      <point x="267" y="-24" type="qcurve"/>
      <point x="266" y="-31"/>
      <point x="263" y="-46"/>
      <point x="261" y="-53" type="qcurve"/>
      <point x="267" y="-51"/>
      <point x="283" y="-49"/>
      <point x="293" y="-49" type="qcurve" smooth="yes"/>
      <point x="334" y="-49"/>
      <point x="385" y="-94"/>
    </contour>
  </outline>
</glyph>
<glyph name="eth" format="1">
  <advance width="599"/>
  <unicode hex="00F0"/>
  <outline>
    <contour>
      <point x="524" y="-22" type="qcurve"/>
      <point x="495" y="-30"/>
      <point x="406" y="-42"/>
      <point x="370" y="-42" type="qcurve"/>
      <point x="366" y="-22"/>
      <point x="356" y="32"/>
      <point x="351" y="70" type="qcurve"/>
      <point x="329" y="19"/>
      <point x="262" y="-30"/>
      <point x="214" y="-30" type="qcurve" smooth="yes"/>
      <point x="126" y="-30"/>
      <point x="30" y="100"/>
      <point x="30" y="216" type="qcurve" smooth="yes"/>
      <point x="30" y="363"/>
      <point x="177" y="538"/>
      <point x="302" y="538" type="qcurve" smooth="yes"/>
      <point x="307" y="538"/>
      <point x="314" y="538"/>
      <point x="317" y="537" type="qcurve"/>
      <point x="316" y="542"/>
      <point x="316" y="552"/>
      <point x="316" y="562" type="qcurve"/>
      <point x="294" y="563"/>
      <point x="248" y="565"/>
      <point x="225" y="567" type="qcurve"/>
      <point x="223" y="588"/>
      <point x="224" y="649"/>
      <point x="227" y="664" type="qcurve"/>
      <point x="234" y="664"/>
      <point x="252" y="663"/>
      <point x="270" y="663" type="qcurve" smooth="yes"/>
      <point x="288" y="663"/>
      <point x="306" y="662"/>
      <point x="314" y="662" type="qcurve"/>
      <point x="314" y="701" type="line"/>
      <point x="337" y="713"/>
      <point x="421" y="727"/>
      <point x="465" y="727" type="qcurve" smooth="yes"/>
      <point x="485" y="727"/>
      <point x="523" y="723"/>
      <point x="542" y="719" type="qcurve"/>
      <point x="541" y="708"/>
      <point x="538" y="682"/>
      <point x="536" y="666" type="qcurve"/>
      <point x="542" y="666"/>
      <point x="556" y="667"/>
      <point x="569" y="668" type="qcurve" smooth="yes"/>
      <point x="587" y="669"/>
      <point x="604" y="670"/>
      <point x="611" y="671" type="qcurve"/>
      <point x="613" y="645"/>
      <point x="613" y="597"/>
      <point x="611" y="577" type="qcurve"/>
      <point x="586" y="573"/>
      <point x="547" y="568"/>
      <point x="529" y="567" type="qcurve"/>
      <point x="525" y="486"/>
      <point x="521" y="260"/>
      <point x="521" y="99" type="qcurve" smooth="yes"/>
      <point x="521" y="71"/>
      <point x="522" y="16"/>
    </contour>
    <contour>
      <point x="225" y="240" type="qcurve" smooth="yes"/>
      <point x="225" y="176"/>
      <point x="251" y="109"/>
      <point x="276" y="109" type="qcurve" smooth="yes"/>
      <point x="294" y="109"/>
      <point x="325" y="169"/>
      <point x="334" y="224" type="qcurve"/>
      <point x="329" y="293"/>
      <point x="323" y="388"/>
      <point x="321" y="429" type="qcurve"/>
      <point x="314" y="429" type="line" smooth="yes"/>
      <point x="273" y="429"/>
      <point x="225" y="330"/>
    </contour>
  </outline>
</glyph>
<glyph name="thorn" format="1">
  <advance width="569"/>
  <unicode hex="00FE"/>
  <outline>
    <contour>
      <point x="249" y="122" type="qcurve"/>
      <point x="260" y="119"/>
      <point x="268" y="118"/>
      <point x="272" y="118" type="qcurve" smooth="yes"/>
      <point x="305" y="118"/>
      <point x="350" y="254"/>
      <point x="350" y="358" type="qcurve" smooth="yes"/>
      <point x="350" y="396"/>
      <point x="331" y="431"/>
      <point x="312" y="431" type="qcurve" smooth="yes"/>
      <point x="294" y="431"/>
      <point x="264" y="401"/>
      <point x="253" y="372" type="qcurve"/>
      <point x="252" y="330"/>
      <point x="250" y="229"/>
    </contour>
    <contour>
      <point x="250" y="11" type="qcurve"/>
      <point x="251" y="-52"/>
      <point x="254" y="-164"/>
      <point x="256" y="-211" type="qcurve"/>
      <point x="229" y="-221"/>
      <point x="131" y="-236"/>
      <point x="91" y="-236" type="qcurve"/>
      <point x="70" y="-3"/>
      <point x="49" y="485"/>
      <point x="52" y="707" type="qcurve"/>
      <point x="77" y="726"/>
      <point x="143" y="748"/>
      <point x="179" y="748" type="qcurve" smooth="yes"/>
      <point x="209" y="748"/>
      <point x="254" y="741"/>
      <point x="276" y="733" type="qcurve"/>
      <point x="270" y="686"/>
      <point x="261" y="564"/>
      <point x="258" y="491" type="qcurve"/>
      <point x="288" y="532"/>
      <point x="360" y="573"/>
      <point x="401" y="573" type="qcurve" smooth="yes"/>
      <point x="470" y="573"/>
      <point x="549" y="470"/>
      <point x="549" y="379" type="qcurve" smooth="yes"/>
      <point x="549" y="215"/>
      <point x="394" y="10"/>
      <point x="274" y="10" type="qcurve" smooth="yes"/>
      <point x="264" y="10"/>
      <point x="254" y="10"/>
    </contour>
  </outline>
</glyph>
<glyph name="aogonek" format="1">
  <advance width="553"/>
  <unicode hex="0105"/>
  <outline>
    <contour>
      <point x="223" y="142" type="qcurve" smooth="yes"/>
      <point x="223" y="119"/>
      <point x="247" y="94"/>
      <point x="270" y="94" type="qcurve" smooth="yes"/>
      <point x="284" y="94"/>
      <point x="306" y="100"/>
      <point x="317" y="106" type="qcurve"/>
      <point x="321" y="141"/>
      <point x="324" y="192"/>
      <point x="325" y="213" type="qcurve"/>
      <point x="273" y="210"/>
      <point x="223" y="176"/>
    </contour>
    <contour>
      <point x="378" y="-120" type="qcurve"/>
      <point x="388" y="-128"/>
      <point x="407" y="-156"/>
      <point x="416" y="-177" type="qcurve"/>
      <point x="393" y="-207"/>
      <point x="330" y="-238"/>
      <point x="292" y="-238" type="qcurve" smooth="yes"/>
      <point x="244" y="-238"/>
      <point x="186" y="-195"/>
      <point x="186" y="-159" type="qcurve" smooth="yes"/>
      <point x="186" y="-117"/>
      <point x="241" y="-49"/>
      <point x="303" y="-14" type="qcurve"/>
      <point x="303" y="-11"/>
      <point x="304" y="-3"/>
      <point x="305" y="4" type="qcurve" smooth="yes"/>
      <point x="306" y="11"/>
      <point x="307" y="19"/>
      <point x="307" y="22" type="qcurve"/>
      <point x="286" y="13"/>
      <point x="236" y="3"/>
      <point x="207" y="3" type="qcurve" smooth="yes"/>
      <point x="124" y="3"/>
      <point x="24" y="86"/>
      <point x="24" y="156" type="qcurve" smooth="yes"/>
      <point x="24" y="227"/>
      <point x="139" y="298"/>
      <point x="255" y="298" type="qcurve" smooth="yes"/>
      <point x="293" y="298"/>
      <point x="319" y="298"/>
      <point x="327" y="297" type="qcurve"/>
      <point x="326" y="391"/>
      <point x="304" y="459"/>
      <point x="279" y="459" type="qcurve" smooth="yes"/>
      <point x="255" y="459"/>
      <point x="220" y="394"/>
      <point x="219" y="344" type="qcurve"/>
      <point x="155" y="344"/>
      <point x="70" y="392"/>
      <point x="54" y="437" type="qcurve"/>
      <point x="73" y="489"/>
      <point x="207" y="563"/>
      <point x="295" y="563" type="qcurve" smooth="yes"/>
      <point x="404" y="563"/>
      <point x="516" y="459"/>
      <point x="516" y="358" type="qcurve" smooth="yes"/>
      <point x="516" y="295"/>
      <point x="482" y="78"/>
      <point x="455" y="-37" type="qcurve"/>
      <point x="432" y="-37"/>
      <point x="379" y="-33"/>
      <point x="353" y="-29" type="qcurve"/>
      <point x="327" y="-47"/>
      <point x="295" y="-101"/>
      <point x="295" y="-126" type="qcurve" smooth="yes"/>
      <point x="295" y="-141"/>
      <point x="309" y="-159"/>
      <point x="322" y="-159" type="qcurve" smooth="yes"/>
      <point x="337" y="-159"/>
      <point x="365" y="-140"/>
    </contour>
  </outline>
</glyph>
<glyph name="Eogonek" format="1">
  <advance width="609"/>
  <unicode hex="0118"/>
  <outline>
    <contour>
      <point x="637" y="-161" type="qcurve"/>
      <point x="615" y="-190"/>
      <point x="548" y="-222"/>
      <point x="509" y="-222" type="qcurve" smooth="yes"/>
      <point x="461" y="-222"/>
      <point x="407" y="-178"/>
      <point x="407" y="-138" type="qcurve"/>
      <point x="407" y="-106"/>
      <point x="444" y="-50"/>
      <point x="483" y="-23" type="qcurve"/>
      <point x="398" y="-32"/>
      <point x="200" y="-43"/>
      <point x="132" y="-43" type="qcurve"/>
      <point x="107" y="116"/>
      <point x="66" y="540"/>
      <point x="64" y="681" type="qcurve"/>
      <point x="218" y="710"/>
      <point x="445" y="735"/>
      <point x="554" y="735" type="qcurve"/>
      <point x="554" y="698"/>
      <point x="545" y="615"/>
      <point x="535" y="570" type="qcurve"/>
      <point x="468" y="570"/>
      <point x="348" y="566"/>
      <point x="294" y="562" type="qcurve"/>
      <point x="292" y="540"/>
      <point x="290" y="483"/>
      <point x="289" y="426" type="qcurve"/>
      <point x="340" y="441"/>
      <point x="442" y="455"/>
      <point x="495" y="455" type="qcurve"/>
      <point x="503" y="420"/>
      <point x="511" y="346"/>
      <point x="511" y="296" type="qcurve"/>
      <point x="454" y="296"/>
      <point x="341" y="289"/>
      <point x="289" y="283" type="qcurve"/>
      <point x="290" y="238"/>
      <point x="294" y="152"/>
      <point x="298" y="113" type="qcurve"/>
      <point x="327" y="113"/>
      <point x="513" y="136"/>
      <point x="560" y="145" type="qcurve"/>
      <point x="568" y="124"/>
      <point x="579" y="29"/>
      <point x="579" y="-10" type="qcurve"/>
      <point x="551" y="-28"/>
      <point x="516" y="-84"/>
      <point x="516" y="-110" type="qcurve" smooth="yes"/>
      <point x="516" y="-125"/>
      <point x="530" y="-143"/>
      <point x="543" y="-143" type="qcurve" smooth="yes"/>
      <point x="558" y="-143"/>
      <point x="586" y="-124"/>
      <point x="599" y="-104" type="qcurve"/>
      <point x="609" y="-112"/>
      <point x="628" y="-140"/>
    </contour>
  </outline>
</glyph>
<glyph name="Iogonek" format="1">
  <advance width="332"/>
  <unicode hex="012E"/>
  <outline>
    <contour>
      <point x="280" y="-169" type="qcurve"/>
      <point x="257" y="-199"/>
      <point x="194" y="-230"/>
      <point x="156" y="-230" type="qcurve" smooth="yes"/>
      <point x="108" y="-230"/>
      <point x="50" y="-187"/>
      <point x="50" y="-151" type="qcurve" smooth="yes"/>
      <point x="50" y="-116"/>
      <point x="87" y="-58"/>
      <point x="127" y="-31" type="qcurve"/>
      <point x="123" y="-31"/>
      <point x="114" y="-31"/>
      <point x="105" y="-32" type="qcurve" smooth="yes"/>
      <point x="97" y="-32"/>
      <point x="88" y="-32"/>
      <point x="85" y="-32" type="qcurve"/>
      <point x="85" y="177"/>
      <point x="67" y="519"/>
      <point x="49" y="655" type="qcurve"/>
      <point x="73" y="671"/>
      <point x="138" y="689"/>
      <point x="174" y="689" type="qcurve" smooth="yes"/>
      <point x="201" y="689"/>
      <point x="244" y="684"/>
      <point x="270" y="677" type="qcurve"/>
      <point x="271" y="646"/>
      <point x="273" y="569"/>
      <point x="273" y="526" type="qcurve" smooth="yes"/>
      <point x="273" y="390"/>
      <point x="261" y="93"/>
      <point x="251" y="-12" type="qcurve"/>
      <point x="234" y="-16"/>
      <point x="224" y="-18"/>
      <point x="220" y="-19" type="qcurve"/>
      <point x="192" y="-37"/>
      <point x="159" y="-92"/>
      <point x="159" y="-118" type="qcurve" smooth="yes"/>
      <point x="159" y="-133"/>
      <point x="173" y="-151"/>
      <point x="186" y="-151" type="qcurve" smooth="yes"/>
      <point x="201" y="-151"/>
      <point x="229" y="-132"/>
      <point x="242" y="-112" type="qcurve"/>
      <point x="252" y="-120"/>
      <point x="271" y="-148"/>
    </contour>
  </outline>
</glyph>
<glyph name="iogonek" format="1">
  <advance width="304"/>
  <unicode hex="012F"/>
  <outline>
    <contour>
      <point x="301" y="737" type="qcurve"/>
      <point x="292" y="716"/>
      <point x="270" y="635"/>
      <point x="265" y="604" type="qcurve"/>
      <point x="231" y="598"/>
      <point x="147" y="593"/>
      <point x="94" y="594" type="qcurve"/>
      <point x="87" y="616"/>
      <point x="80" y="660"/>
      <point x="80" y="681" type="qcurve" smooth="yes"/>
      <point x="80" y="697"/>
      <point x="83" y="721"/>
      <point x="86" y="731" type="qcurve"/>
      <point x="109" y="744"/>
      <point x="166" y="756"/>
      <point x="201" y="756" type="qcurve" smooth="yes"/>
      <point x="231" y="756"/>
      <point x="283" y="746"/>
    </contour>
    <contour>
      <point x="241" y="-153" type="qcurve"/>
      <point x="218" y="-183"/>
      <point x="155" y="-214"/>
      <point x="117" y="-214" type="qcurve" smooth="yes"/>
      <point x="69" y="-214"/>
      <point x="11" y="-171"/>
      <point x="11" y="-135" type="qcurve" smooth="yes"/>
      <point x="11" y="-100"/>
      <point x="49" y="-41"/>
      <point x="90" y="-13" type="qcurve"/>
      <point x="78" y="-13"/>
      <point x="60" y="-11"/>
      <point x="53" y="-9" type="qcurve"/>
      <point x="38" y="134"/>
      <point x="42" y="397"/>
      <point x="62" y="504" type="qcurve"/>
      <point x="89" y="520"/>
      <point x="161" y="536"/>
      <point x="203" y="536" type="qcurve" smooth="yes"/>
      <point x="223" y="536"/>
      <point x="262" y="532"/>
      <point x="280" y="529" type="qcurve"/>
      <point x="258" y="464"/>
      <point x="225" y="180"/>
      <point x="219" y="11" type="qcurve"/>
      <point x="210" y="6"/>
      <point x="191" y="-1"/>
      <point x="181" y="-3" type="qcurve"/>
      <point x="154" y="-21"/>
      <point x="120" y="-76"/>
      <point x="120" y="-102" type="qcurve" smooth="yes"/>
      <point x="120" y="-117"/>
      <point x="134" y="-135"/>
      <point x="147" y="-135" type="qcurve" smooth="yes"/>
      <point x="162" y="-135"/>
      <point x="190" y="-116"/>
      <point x="203" y="-96" type="qcurve"/>
      <point x="213" y="-104"/>
      <point x="232" y="-132"/>
    </contour>
  </outline>
</glyph>
<glyph name="dotlessi" format="1">
  <advance width="304"/>
  <unicode hex="0131"/>
  <outline>
    <contour>
      <point x="62" y="504" type="qcurve"/>
      <point x="89" y="520"/>
      <point x="161" y="536"/>
      <point x="203" y="536" type="qcurve" smooth="yes"/>
      <point x="223" y="536"/>
      <point x="262" y="532"/>
      <point x="280" y="529" type="qcurve"/>
      <point x="258" y="464"/>
      <point x="225" y="180"/>
      <point x="219" y="11" type="qcurve"/>
      <point x="198" y="0"/>
      <point x="133" y="-13"/>
      <point x="98" y="-13" type="qcurve" smooth="yes"/>
      <point x="83" y="-13"/>
      <point x="61" y="-11"/>
      <point x="53" y="-9" type="qcurve"/>
      <point x="39" y="89"/>
      <point x="44" y="407"/>
    </contour>
  </outline>
</glyph>
<glyph name="OE" format="1">
  <advance width="944"/>
  <unicode hex="0152"/>
  <outline>
    <contour>
      <point x="916" y="10" type="qcurve"/>
      <point x="887" y="1"/>
      <point x="574" y="-23"/>
      <point x="469" y="-23" type="qcurve"/>
      <point x="468" y="-16"/>
      <point x="465" y="2"/>
      <point x="462" y="20" type="qcurve" smooth="yes"/>
      <point x="461" y="33"/>
      <point x="459" y="46"/>
      <point x="458" y="51" type="qcurve"/>
      <point x="420" y="22"/>
      <point x="330" y="-7"/>
      <point x="279" y="-7" type="qcurve" smooth="yes"/>
      <point x="161" y="-7"/>
      <point x="30" y="179"/>
      <point x="30" y="336" type="qcurve" smooth="yes"/>
      <point x="30" y="517"/>
      <point x="217" y="746"/>
      <point x="368" y="746" type="qcurve" smooth="yes"/>
      <point x="414" y="746"/>
      <point x="491" y="722"/>
      <point x="521" y="698" type="qcurve"/>
      <point x="623" y="715"/>
      <point x="803" y="731"/>
      <point x="891" y="731" type="qcurve"/>
      <point x="891" y="694"/>
      <point x="882" y="611"/>
      <point x="872" y="566" type="qcurve"/>
      <point x="805" y="566"/>
      <point x="685" y="562"/>
      <point x="631" y="558" type="qcurve"/>
      <point x="629" y="536"/>
      <point x="627" y="481"/>
      <point x="626" y="426" type="qcurve"/>
      <point x="677" y="441"/>
      <point x="779" y="455"/>
      <point x="832" y="455" type="qcurve"/>
      <point x="840" y="420"/>
      <point x="848" y="346"/>
      <point x="848" y="296" type="qcurve"/>
      <point x="791" y="296"/>
      <point x="678" y="289"/>
      <point x="626" y="283" type="qcurve"/>
      <point x="627" y="246"/>
      <point x="631" y="174"/>
      <point x="635" y="133" type="qcurve"/>
      <point x="664" y="133"/>
      <point x="850" y="156"/>
      <point x="897" y="165" type="qcurve"/>
      <point x="905" y="144"/>
      <point x="916" y="49"/>
    </contour>
    <contour>
      <point x="322" y="123" type="qcurve" smooth="yes"/>
      <point x="367" y="123"/>
      <point x="410" y="248"/>
      <point x="410" y="390" type="qcurve" smooth="yes"/>
      <point x="410" y="513"/>
      <point x="371" y="616"/>
      <point x="325" y="616" type="qcurve" smooth="yes"/>
      <point x="282" y="616"/>
      <point x="235" y="484"/>
      <point x="235" y="364" type="qcurve" smooth="yes"/>
      <point x="235" y="250"/>
      <point x="280" y="123"/>
    </contour>
  </outline>
</glyph>
<glyph name="Uogonek" format="1">
  <advance width="604"/>
  <unicode hex="0172"/>
  <outline>
    <contour>
      <point x="399" y="-235" type="qcurve"/>
      <point x="376" y="-265"/>
      <point x="313" y="-296"/>
      <point x="275" y="-296" type="qcurve" smooth="yes"/>
      <point x="225" y="-296"/>
      <point x="169" y="-249"/>
      <point x="169" y="-207" type="qcurve" smooth="yes"/>
      <point x="169" y="-176"/>
      <point x="212" y="-109"/>
      <point x="252" y="-79" type="qcurve"/>
      <point x="146" y="-72"/>
      <point x="35" y="106"/>
      <point x="35" y="265" type="qcurve" smooth="yes"/>
      <point x="35" y="368"/>
      <point x="71" y="588"/>
      <point x="90" y="622" type="qcurve"/>
      <point x="109" y="627"/>
      <point x="164" y="634"/>
      <point x="190" y="634" type="qcurve" smooth="yes"/>
      <point x="221" y="634"/>
      <point x="266" y="626"/>
      <point x="278" y="619" type="qcurve"/>
      <point x="264" y="538"/>
      <point x="250" y="377"/>
      <point x="250" y="305" type="qcurve" smooth="yes"/>
      <point x="250" y="185"/>
      <point x="277" y="50"/>
      <point x="302" y="50" type="qcurve" smooth="yes"/>
      <point x="333" y="50"/>
      <point x="365" y="205"/>
      <point x="365" y="350" type="qcurve" smooth="yes"/>
      <point x="365" y="422"/>
      <point x="345" y="584"/>
      <point x="324" y="674" type="qcurve"/>
      <point x="363" y="691"/>
      <point x="485" y="712"/>
      <point x="535" y="712" type="qcurve"/>
      <point x="557" y="608"/>
      <point x="574" y="472"/>
      <point x="574" y="412" type="qcurve" smooth="yes"/>
      <point x="574" y="218"/>
      <point x="478" y="-17"/>
      <point x="380" y="-65" type="qcurve" smooth="yes"/>
      <point x="334" y="-87"/>
      <point x="278" y="-154"/>
      <point x="278" y="-184" type="qcurve" smooth="yes"/>
      <point x="278" y="-199"/>
      <point x="292" y="-217"/>
      <point x="305" y="-217" type="qcurve" smooth="yes"/>
      <point x="320" y="-217"/>
      <point x="348" y="-198"/>
      <point x="361" y="-178" type="qcurve"/>
      <point x="371" y="-186"/>
      <point x="390" y="-214"/>
    </contour>
  </outline>
</glyph>
<glyph name="uogonek" format="1">
  <advance width="549"/>
  <unicode hex="0173"/>
  <outline>
    <contour>
      <point x="381" y="-163" type="qcurve"/>
      <point x="358" y="-193"/>
      <point x="295" y="-224"/>
      <point x="257" y="-224" type="qcurve" smooth="yes"/>
      <point x="207" y="-224"/>
      <point x="151" y="-177"/>
      <point x="151" y="-135" type="qcurve" smooth="yes"/>
      <point x="151" y="-105"/>
      <point x="193" y="-39"/>
      <point x="231" y="-10" type="qcurve"/>
      <point x="133" y="-5"/>
      <point x="30" y="137"/>
      <point x="30" y="265" type="qcurve" smooth="yes"/>
      <point x="30" y="338"/>
      <point x="61" y="497"/>
      <point x="76" y="526" type="qcurve"/>
      <point x="99" y="532"/>
      <point x="146" y="538"/>
      <point x="166" y="538" type="qcurve" smooth="yes"/>
      <point x="197" y="538"/>
      <point x="242" y="530"/>
      <point x="254" y="523" type="qcurve"/>
      <point x="245" y="469"/>
      <point x="235" y="357"/>
      <point x="235" y="305" type="qcurve" smooth="yes"/>
      <point x="235" y="213"/>
      <point x="257" y="110"/>
      <point x="277" y="110" type="qcurve" smooth="yes"/>
      <point x="296" y="110"/>
      <point x="318" y="228"/>
      <point x="318" y="323" type="qcurve" smooth="yes"/>
      <point x="318" y="368"/>
      <point x="310" y="465"/>
      <point x="306" y="484" type="qcurve"/>
      <point x="344" y="500"/>
      <point x="456" y="519"/>
      <point x="509" y="519" type="qcurve"/>
      <point x="514" y="496"/>
      <point x="519" y="424"/>
      <point x="519" y="382" type="qcurve" smooth="yes"/>
      <point x="519" y="237"/>
      <point x="442" y="54"/>
      <point x="364" y="14" type="qcurve" smooth="yes"/>
      <point x="316" y="-11"/>
      <point x="260" y="-80"/>
      <point x="260" y="-112" type="qcurve" smooth="yes"/>
      <point x="260" y="-127"/>
      <point x="274" y="-145"/>
      <point x="287" y="-145" type="qcurve" smooth="yes"/>
      <point x="302" y="-145"/>
      <point x="330" y="-126"/>
      <point x="343" y="-106" type="qcurve"/>
      <point x="353" y="-114"/>
      <point x="372" y="-142"/>
    </contour>
  </outline>
</glyph>
<glyph name="florin" format="1">
  <advance width="474"/>
  <unicode hex="0192"/>
  <outline>
    <contour>
      <point x="302" y="3" type="qcurve" smooth="yes"/>
      <point x="282" y="-74"/>
      <point x="177" y="-156"/>
      <point x="99" y="-156" type="qcurve" smooth="yes"/>
      <point x="25" y="-156"/>
      <point x="-60" y="-77"/>
      <point x="-60" y="-13" type="qcurve" smooth="yes"/>
      <point x="-60" y="0"/>
      <point x="-55" y="26"/>
      <point x="-51" y="37" type="qcurve"/>
      <point x="-19" y="37"/>
      <point x="52" y="27"/>
      <point x="91" y="16" type="qcurve"/>
      <point x="88" y="9"/>
      <point x="86" y="-6"/>
      <point x="86" y="-15" type="qcurve" smooth="yes"/>
      <point x="86" y="-31"/>
      <point x="100" y="-45"/>
      <point x="115" y="-45" type="qcurve" smooth="yes"/>
      <point x="134" y="-45"/>
      <point x="153" y="-6"/>
      <point x="153" y="31" type="qcurve" smooth="yes"/>
      <point x="153" y="126"/>
      <point x="93" y="334"/>
      <point x="90" y="349" type="qcurve"/>
      <point x="63" y="353"/>
      <point x="19" y="364"/>
      <point x="4" y="370" type="qcurve"/>
      <point x="4" y="390"/>
      <point x="18" y="453"/>
      <point x="25" y="460" type="qcurve"/>
      <point x="34" y="459"/>
      <point x="72" y="455"/>
      <point x="77" y="455" type="qcurve"/>
      <point x="74" y="573"/>
      <point x="198" y="722"/>
      <point x="296" y="725" type="qcurve" smooth="yes"/>
      <point x="373" y="727"/>
      <point x="462" y="651"/>
      <point x="464" y="587" type="qcurve" smooth="yes"/>
      <point x="464" y="572"/>
      <point x="460" y="547"/>
      <point x="456" y="536" type="qcurve"/>
      <point x="426" y="535"/>
      <point x="357" y="543"/>
      <point x="314" y="553" type="qcurve"/>
      <point x="316" y="560"/>
      <point x="318" y="577"/>
      <point x="318" y="585" type="qcurve" smooth="yes"/>
      <point x="317" y="599"/>
      <point x="304" y="614"/>
      <point x="292" y="614" type="qcurve" smooth="yes"/>
      <point x="273" y="613"/>
      <point x="256" y="559"/>
      <point x="258" y="501" type="qcurve"/>
      <point x="258" y="488"/>
      <point x="261" y="461"/>
      <point x="263" y="447" type="qcurve"/>
      <point x="274" y="446"/>
      <point x="299" y="446"/>
      <point x="324" y="446" type="qcurve" smooth="yes"/>
      <point x="370" y="446"/>
      <point x="425" y="449"/>
      <point x="442" y="452" type="qcurve"/>
      <point x="442" y="427"/>
      <point x="435" y="361"/>
      <point x="430" y="338" type="qcurve"/>
      <point x="416" y="333"/>
      <point x="374" y="329"/>
      <point x="339" y="329" type="qcurve" smooth="yes"/>
      <point x="317" y="329"/>
      <point x="296" y="329"/>
      <point x="287" y="330" type="qcurve"/>
      <point x="318" y="211"/>
      <point x="321" y="72"/>
    </contour>
  </outline>
</glyph>
<glyph name="circumflex" format="1">
  <advance width="260"/>
  <unicode hex="02C6"/>
  <outline>
    <contour>
      <point x="271" y="633" type="qcurve"/>
      <point x="256" y="611"/>
      <point x="215" y="579"/>
      <point x="190" y="570" type="qcurve"/>
      <point x="165" y="596"/>
      <point x="136" y="630"/>
      <point x="121" y="649" type="qcurve"/>
      <point x="105" y="626"/>
      <point x="72" y="587"/>
      <point x="52" y="567" type="qcurve"/>
      <point x="28" y="576"/>
      <point x="-14" y="607"/>
      <point x="-28" y="626" type="qcurve"/>
      <point x="5" y="656"/>
      <point x="51" y="713"/>
      <point x="67" y="745" type="qcurve"/>
      <point x="77" y="747"/>
      <point x="100" y="749"/>
      <point x="113" y="749" type="qcurve" smooth="yes"/>
      <point x="131" y="749"/>
      <point x="159" y="747"/>
      <point x="175" y="744" type="qcurve"/>
      <point x="189" y="717"/>
      <point x="237" y="662"/>
    </contour>
    <contour>
      <point x="131.0" y="560.0" type="move" name="_top"/>
    </contour>
  </outline>
</glyph>
<glyph name="uni02C9" format="1">
  <advance width="258.805061467"/>
  <unicode hex="02C9"/>
  <outline>
    <contour>
      <point x="7" y="623" type="qcurve"/>
      <point x="5" y="644"/>
      <point x="6" y="705"/>
      <point x="9" y="720" type="qcurve"/>
      <point x="82" y="710"/>
      <point x="190" y="707"/>
      <point x="253" y="712" type="qcurve"/>
      <point x="255" y="686"/>
      <point x="255" y="638"/>
      <point x="253" y="618" type="qcurve"/>
      <point x="173" y="604"/>
      <point x="38" y="607"/>
    </contour>
  </outline>
</glyph>
<glyph name="breve" format="1">
  <advance width="260"/>
  <unicode hex="02D8"/>
  <outline>
    <contour>
      <point x="16" y="631" type="qcurve" smooth="yes"/>
      <point x="4" y="647"/>
      <point x="-7" y="696"/>
      <point x="-6" y="729" type="qcurve"/>
      <point x="11" y="735"/>
      <point x="47" y="740"/>
      <point x="71" y="740" type="qcurve"/>
      <point x="67" y="705"/>
      <point x="95" y="675"/>
      <point x="128" y="675" type="qcurve" smooth="yes"/>
      <point x="165" y="675"/>
      <point x="193" y="706"/>
      <point x="185" y="737" type="qcurve"/>
      <point x="202" y="741"/>
      <point x="249" y="742"/>
      <point x="267" y="738" type="qcurve"/>
      <point x="268" y="710"/>
      <point x="261" y="673"/>
      <point x="252" y="654" type="qcurve" smooth="yes"/>
      <point x="237" y="622"/>
      <point x="170" y="587"/>
      <point x="127" y="587" type="qcurve" smooth="yes"/>
      <point x="89" y="587"/>
      <point x="34" y="609"/>
    </contour>
    <contour>
      <point x="137.0" y="560.0" type="move" name="_top"/>
    </contour>
  </outline>
</glyph>
<glyph name="dotaccent" format="1">
  <advance width="261"/>
  <unicode hex="02D9"/>
  <outline>
    <contour>
      <point x="141" y="756" type="qcurve" smooth="yes"/>
      <point x="171" y="756"/>
      <point x="223" y="746"/>
      <point x="241" y="737" type="qcurve"/>
      <point x="232" y="716"/>
      <point x="210" y="635"/>
      <point x="205" y="604" type="qcurve"/>
      <point x="171" y="598"/>
      <point x="87" y="593"/>
      <point x="34" y="594" type="qcurve"/>
      <point x="27" y="616"/>
      <point x="20" y="660"/>
      <point x="20" y="681" type="qcurve" smooth="yes"/>
      <point x="20" y="697"/>
      <point x="23" y="721"/>
      <point x="26" y="731" type="qcurve"/>
      <point x="49" y="744"/>
      <point x="106" y="756"/>
    </contour>
    <contour>
      <point x="130.0" y="560.0" type="move" name="_top"/>
    </contour>
  </outline>
</glyph>
<glyph name="ogonek" format="1">
  <advance width="261"/>
  <unicode hex="02DB"/>
  <outline>
    <contour>
      <point x="149" y="8" type="qcurve"/>
      <point x="190" y="-12" type="line"/>
      <point x="162" y="-30"/>
      <point x="127" y="-86"/>
      <point x="127" y="-112" type="qcurve" smooth="yes"/>
      <point x="127" y="-127"/>
      <point x="141" y="-145"/>
      <point x="154" y="-145" type="qcurve" smooth="yes"/>
      <point x="169" y="-145"/>
      <point x="197" y="-126"/>
      <point x="210" y="-106" type="qcurve"/>
      <point x="220" y="-114"/>
      <point x="239" y="-142"/>
      <point x="248" y="-163" type="qcurve"/>
      <point x="225" y="-193"/>
      <point x="162" y="-224"/>
      <point x="124" y="-224" type="qcurve" smooth="yes"/>
      <point x="76" y="-224"/>
      <point x="18" y="-181"/>
      <point x="18" y="-145" type="qcurve" smooth="yes"/>
      <point x="18" y="-101"/>
      <point x="78" y="-30"/>
    </contour>
    <contour>
      <point x="144.0" y="0.0" type="move" name="_bottom"/>
    </contour>
  </outline>
</glyph>
<glyph name="bn_danda" format="1">
  <advance width="586"/>
  <unicode hex="0964"/>
  <outline>
    <contour>
      <point x="440" y="262" type="qcurve" smooth="yes"/>
      <point x="440" y="158"/>
      <point x="455" y="-20"/>
      <point x="469" y="-81" type="qcurve"/>
      <point x="441" y="-92"/>
      <point x="353" y="-106"/>
      <point x="311" y="-106" type="qcurve"/>
      <point x="311" y="-96"/>
      <point x="309" y="-71"/>
      <point x="307" y="-45" type="qcurve" smooth="yes"/>
      <point x="304" y="-5"/>
      <point x="302" y="37"/>
      <point x="302" y="56" type="qcurve" smooth="yes"/>
      <point x="302" y="261"/>
      <point x="312" y="468"/>
      <point x="324" y="580" type="qcurve"/>
      <point x="455" y="595" type="line"/>
      <point x="444" y="432"/>
      <point x="440" y="317"/>
    </contour>
  </outline>
</glyph>
<glyph name="bn_bisarga" format="1">
  <advance width="435"/>
  <unicode hex="0983"/>
  <outline>
    <contour>
      <point x="234" y="648" type="qcurve" smooth="yes"/>
      <point x="302" y="648"/>
      <point x="391" y="560"/>
      <point x="390" y="493" type="qcurve" smooth="yes"/>
      <point x="389" y="421"/>
      <point x="284" y="320"/>
      <point x="210" y="320" type="qcurve" smooth="yes"/>
      <point x="143" y="320"/>
      <point x="54" y="408"/>
      <point x="55" y="472" type="qcurve" smooth="yes"/>
      <point x="57" y="546"/>
      <point x="160" y="648"/>
    </contour>
    <contour>
      <point x="203" y="546" type="qcurve" smooth="yes"/>
      <point x="183" y="546"/>
      <point x="158" y="524"/>
      <point x="158" y="505" type="qcurve" smooth="yes"/>
      <point x="158" y="472"/>
      <point x="210" y="423"/>
      <point x="243" y="423" type="qcurve" smooth="yes"/>
      <point x="263" y="423"/>
      <point x="287" y="444"/>
      <point x="287" y="461" type="qcurve" smooth="yes"/>
      <point x="287" y="495"/>
      <point x="236" y="546"/>
    </contour>
    <contour>
      <point x="229" y="293" type="qcurve" smooth="yes"/>
      <point x="294" y="293"/>
      <point x="383" y="207"/>
      <point x="383" y="143" type="qcurve" smooth="yes"/>
      <point x="383" y="73"/>
      <point x="282" y="-26"/>
      <point x="211" y="-26" type="qcurve" smooth="yes"/>
      <point x="146" y="-26"/>
      <point x="58" y="59"/>
      <point x="58" y="122" type="qcurve" smooth="yes"/>
      <point x="58" y="194"/>
      <point x="157" y="293"/>
    </contour>
    <contour>
      <point x="202" y="191" type="qcurve" smooth="yes"/>
      <point x="183" y="191"/>
      <point x="161" y="170"/>
      <point x="161" y="152" type="qcurve" smooth="yes"/>
      <point x="161" y="122"/>
      <point x="209" y="76"/>
      <point x="240" y="76" type="qcurve" smooth="yes"/>
      <point x="259" y="76"/>
      <point x="280" y="95"/>
      <point x="280" y="112" type="qcurve" smooth="yes"/>
      <point x="280" y="144"/>
      <point x="234" y="191"/>
    </contour>
  </outline>
</glyph>
<glyph name="bn_aa" format="1">
  <advance width="1036"/>
  <unicode hex="0986"/>
  <outline>
    <contour>
      <point x="972" y="467" type="qcurve"/>
      <point x="957" y="339"/>
      <point x="953" y="76"/>
      <point x="964" y="-50" type="qcurve"/>
      <point x="927" y="-55"/>
      <point x="826" y="-58"/>
      <point x="792" y="-55" type="qcurve"/>
      <point x="800" y="146"/>
      <point x="813" y="330"/>
      <point x="824" y="423" type="qcurve"/>
      <point x="814" y="462"/>
      <point x="738" y="512"/>
      <point x="669" y="525" type="qcurve"/>
      <point x="662" y="473"/>
      <point x="654" y="360"/>
      <point x="654" y="303" type="qcurve" smooth="yes"/>
      <point x="654" y="199"/>
      <point x="667" y="48"/>
      <point x="681" y="-4" type="qcurve"/>
      <point x="652" y="-19"/>
      <point x="562" y="-37"/>
      <point x="515" y="-37" type="qcurve"/>
      <point x="494" y="-4"/>
      <point x="440" y="52"/>
      <point x="407" y="73" type="qcurve"/>
      <point x="386" y="54"/>
      <point x="334" y="35"/>
      <point x="305" y="35" type="qcurve" smooth="yes"/>
      <point x="205" y="35"/>
      <point x="53" y="218"/>
      <point x="3" y="400" type="qcurve"/>
      <point x="26" y="414"/>
      <point x="68" y="434"/>
      <point x="88" y="440" type="qcurve"/>
      <point x="127" y="337"/>
      <point x="237" y="208"/>
      <point x="285" y="208" type="qcurve" smooth="yes"/>
      <point x="321" y="208"/>
      <point x="358" y="255"/>
      <point x="358" y="301" type="qcurve" smooth="yes"/>
      <point x="358" y="337"/>
      <point x="335" y="379"/>
      <point x="316" y="379" type="qcurve" smooth="yes"/>
      <point x="306" y="379"/>
      <point x="293" y="360"/>
      <point x="293" y="345" type="qcurve" smooth="yes"/>
      <point x="293" y="333"/>
      <point x="299" y="310"/>
      <point x="305" y="295" type="qcurve"/>
      <point x="272" y="295"/>
      <point x="198" y="308"/>
      <point x="176" y="318" type="qcurve"/>
      <point x="172" y="334"/>
      <point x="169" y="355"/>
      <point x="169" y="368" type="qcurve" smooth="yes"/>
      <point x="169" y="421"/>
      <point x="233" y="495"/>
      <point x="280" y="495" type="qcurve" smooth="yes"/>
      <point x="360" y="495"/>
      <point x="467" y="338"/>
      <point x="467" y="230" type="qcurve" smooth="yes"/>
      <point x="467" y="209"/>
      <point x="461" y="170"/>
      <point x="455" y="153" type="qcurve"/>
      <point x="470" y="140"/>
      <point x="497" y="109"/>
      <point x="509" y="92" type="qcurve"/>
      <point x="509" y="107" type="line" smooth="yes"/>
      <point x="509" y="250"/>
      <point x="530" y="461"/>
      <point x="551" y="538" type="qcurve"/>
      <point x="521" y="540"/>
      <point x="461" y="541"/>
      <point x="430" y="541" type="qcurve" smooth="yes"/>
      <point x="314" y="541"/>
      <point x="87" y="521"/>
      <point x="0" y="504" type="qcurve"/>
      <point x="-10" y="535"/>
      <point x="-11" y="620"/>
      <point x="0" y="639" type="qcurve"/>
      <point x="80" y="658"/>
      <point x="312" y="680"/>
      <point x="435" y="680" type="qcurve" smooth="yes"/>
      <point x="587" y="680"/>
      <point x="831" y="622"/>
      <point x="888" y="570" type="qcurve"/>
      <point x="917" y="596"/>
      <point x="992" y="631"/>
      <point x="1036" y="639" type="qcurve"/>
      <point x="1047" y="622"/>
      <point x="1046" y="537"/>
      <point x="1036" y="504" type="qcurve"/>
      <point x="1016" y="501"/>
      <point x="985" y="482"/>
    </contour>
    <contour>
      <point x="540" y="690" type="move" name="chandrabindu"/>
    </contour>
  </outline>
</glyph>
<glyph name="bn_u" format="1">
  <advance width="627"/>
  <unicode hex="0989"/>
  <outline>
    <contour>
      <point x="605" y="218" type="qcurve" smooth="yes"/>
      <point x="605" y="98"/>
      <point x="489" y="-39"/>
      <point x="386" y="-39" type="qcurve" smooth="yes"/>
      <point x="257" y="-39"/>
      <point x="69" y="185"/>
      <point x="10" y="414" type="qcurve"/>
      <point x="35" y="428"/>
      <point x="88" y="451"/>
      <point x="116" y="460" type="qcurve"/>
      <point x="168" y="295"/>
      <point x="311" y="124"/>
      <point x="398" y="124" type="qcurve" smooth="yes"/>
      <point x="451" y="124"/>
      <point x="507" y="189"/>
      <point x="507" y="251" type="qcurve"/>
      <point x="485" y="224"/>
      <point x="432" y="198"/>
      <point x="399" y="198" type="qcurve" smooth="yes"/>
      <point x="324" y="198"/>
      <point x="222" y="333"/>
      <point x="222" y="419" type="qcurve" smooth="yes"/>
      <point x="222" y="439"/>
      <point x="229" y="500"/>
      <point x="235" y="533" type="qcurve"/>
      <point x="175" y="530"/>
      <point x="59" y="516"/>
      <point x="0" y="504" type="qcurve"/>
      <point x="-5" y="517"/>
      <point x="-11" y="561"/>
      <point x="-11" y="581" type="qcurve" smooth="yes"/>
      <point x="-11" y="601"/>
      <point x="-5" y="630"/>
      <point x="0" y="639" type="qcurve"/>
      <point x="71" y="656"/>
      <point x="229" y="674"/>
      <point x="314" y="674" type="qcurve" smooth="yes"/>
      <point x="373" y="674"/>
      <point x="486" y="665"/>
      <point x="539" y="657" type="qcurve"/>
      <point x="523" y="694"/>
      <point x="472" y="730"/>
      <point x="435" y="730" type="qcurve" smooth="yes"/>
      <point x="420" y="730"/>
      <point x="380" y="725"/>
      <point x="335" y="716" type="qcurve" smooth="yes"/>
      <point x="286" y="706"/>
      <point x="240" y="700"/>
      <point x="222" y="700" type="qcurve" smooth="yes"/>
      <point x="169" y="700"/>
      <point x="78" y="763"/>
      <point x="44" y="823" type="qcurve"/>
      <point x="59" y="846"/>
      <point x="100" y="891"/>
      <point x="125" y="910" type="qcurve"/>
      <point x="151" y="866"/>
      <point x="203" y="827"/>
      <point x="235" y="827" type="qcurve" smooth="yes"/>
      <point x="248" y="827"/>
      <point x="285" y="832"/>
      <point x="328" y="841" type="qcurve" smooth="yes"/>
      <point x="376" y="851"/>
      <point x="422" y="857"/>
      <point x="438" y="857" type="qcurve" smooth="yes"/>
      <point x="509" y="857"/>
      <point x="608" y="741"/>
      <point x="627" y="639" type="qcurve"/>
      <point x="632" y="630"/>
      <point x="638" y="602"/>
      <point x="638" y="584" type="qcurve" smooth="yes"/>
      <point x="638" y="563"/>
      <point x="632" y="519"/>
      <point x="627" y="504" type="qcurve"/>
      <point x="575" y="515"/>
      <point x="455" y="530"/>
      <point x="391" y="533" type="qcurve"/>
      <point x="373" y="481"/>
      <point x="345" y="372"/>
      <point x="345" y="353" type="qcurve" smooth="yes"/>
      <point x="345" y="343"/>
      <point x="354" y="331"/>
      <point x="362" y="331" type="qcurve" smooth="yes"/>
      <point x="375" y="331"/>
      <point x="412" y="382"/>
      <point x="442" y="445" type="qcurve"/>
      <point x="472" y="438"/>
      <point x="538" y="415"/>
      <point x="566" y="402" type="qcurve"/>
      <point x="585" y="363"/>
      <point x="605" y="267"/>
    </contour>
    <contour>
      <point x="311" y="860" type="move" name="chandrabindu"/>
    </contour>
  </outline>
</glyph>
<glyph name="bn_e" format="1">
  <advance width="667"/>
  <unicode hex="098F"/>
  <note>
    uni098F
  </note>
  <outline>
    <contour>
      <point x="582" y="-20" type="qcurve"/>
      <point x="553" y="-30"/>
      <point x="481" y="-41"/>
      <point x="447" y="-41" type="qcurve"/>
      <point x="447" y="-40"/>
      <point x="424" y="4"/>
      <point x="414" y="15" type="qcurve" smooth="yes"/>
      <point x="403" y="27"/>
      <point x="375" y="39"/>
      <point x="356" y="39" type="qcurve" smooth="yes"/>
      <point x="341" y="39"/>
      <point x="305" y="32"/>
      <point x="266" y="19" type="qcurve" smooth="yes"/>
      <point x="223" y="6"/>
      <point x="178" y="-3"/>
      <point x="158" y="-3" type="qcurve" smooth="yes"/>
      <point x="94" y="-3"/>
      <point x="18" y="84"/>
      <point x="18" y="158" type="qcurve" smooth="yes"/>
      <point x="18" y="194"/>
      <point x="36" y="278"/>
      <point x="52" y="317" type="qcurve"/>
      <point x="87" y="316"/>
      <point x="143" y="308"/>
      <point x="164" y="300" type="qcurve"/>
      <point x="156" y="281"/>
      <point x="146" y="240"/>
      <point x="146" y="224" type="qcurve" smooth="yes"/>
      <point x="146" y="202"/>
      <point x="169" y="178"/>
      <point x="189" y="178" type="qcurve" smooth="yes"/>
      <point x="199" y="178"/>
      <point x="224" y="184"/>
      <point x="253" y="193" type="qcurve" smooth="yes"/>
      <point x="286" y="204"/>
      <point x="319" y="211"/>
      <point x="332" y="211" type="qcurve" smooth="yes"/>
      <point x="365" y="211"/>
      <point x="410" y="165"/>
      <point x="428" y="113" type="qcurve"/>
      <point x="444" y="199"/>
      <point x="462" y="424"/>
      <point x="462" y="540" type="qcurve" smooth="yes"/>
      <point x="462" y="558"/>
      <point x="449" y="576"/>
      <point x="437" y="576" type="qcurve" smooth="yes"/>
      <point x="408" y="576"/>
      <point x="345" y="485"/>
      <point x="345" y="449" type="qcurve" smooth="yes"/>
      <point x="345" y="433"/>
      <point x="362" y="416"/>
      <point x="379" y="416" type="qcurve" smooth="yes"/>
      <point x="391" y="416"/>
      <point x="416" y="424"/>
      <point x="426" y="432" type="qcurve"/>
      <point x="427" y="429"/>
      <point x="428" y="418"/>
      <point x="428" y="411" type="qcurve" smooth="yes"/>
      <point x="428" y="377"/>
      <point x="404" y="301"/>
      <point x="387" y="278" type="qcurve"/>
      <point x="377" y="273"/>
      <point x="347" y="267"/>
      <point x="330" y="267" type="qcurve" smooth="yes"/>
      <point x="263" y="267"/>
      <point x="174" y="352"/>
      <point x="174" y="420" type="qcurve" smooth="yes"/>
      <point x="174" y="516"/>
      <point x="329" y="680"/>
      <point x="424" y="680" type="qcurve" smooth="yes"/>
      <point x="502" y="680"/>
      <point x="609" y="570"/>
      <point x="609" y="485" type="qcurve" smooth="yes"/>
      <point x="609" y="346"/>
      <point x="596" y="99"/>
    </contour>
    <contour>
      <point x="398" y="690" type="move" name="chandrabindu"/>
    </contour>
  </outline>
</glyph>
<glyph name="bn_o" format="1">
  <advance width="752"/>
  <unicode hex="0993"/>
  <outline>
    <contour>
      <point x="714" y="153" type="qcurve" smooth="yes"/>
      <point x="714" y="66"/>
      <point x="596" y="-42"/>
      <point x="496" y="-42" type="qcurve" smooth="yes"/>
      <point x="336" y="-42"/>
      <point x="99" y="247"/>
      <point x="16" y="554" type="qcurve"/>
      <point x="41" y="570"/>
      <point x="95" y="594"/>
      <point x="124" y="601" type="qcurve"/>
      <point x="184" y="395"/>
      <point x="394" y="129"/>
      <point x="506" y="129" type="qcurve" smooth="yes"/>
      <point x="547" y="129"/>
      <point x="594" y="166"/>
      <point x="594" y="198" type="qcurve" smooth="yes"/>
      <point x="594" y="209"/>
      <point x="587" y="232"/>
      <point x="581" y="241" type="qcurve"/>
      <point x="566" y="222"/>
      <point x="524" y="202"/>
      <point x="499" y="202" type="qcurve" smooth="yes"/>
      <point x="451" y="202"/>
      <point x="387" y="269"/>
      <point x="387" y="321" type="qcurve" smooth="yes"/>
      <point x="387" y="372"/>
      <point x="450" y="441"/>
      <point x="493" y="441" type="qcurve" smooth="yes"/>
      <point x="510" y="441"/>
      <point x="542" y="429"/>
      <point x="555" y="418" type="qcurve"/>
      <point x="572" y="435"/>
      <point x="590" y="476"/>
      <point x="590" y="495" type="qcurve" smooth="yes"/>
      <point x="590" y="522"/>
      <point x="555" y="554"/>
      <point x="523" y="556" type="qcurve" smooth="yes"/>
      <point x="464" y="560"/>
      <point x="374" y="478"/>
      <point x="374" y="424" type="qcurve" smooth="yes"/>
      <point x="374" y="406"/>
      <point x="375" y="390"/>
      <point x="376" y="384" type="qcurve"/>
      <point x="331" y="384"/>
      <point x="239" y="417"/>
      <point x="212" y="443" type="qcurve"/>
      <point x="210" y="540"/>
      <point x="362" y="678"/>
      <point x="470" y="678" type="qcurve" smooth="yes"/>
      <point x="570" y="678"/>
      <point x="703" y="557"/>
      <point x="703" y="464" type="qcurve" smooth="yes"/>
      <point x="703" y="421"/>
      <point x="674" y="343"/>
      <point x="648" y="314" type="qcurve"/>
      <point x="680" y="282"/>
      <point x="714" y="199"/>
    </contour>
    <contour>
      <point x="456" y="345" type="qcurve" smooth="yes"/>
      <point x="456" y="334"/>
      <point x="470" y="320"/>
      <point x="481" y="320" type="qcurve" smooth="yes"/>
      <point x="492" y="320"/>
      <point x="513" y="334"/>
      <point x="523" y="347" type="qcurve"/>
      <point x="515" y="361"/>
      <point x="495" y="376"/>
      <point x="485" y="376" type="qcurve" smooth="yes"/>
      <point x="473" y="376"/>
      <point x="456" y="358"/>
    </contour>
    <contour>
      <point x="463" y="690" type="move" name="chandrabindu"/>
    </contour>
  </outline>
</glyph>
<glyph name="bn_gha" format="1">
  <advance width="550"/>
  <unicode hex="0998"/>
  <outline>
    <contour>
      <point x="268" y="447" type="qcurve"/>
      <point x="283" y="423"/>
      <point x="311" y="335"/>
      <point x="319" y="291" type="qcurve"/>
      <point x="217" y="210" type="line"/>
      <point x="253" y="186"/>
      <point x="313" y="131"/>
      <point x="335" y="100" type="qcurve"/>
      <point x="335" y="105" type="line" smooth="yes"/>
      <point x="335" y="224"/>
      <point x="346" y="410"/>
      <point x="360" y="528" type="qcurve"/>
      <point x="339" y="529"/>
      <point x="295" y="531"/>
      <point x="273" y="531" type="qcurve"/>
      <point x="256" y="531" type="line"/>
      <point x="207" y="516"/>
      <point x="156" y="470"/>
      <point x="156" y="442" type="qcurve" smooth="yes"/>
      <point x="156" y="424"/>
      <point x="178" y="402"/>
      <point x="196" y="402" type="qcurve" smooth="yes"/>
      <point x="212" y="402"/>
      <point x="247" y="424"/>
    </contour>
    <contour>
      <point x="480" y="296" type="qcurve" smooth="yes"/>
      <point x="480" y="198"/>
      <point x="490" y="43"/>
      <point x="499" y="-10" type="qcurve"/>
      <point x="472" y="-21"/>
      <point x="385" y="-34"/>
      <point x="337" y="-34" type="qcurve"/>
      <point x="295" y="31"/>
      <point x="184" y="110"/>
      <point x="116" y="122" type="qcurve"/>
      <point x="82" y="155"/>
      <point x="46" y="240"/>
      <point x="48" y="283" type="qcurve"/>
      <point x="118" y="344" type="line"/>
      <point x="73" y="358"/>
      <point x="24" y="418"/>
      <point x="24" y="461" type="qcurve" smooth="yes"/>
      <point x="24" y="473"/>
      <point x="28" y="497"/>
      <point x="32" y="510" type="qcurve"/>
      <point x="18" y="508"/>
      <point x="5" y="505"/>
      <point x="0" y="504" type="qcurve"/>
      <point x="-5" y="518"/>
      <point x="-10" y="560"/>
      <point x="-10" y="581" type="qcurve" smooth="yes"/>
      <point x="-10" y="600"/>
      <point x="-5" y="630"/>
      <point x="0" y="639" type="qcurve"/>
      <point x="58" y="654"/>
      <point x="205" y="670"/>
      <point x="279" y="670" type="qcurve" smooth="yes"/>
      <point x="357" y="670"/>
      <point x="505" y="653"/>
      <point x="550" y="639" type="qcurve"/>
      <point x="555" y="629"/>
      <point x="559" y="600"/>
      <point x="559" y="579" type="qcurve" smooth="yes"/>
      <point x="559" y="559"/>
      <point x="554" y="517"/>
      <point x="550" y="504" type="qcurve"/>
      <point x="539" y="507"/>
      <point x="508" y="512"/>
      <point x="487" y="516" type="qcurve"/>
      <point x="483" y="465"/>
      <point x="480" y="358"/>
    </contour>
    <contour>
      <point x="401" y="0" type="move" name="blwm"/>
    </contour>
    <contour>
      <point x="134" y="0" type="move" name="nukt"/>
    </contour>
    <contour>
      <point x="291" y="690" type="move" name="reph"/>
    </contour>
    <contour>
      <point x="291" y="690" type="move" name="chandrabindu"/>
    </contour>
    <contour>
      <point x="204" y="0" type="move" name="haln"/>
    </contour>
  </outline>
</glyph>
<glyph name="bn_ca" format="1">
  <advance width="502"/>
  <unicode hex="099A"/>
  <outline>
    <contour>
      <point x="370" y="414" type="qcurve" smooth="yes"/>
      <point x="424" y="388"/>
      <point x="469" y="324"/>
      <point x="469" y="275" type="qcurve" smooth="yes"/>
      <point x="469" y="154"/>
      <point x="321" y="-37"/>
      <point x="222" y="-37" type="qcurve" smooth="yes"/>
      <point x="146" y="-37"/>
      <point x="46" y="75"/>
      <point x="46" y="164" type="qcurve" smooth="yes"/>
      <point x="46" y="231"/>
      <point x="66" y="425"/>
      <point x="83" y="518" type="qcurve"/>
      <point x="60" y="515"/>
      <point x="17" y="508"/>
      <point x="0" y="504" type="qcurve"/>
      <point x="-4" y="518"/>
      <point x="-9" y="558"/>
      <point x="-9" y="578" type="qcurve" smooth="yes"/>
      <point x="-9" y="596"/>
      <point x="-4" y="628"/>
      <point x="0" y="639" type="qcurve"/>
      <point x="40" y="651"/>
      <point x="184" y="667"/>
      <point x="251" y="667" type="qcurve" smooth="yes"/>
      <point x="318" y="667"/>
      <point x="462" y="651"/>
      <point x="502" y="639" type="qcurve"/>
      <point x="506" y="629"/>
      <point x="511" y="596"/>
      <point x="511" y="579" type="qcurve" smooth="yes"/>
      <point x="511" y="567"/>
      <point x="508" y="540"/>
      <point x="502" y="504" type="qcurve"/>
      <point x="452" y="515"/>
      <point x="315" y="528"/>
      <point x="251" y="528" type="qcurve"/>
      <point x="250" y="528" type="line"/>
      <point x="259" y="494"/>
      <point x="314" y="441"/>
    </contour>
    <contour>
      <point x="185" y="112" type="qcurve" smooth="yes"/>
      <point x="185" y="88"/>
      <point x="193" y="68"/>
      <point x="202" y="68" type="qcurve" smooth="yes"/>
      <point x="234" y="68"/>
      <point x="298" y="228"/>
      <point x="298" y="295" type="qcurve" smooth="yes"/>
      <point x="298" y="303"/>
      <point x="289" y="318"/>
      <point x="271" y="334" type="qcurve" smooth="yes"/>
      <point x="251" y="351"/>
      <point x="226" y="392"/>
      <point x="221" y="417" type="qcurve"/>
      <point x="205" y="335"/>
      <point x="185" y="170"/>
    </contour>
    <contour>
      <point x="204" y="0" type="move" name="blwm"/>
    </contour>
    <contour>
      <point x="115" y="-120" type="move" name="nukt"/>
    </contour>
    <contour>
      <point x="239" y="690" type="move" name="reph"/>
    </contour>
    <contour>
      <point x="239" y="690" type="move" name="chandrabindu"/>
    </contour>
    <contour>
      <point x="107" y="0" type="move" name="haln"/>
    </contour>
  </outline>
</glyph>
<glyph name="bn_nya" format="1">
  <advance width="907"/>
  <unicode hex="099E"/>
  <outline>
    <contour>
      <point x="604" y="265" type="qcurve"/>
      <point x="633" y="238"/>
      <point x="703" y="206"/>
      <point x="733" y="206" type="qcurve" smooth="yes"/>
      <point x="760" y="206"/>
      <point x="793" y="232"/>
      <point x="793" y="253" type="qcurve" smooth="yes"/>
      <point x="793" y="256"/>
      <point x="792" y="262"/>
      <point x="791" y="268" type="qcurve"/>
      <point x="778" y="254"/>
      <point x="747" y="239"/>
      <point x="730" y="239" type="qcurve" smooth="yes"/>
      <point x="696" y="239"/>
      <point x="648" y="287"/>
      <point x="648" y="322" type="qcurve" smooth="yes"/>
      <point x="648" y="363"/>
      <point x="696" y="416"/>
      <point x="729" y="416" type="qcurve" smooth="yes"/>
      <point x="745" y="416"/>
      <point x="775" y="402"/>
      <point x="785" y="390" type="qcurve"/>
      <point x="788" y="397"/>
      <point x="791" y="412"/>
      <point x="791" y="419" type="qcurve" smooth="yes"/>
      <point x="791" y="435"/>
      <point x="769" y="452"/>
      <point x="749" y="452" type="qcurve" smooth="yes"/>
      <point x="712" y="452"/>
      <point x="638" y="401"/>
      <point x="607" y="354" type="qcurve"/>
      <point x="607" y="331"/>
      <point x="606" y="287"/>
    </contour>
    <contour>
      <point x="704" y="344" type="qcurve" smooth="yes"/>
      <point x="704" y="335"/>
      <point x="715" y="324"/>
      <point x="724" y="324" type="qcurve" smooth="yes"/>
      <point x="732" y="324"/>
      <point x="748" y="332"/>
      <point x="757" y="341" type="qcurve"/>
      <point x="751" y="354"/>
      <point x="735" y="367"/>
      <point x="726" y="367" type="qcurve" smooth="yes"/>
      <point x="716" y="367"/>
      <point x="704" y="354"/>
    </contour>
    <contour>
      <point x="598" y="147" type="qcurve"/>
      <point x="596" y="113"/>
      <point x="588" y="36"/>
      <point x="582" y="-20" type="qcurve"/>
      <point x="553" y="-30"/>
      <point x="481" y="-41"/>
      <point x="447" y="-41" type="qcurve"/>
      <point x="447" y="-40"/>
      <point x="424" y="4"/>
      <point x="414" y="15" type="qcurve" smooth="yes"/>
      <point x="403" y="27"/>
      <point x="375" y="39"/>
      <point x="356" y="39" type="qcurve" smooth="yes"/>
      <point x="341" y="39"/>
      <point x="305" y="32"/>
      <point x="266" y="19" type="qcurve" smooth="yes"/>
      <point x="223" y="6"/>
      <point x="178" y="-3"/>
      <point x="158" y="-3" type="qcurve" smooth="yes"/>
      <point x="94" y="-3"/>
      <point x="18" y="84"/>
      <point x="18" y="158" type="qcurve" smooth="yes"/>
      <point x="18" y="194"/>
      <point x="36" y="278"/>
      <point x="52" y="317" type="qcurve"/>
      <point x="87" y="316"/>
      <point x="143" y="308"/>
      <point x="164" y="300" type="qcurve"/>
      <point x="156" y="281"/>
      <point x="146" y="240"/>
      <point x="146" y="224" type="qcurve" smooth="yes"/>
      <point x="146" y="202"/>
      <point x="169" y="178"/>
      <point x="189" y="178" type="qcurve" smooth="yes"/>
      <point x="199" y="178"/>
      <point x="224" y="184"/>
      <point x="253" y="193" type="qcurve" smooth="yes"/>
      <point x="286" y="204"/>
      <point x="319" y="211"/>
      <point x="332" y="211" type="qcurve" smooth="yes"/>
      <point x="365" y="211"/>
      <point x="410" y="165"/>
      <point x="428" y="113" type="qcurve"/>
      <point x="444" y="199"/>
      <point x="462" y="424"/>
      <point x="462" y="540" type="qcurve" smooth="yes"/>
      <point x="462" y="558"/>
      <point x="449" y="576"/>
      <point x="437" y="576" type="qcurve" smooth="yes"/>
      <point x="408" y="576"/>
      <point x="345" y="485"/>
      <point x="345" y="449" type="qcurve" smooth="yes"/>
      <point x="345" y="433"/>
      <point x="362" y="416"/>
      <point x="379" y="416" type="qcurve" smooth="yes"/>
      <point x="391" y="416"/>
      <point x="416" y="424"/>
      <point x="426" y="432" type="qcurve"/>
      <point x="427" y="429"/>
      <point x="428" y="418"/>
      <point x="428" y="411" type="qcurve" smooth="yes"/>
      <point x="428" y="377"/>
      <point x="404" y="301"/>
      <point x="387" y="278" type="qcurve"/>
      <point x="377" y="273"/>
      <point x="347" y="267"/>
      <point x="330" y="267" type="qcurve" smooth="yes"/>
      <point x="263" y="267"/>
      <point x="174" y="352"/>
      <point x="174" y="420" type="qcurve" smooth="yes"/>
      <point x="174" y="516"/>
      <point x="329" y="680"/>
      <point x="424" y="680" type="qcurve" smooth="yes"/>
      <point x="496" y="680"/>
      <point x="600" y="584"/>
      <point x="608" y="508" type="qcurve"/>
      <point x="637" y="538"/>
      <point x="710" y="572"/>
      <point x="748" y="572" type="qcurve" smooth="yes"/>
      <point x="807" y="572"/>
      <point x="881" y="501"/>
      <point x="881" y="442" type="qcurve" smooth="yes"/>
      <point x="881" y="410"/>
      <point x="861" y="348"/>
      <point x="840" y="317" type="qcurve"/>
      <point x="861" y="289"/>
      <point x="882" y="233"/>
      <point x="882" y="203" type="qcurve" smooth="yes"/>
      <point x="882" y="146"/>
      <point x="806" y="77"/>
      <point x="746" y="77" type="qcurve" smooth="yes"/>
      <point x="704" y="77"/>
      <point x="627" y="114"/>
    </contour>
    <contour>
      <point x="495" y="-4" type="move" name="blwm"/>
    </contour>
    <contour>
      <point x="337" y="-79" type="move" name="nukt"/>
    </contour>
    <contour>
      <point x="414" y="690" type="move" name="reph"/>
    </contour>
    <contour>
      <point x="491" y="690" type="move" name="chandrabindu"/>
    </contour>
    <contour>
      <point x="390" y="0" type="move" name="haln"/>
    </contour>
  </outline>
</glyph>
<glyph name="bn_tta" format="1">
  <advance width="522"/>
  <unicode hex="099F"/>
  <outline>
    <contour>
      <point x="344" y="404" type="qcurve" smooth="yes"/>
      <point x="409" y="404"/>
      <point x="496" y="316"/>
      <point x="496" y="245" type="qcurve" smooth="yes"/>
      <point x="496" y="141"/>
      <point x="341" y="-37"/>
      <point x="249" y="-37" type="qcurve" smooth="yes"/>
      <point x="167" y="-37"/>
      <point x="59" y="73"/>
      <point x="59" y="159" type="qcurve" smooth="yes"/>
      <point x="59" y="241"/>
      <point x="72" y="423"/>
      <point x="85" y="520" type="qcurve"/>
      <point x="65" y="517"/>
      <point x="25" y="510"/>
      <point x="0" y="504" type="qcurve"/>
      <point x="-4" y="519"/>
      <point x="-8" y="555"/>
      <point x="-8" y="572" type="qcurve" smooth="yes"/>
      <point x="-8" y="591"/>
      <point x="-4" y="627"/>
      <point x="0" y="639" type="qcurve"/>
      <point x="41" y="653"/>
      <point x="176" y="670"/>
      <point x="253" y="670" type="qcurve" smooth="yes"/>
      <point x="296" y="670"/>
      <point x="391" y="663"/>
      <point x="433" y="656" type="qcurve"/>
      <point x="418" y="690"/>
      <point x="367" y="723"/>
      <point x="330" y="723" type="qcurve" smooth="yes"/>
      <point x="315" y="723"/>
      <point x="276" y="719"/>
      <point x="233" y="711" type="qcurve" smooth="yes"/>
      <point x="187" y="704"/>
      <point x="144" y="699"/>
      <point x="127" y="699" type="qcurve" smooth="yes"/>
      <point x="79" y="699"/>
      <point x="1" y="747"/>
      <point x="-30" y="795" type="qcurve"/>
      <point x="-18" y="822"/>
      <point x="17" y="873"/>
      <point x="38" y="897" type="qcurve"/>
      <point x="64" y="857"/>
      <point x="111" y="826"/>
      <point x="140" y="826" type="qcurve" smooth="yes"/>
      <point x="152" y="826"/>
      <point x="186" y="830"/>
      <point x="225" y="837" type="qcurve" smooth="yes"/>
      <point x="272" y="845"/>
      <point x="316" y="850"/>
      <point x="333" y="850" type="qcurve" smooth="yes"/>
      <point x="404" y="850"/>
      <point x="503" y="738"/>
      <point x="522" y="639" type="qcurve"/>
      <point x="527" y="629"/>
      <point x="533" y="596"/>
      <point x="533" y="574" type="qcurve" smooth="yes"/>
      <point x="533" y="554"/>
      <point x="527" y="516"/>
      <point x="522" y="504" type="qcurve"/>
      <point x="464" y="516"/>
      <point x="317" y="531"/>
      <point x="256" y="531" type="qcurve"/>
      <point x="253" y="531" type="line"/>
      <point x="232" y="436"/>
      <point x="207" y="209"/>
      <point x="207" y="111" type="qcurve" smooth="yes"/>
      <point x="207" y="87"/>
      <point x="220" y="65"/>
      <point x="235" y="64" type="qcurve" smooth="yes"/>
      <point x="263" y="64"/>
      <point x="325" y="171"/>
      <point x="325" y="213" type="qcurve" smooth="yes"/>
      <point x="325" y="233"/>
      <point x="307" y="255"/>
      <point x="292" y="255" type="qcurve" smooth="yes"/>
      <point x="279" y="255"/>
      <point x="254" y="247"/>
      <point x="244" y="239" type="qcurve"/>
      <point x="243" y="241"/>
      <point x="242" y="253"/>
      <point x="242" y="258" type="qcurve" smooth="yes"/>
      <point x="242" y="293"/>
      <point x="265" y="370"/>
      <point x="283" y="393" type="qcurve"/>
      <point x="294" y="399"/>
      <point x="324" y="404"/>
    </contour>
    <contour>
      <point x="240" y="-10" type="move" name="blwm"/>
    </contour>
    <contour>
      <point x="202" y="-120" type="move" name="nukt"/>
    </contour>
    <contour>
      <point x="175" y="670" type="move" name="reph"/>
    </contour>
    <contour>
      <point x="207" y="857" type="move" name="chandrabindu"/>
    </contour>
    <contour>
      <point x="104" y="0" type="move" name="haln"/>
    </contour>
  </outline>
</glyph>
<glyph name="bn_dda" format="1">
  <advance width="627"/>
  <unicode hex="09A1"/>
  <note>
    uni09A1
  </note>
  <outline>
    <contour>
      <point x="605" y="218" type="qcurve" smooth="yes"/>
      <point x="605" y="98"/>
      <point x="489" y="-39"/>
      <point x="386" y="-39" type="qcurve" smooth="yes"/>
      <point x="257" y="-39"/>
      <point x="69" y="185"/>
      <point x="10" y="414" type="qcurve"/>
      <point x="35" y="428"/>
      <point x="88" y="451"/>
      <point x="116" y="460" type="qcurve"/>
      <point x="168" y="295"/>
      <point x="311" y="124"/>
      <point x="398" y="124" type="qcurve" smooth="yes"/>
      <point x="451" y="124"/>
      <point x="507" y="189"/>
      <point x="507" y="251" type="qcurve"/>
      <point x="485" y="224"/>
      <point x="432" y="198"/>
      <point x="399" y="198" type="qcurve" smooth="yes"/>
      <point x="324" y="198"/>
      <point x="222" y="333"/>
      <point x="222" y="419" type="qcurve" smooth="yes"/>
      <point x="222" y="439"/>
      <point x="229" y="500"/>
      <point x="235" y="533" type="qcurve"/>
      <point x="175" y="530"/>
      <point x="59" y="516"/>
      <point x="0" y="504" type="qcurve"/>
      <point x="-5" y="517"/>
      <point x="-11" y="561"/>
      <point x="-11" y="581" type="qcurve" smooth="yes"/>
      <point x="-11" y="601"/>
      <point x="-5" y="630"/>
      <point x="0" y="639" type="qcurve"/>
      <point x="71" y="656"/>
      <point x="229" y="674"/>
      <point x="314" y="674" type="qcurve" smooth="yes"/>
      <point x="399" y="674"/>
      <point x="557" y="656"/>
      <point x="627" y="639" type="qcurve"/>
      <point x="632" y="630"/>
      <point x="638" y="602"/>
      <point x="638" y="584" type="qcurve" smooth="yes"/>
      <point x="638" y="563"/>
      <point x="632" y="519"/>
      <point x="627" y="504" type="qcurve"/>
      <point x="575" y="515"/>
      <point x="455" y="530"/>
      <point x="391" y="533" type="qcurve"/>
      <point x="373" y="481"/>
      <point x="345" y="372"/>
      <point x="345" y="353" type="qcurve" smooth="yes"/>
      <point x="345" y="343"/>
      <point x="354" y="331"/>
      <point x="362" y="331" type="qcurve" smooth="yes"/>
      <point x="375" y="331"/>
      <point x="412" y="382"/>
      <point x="442" y="445" type="qcurve"/>
      <point x="472" y="438"/>
      <point x="538" y="415"/>
      <point x="566" y="402" type="qcurve"/>
      <point x="585" y="363"/>
      <point x="605" y="267"/>
    </contour>
    <contour>
      <point x="382" y="-10" type="move" name="blwm"/>
    </contour>
    <contour>
      <point x="316" y="-120" type="move" name="nukt"/>
    </contour>
    <contour>
      <point x="345" y="690" type="move" name="reph"/>
    </contour>
    <contour>
      <point x="345" y="690" type="move" name="chandrabindu"/>
    </contour>
    <contour>
      <point x="225" y="0" type="move" name="haln"/>
    </contour>
  </outline>
</glyph>
<glyph name="bn_ta" format="1">
  <advance width="634"/>
  <unicode hex="09A4"/>
  <outline>
    <contour>
      <point x="634" y="504" type="qcurve"/>
      <point x="562" y="517"/>
      <point x="396" y="531"/>
      <point x="317" y="531" type="qcurve" smooth="yes"/>
      <point x="238" y="531"/>
      <point x="72" y="517"/>
      <point x="0" y="504" type="qcurve"/>
      <point x="-5" y="520"/>
      <point x="-11" y="559"/>
      <point x="-11" y="580" type="qcurve" smooth="yes"/>
      <point x="-11" y="598"/>
      <point x="-5" y="629"/>
      <point x="0" y="639" type="qcurve"/>
      <point x="65" y="653"/>
      <point x="233" y="670"/>
      <point x="317" y="670" type="qcurve" smooth="yes"/>
      <point x="401" y="670"/>
      <point x="567" y="654"/>
      <point x="634" y="639" type="qcurve"/>
      <point x="639" y="630"/>
      <point x="645" y="600"/>
      <point x="645" y="580" type="qcurve" smooth="yes"/>
      <point x="645" y="560"/>
      <point x="639" y="518"/>
    </contour>
    <contour>
      <point x="391" y="497" type="qcurve" smooth="yes"/>
      <point x="480" y="497"/>
      <point x="616" y="312"/>
      <point x="616" y="188" type="qcurve" smooth="yes"/>
      <point x="616" y="81"/>
      <point x="507" y="-42"/>
      <point x="409" y="-42" type="qcurve" smooth="yes"/>
      <point x="277" y="-42"/>
      <point x="78" y="180"/>
      <point x="10" y="405" type="qcurve"/>
      <point x="31" y="417"/>
      <point x="81" y="440"/>
      <point x="114" y="452" type="qcurve"/>
      <point x="160" y="320"/>
      <point x="318" y="136"/>
      <point x="397" y="136" type="qcurve" smooth="yes"/>
      <point x="448" y="136"/>
      <point x="502" y="193"/>
      <point x="502" y="247" type="qcurve" smooth="yes"/>
      <point x="502" y="297"/>
      <point x="464" y="358"/>
      <point x="437" y="358" type="qcurve" smooth="yes"/>
      <point x="421" y="358"/>
      <point x="403" y="332"/>
      <point x="403" y="311" type="qcurve" smooth="yes"/>
      <point x="403" y="299"/>
      <point x="414" y="269"/>
      <point x="427" y="248" type="qcurve"/>
      <point x="415" y="243"/>
      <point x="375" y="236"/>
      <point x="355" y="236" type="qcurve" smooth="yes"/>
      <point x="327" y="236"/>
      <point x="273" y="247"/>
      <point x="262" y="256" type="qcurve"/>
      <point x="256" y="276"/>
      <point x="250" y="313"/>
      <point x="250" y="332" type="qcurve" smooth="yes"/>
      <point x="250" y="403"/>
      <point x="330" y="497"/>
    </contour>
    <contour>
      <point x="383" y="-10" type="move" name="blwm"/>
    </contour>
    <contour>
      <point x="325" y="-120" type="move" name="nukt"/>
    </contour>
    <contour>
      <point x="312" y="690" type="move" name="reph"/>
    </contour>
    <contour>
      <point x="312" y="690" type="move" name="chandrabindu"/>
    </contour>
    <contour>
      <point x="239" y="0" type="move" name="haln"/>
    </contour>
  </outline>
</glyph>
<glyph name="bn_da" format="1">
  <advance width="540"/>
  <unicode hex="09A6"/>
  <outline>
    <contour>
      <point x="474" y="147" type="qcurve" smooth="yes"/>
      <point x="474" y="111"/>
      <point x="481" y="34"/>
      <point x="489" y="-7" type="qcurve"/>
      <point x="470" y="-18"/>
      <point x="387" y="-37"/>
      <point x="360" y="-37" type="qcurve"/>
      <point x="354" y="-3"/>
      <point x="347" y="65"/>
      <point x="347" y="97" type="qcurve" smooth="yes"/>
      <point x="347" y="150"/>
      <point x="361" y="257"/>
      <point x="375" y="306" type="qcurve"/>
      <point x="323" y="263"/>
      <point x="229" y="157"/>
      <point x="198" y="104" type="qcurve"/>
      <point x="154" y="109"/>
      <point x="59" y="140"/>
      <point x="34" y="158" type="qcurve"/>
      <point x="62" y="245"/>
      <point x="96" y="434"/>
      <point x="100" y="520" type="qcurve"/>
      <point x="65" y="515"/>
      <point x="18" y="508"/>
      <point x="0" y="504" type="qcurve"/>
      <point x="-5" y="519"/>
      <point x="-11" y="562"/>
      <point x="-11" y="582" type="qcurve" smooth="yes"/>
      <point x="-11" y="601"/>
      <point x="-5" y="630"/>
      <point x="0" y="639" type="qcurve"/>
      <point x="58" y="654"/>
      <point x="211" y="670"/>
      <point x="294" y="670" type="qcurve" smooth="yes"/>
      <point x="358" y="670"/>
      <point x="504" y="652"/>
      <point x="540" y="639" type="qcurve"/>
      <point x="544" y="629"/>
      <point x="549" y="599"/>
      <point x="549" y="582" type="qcurve" smooth="yes"/>
      <point x="549" y="561"/>
      <point x="544" y="519"/>
      <point x="540" y="504" type="qcurve"/>
      <point x="498" y="515"/>
      <point x="352" y="531"/>
      <point x="290" y="531" type="qcurve" smooth="yes"/>
      <point x="283" y="531"/>
      <point x="268" y="531"/>
      <point x="253" y="530" type="qcurve" smooth="yes"/>
      <point x="239" y="530"/>
      <point x="225" y="530"/>
      <point x="219" y="530" type="qcurve"/>
      <point x="220" y="523"/>
      <point x="220" y="508"/>
      <point x="220" y="492" type="qcurve" smooth="yes"/>
      <point x="220" y="461"/>
      <point x="218" y="405"/>
      <point x="216" y="378" type="qcurve"/>
      <point x="250" y="414"/>
      <point x="322" y="472"/>
      <point x="361" y="496" type="qcurve"/>
      <point x="404" y="479"/>
      <point x="474" y="423"/>
      <point x="509" y="378" type="qcurve"/>
      <point x="491" y="316"/>
      <point x="474" y="203"/>
    </contour>
    <contour>
      <point x="411" y="0" type="move" name="blwm"/>
    </contour>
    <contour>
      <point x="192" y="0" type="move" name="nukt"/>
    </contour>
    <contour>
      <point x="294" y="690" type="move" name="reph"/>
    </contour>
    <contour>
      <point x="284" y="690" type="move" name="chandrabindu"/>
    </contour>
    <contour>
      <point x="250" y="0" type="move" name="haln"/>
    </contour>
  </outline>
</glyph>
<glyph name="bn_pa" format="1">
  <advance width="648"/>
  <unicode hex="09AA"/>
  <outline>
    <contour>
      <point x="597" y="-24" type="qcurve"/>
      <point x="570" y="-30"/>
      <point x="480" y="-37"/>
      <point x="433" y="-37" type="qcurve"/>
      <point x="431" y="-18"/>
      <point x="429" y="35"/>
      <point x="429" y="86" type="qcurve" smooth="yes"/>
      <point x="429" y="165"/>
      <point x="432" y="292"/>
      <point x="436" y="345" type="qcurve"/>
      <point x="436" y="349"/>
      <point x="435" y="359"/>
      <point x="434" y="367" type="qcurve"/>
      <point x="400" y="314"/>
      <point x="293" y="197"/>
      <point x="226" y="139" type="qcurve"/>
      <point x="190" y="164"/>
      <point x="134" y="229"/>
      <point x="113" y="269" type="qcurve"/>
      <point x="117" y="272"/>
      <point x="132" y="283"/>
      <point x="136" y="286" type="qcurve"/>
      <point x="144" y="295"/>
      <point x="152" y="315"/>
      <point x="152" y="327" type="qcurve" smooth="yes"/>
      <point x="152" y="358"/>
      <point x="97" y="394"/>
      <point x="54" y="394" type="qcurve"/>
      <point x="38" y="422"/>
      <point x="16" y="485"/>
      <point x="10" y="518" type="qcurve"/>
      <point x="61" y="584"/>
      <point x="187" y="657"/>
      <point x="251" y="657" type="qcurve" smooth="yes"/>
      <point x="319" y="657"/>
      <point x="424" y="571"/>
      <point x="453" y="492" type="qcurve"/>
      <point x="454" y="495"/>
      <point x="455" y="501"/>
      <point x="456" y="508" type="qcurve" smooth="yes"/>
      <point x="457" y="514"/>
      <point x="458" y="520"/>
      <point x="459" y="523" type="qcurve" smooth="yes"/>
      <point x="467" y="557"/>
      <point x="497" y="597"/>
      <point x="523" y="607" type="qcurve" smooth="yes"/>
      <point x="544" y="615"/>
      <point x="619" y="634"/>
      <point x="648" y="639" type="qcurve"/>
      <point x="653" y="630"/>
      <point x="659" y="597"/>
      <point x="659" y="578" type="qcurve" smooth="yes"/>
      <point x="659" y="560"/>
      <point x="653" y="520"/>
      <point x="648" y="504" type="qcurve"/>
      <point x="641" y="502"/>
      <point x="633" y="499"/>
      <point x="631" y="499" type="qcurve" smooth="yes"/>
      <point x="628" y="498"/>
      <point x="621" y="496"/>
      <point x="616" y="494" type="qcurve" smooth="yes"/>
      <point x="601" y="489"/>
      <point x="585" y="468"/>
      <point x="583" y="450" type="qcurve" smooth="yes"/>
      <point x="579" y="410"/>
      <point x="575" y="345"/>
      <point x="575" y="298" type="qcurve" smooth="yes"/>
      <point x="575" y="193"/>
      <point x="586" y="26"/>
    </contour>
    <contour>
      <point x="191" y="474" type="qcurve"/>
      <point x="211" y="458"/>
      <point x="233" y="419"/>
      <point x="233" y="397" type="qcurve" smooth="yes"/>
      <point x="233" y="385"/>
      <point x="226" y="362"/>
      <point x="220" y="354" type="qcurve"/>
      <point x="257" y="386"/>
      <point x="325" y="453"/>
      <point x="356" y="489" type="qcurve"/>
      <point x="338" y="501"/>
      <point x="297" y="514"/>
      <point x="276" y="514" type="qcurve" smooth="yes"/>
      <point x="252" y="514"/>
      <point x="211" y="495"/>
    </contour>
    <contour>
      <point x="487" y="-10" type="move" name="blwm"/>
    </contour>
    <contour>
      <point x="245" y="0" type="move" name="nukt"/>
    </contour>
    <contour>
      <point x="531" y="690" type="move" name="reph"/>
    </contour>
    <contour>
      <point x="531" y="690" type="move" name="chandrabindu"/>
    </contour>
    <contour>
      <point x="339" y="0" type="move" name="haln"/>
    </contour>
  </outline>
</glyph>
<glyph name="bn_bha" format="1">
  <advance width="650"/>
  <unicode hex="09AD"/>
  <outline>
    <contour>
      <point x="650" y="504" type="qcurve"/>
      <point x="583" y="516"/>
      <point x="403" y="531"/>
      <point x="323" y="531" type="qcurve" smooth="yes"/>
      <point x="244" y="531"/>
      <point x="68" y="516"/>
      <point x="0" y="504" type="qcurve"/>
      <point x="-5" y="518"/>
      <point x="-11" y="560"/>
      <point x="-11" y="581" type="qcurve" smooth="yes"/>
      <point x="-11" y="599"/>
      <point x="-5" y="629"/>
      <point x="0" y="639" type="qcurve"/>
      <point x="63" y="653"/>
      <point x="239" y="670"/>
      <point x="323" y="670" type="qcurve" smooth="yes"/>
      <point x="407" y="670"/>
      <point x="587" y="653"/>
      <point x="650" y="639" type="qcurve"/>
      <point x="655" y="630"/>
      <point x="661" y="600"/>
      <point x="661" y="580" type="qcurve" smooth="yes"/>
      <point x="661" y="560"/>
      <point x="655" y="518"/>
    </contour>
    <contour>
      <point x="629" y="209" type="qcurve" smooth="yes"/>
      <point x="629" y="95"/>
      <point x="504" y="-39"/>
      <point x="396" y="-39" type="qcurve" smooth="yes"/>
      <point x="260" y="-39"/>
      <point x="65" y="187"/>
      <point x="6" y="414" type="qcurve"/>
      <point x="31" y="428"/>
      <point x="84" y="451"/>
      <point x="112" y="460" type="qcurve"/>
      <point x="165" y="298"/>
      <point x="311" y="132"/>
      <point x="402" y="132" type="qcurve" smooth="yes"/>
      <point x="460" y="132"/>
      <point x="520" y="198"/>
      <point x="520" y="260" type="qcurve"/>
      <point x="520" y="274" type="line"/>
      <point x="489" y="239"/>
      <point x="421" y="203"/>
      <point x="384" y="203" type="qcurve" smooth="yes"/>
      <point x="319" y="203"/>
      <point x="223" y="299"/>
      <point x="223" y="366" type="qcurve" smooth="yes"/>
      <point x="223" y="411"/>
      <point x="269" y="480"/>
      <point x="307" y="496" type="qcurve"/>
      <point x="342" y="491"/>
      <point x="414" y="444"/>
      <point x="428" y="415" type="qcurve"/>
      <point x="388" y="408"/>
      <point x="321" y="363"/>
      <point x="321" y="342" type="qcurve" smooth="yes"/>
      <point x="321" y="333"/>
      <point x="333" y="323"/>
      <point x="343" y="323" type="qcurve" smooth="yes"/>
      <point x="365" y="323"/>
      <point x="438" y="380"/>
      <point x="497" y="445" type="qcurve"/>
      <point x="522" y="428"/>
      <point x="578" y="382"/>
      <point x="600" y="360" type="qcurve"/>
      <point x="614" y="325"/>
      <point x="629" y="247"/>
    </contour>
    <contour>
      <point x="396" y="-20" type="move" name="blwm"/>
    </contour>
    <contour>
      <point x="370" y="-120" type="move" name="nukt"/>
    </contour>
    <contour>
      <point x="328" y="690" type="move" name="reph"/>
    </contour>
    <contour>
      <point x="328" y="690" type="move" name="chandrabindu"/>
    </contour>
    <contour>
      <point x="250" y="0" type="move" name="haln"/>
    </contour>
  </outline>
</glyph>
<glyph name="bn_ma" format="1">
  <advance width="559"/>
  <unicode hex="09AE"/>
  <outline>
    <contour>
      <point x="273" y="397" type="qcurve" smooth="yes"/>
      <point x="307" y="354"/>
      <point x="328" y="297"/>
      <point x="328" y="266" type="qcurve" smooth="yes"/>
      <point x="328" y="243"/>
      <point x="316" y="201"/>
      <point x="305" y="183" type="qcurve"/>
      <point x="316" y="169"/>
      <point x="338" y="135"/>
      <point x="348" y="117" type="qcurve"/>
      <point x="349" y="284"/>
      <point x="359" y="434"/>
      <point x="373" y="528" type="qcurve"/>
      <point x="350" y="529"/>
      <point x="302" y="531"/>
      <point x="278" y="531" type="qcurve" smooth="yes"/>
      <point x="261" y="531"/>
      <point x="244" y="531"/>
      <point x="237" y="530" type="qcurve"/>
      <point x="233" y="521"/>
      <point x="229" y="501"/>
      <point x="229" y="492" type="qcurve" smooth="yes"/>
      <point x="229" y="472"/>
      <point x="245" y="433"/>
    </contour>
    <contour>
      <point x="532" y="6" type="qcurve"/>
      <point x="491" y="-17"/>
      <point x="406" y="-40"/>
      <point x="364" y="-40" type="qcurve"/>
      <point x="364" y="-39"/>
      <point x="361" y="-33"/>
      <point x="360" y="-31" type="qcurve"/>
      <point x="338" y="9"/>
      <point x="284" y="77"/>
      <point x="252" y="104" type="qcurve"/>
      <point x="232" y="82"/>
      <point x="182" y="60"/>
      <point x="152" y="60" type="qcurve" smooth="yes"/>
      <point x="91" y="60"/>
      <point x="13" y="142"/>
      <point x="13" y="208" type="qcurve" smooth="yes"/>
      <point x="13" y="271"/>
      <point x="83" y="352"/>
      <point x="137" y="352" type="qcurve" smooth="yes"/>
      <point x="157" y="352"/>
      <point x="194" y="340"/>
      <point x="210" y="329" type="qcurve"/>
      <point x="209" y="348"/>
      <point x="180" y="376"/>
      <point x="133" y="395" type="qcurve" smooth="yes"/>
      <point x="79" y="417"/>
      <point x="44" y="456"/>
      <point x="44" y="483" type="qcurve" smooth="yes"/>
      <point x="44" y="491"/>
      <point x="47" y="506"/>
      <point x="50" y="513" type="qcurve"/>
      <point x="35" y="510"/>
      <point x="10" y="506"/>
      <point x="0" y="504" type="qcurve"/>
      <point x="-10" y="535"/>
      <point x="-11" y="620"/>
      <point x="0" y="639" type="qcurve"/>
      <point x="57" y="653"/>
      <point x="209" y="670"/>
      <point x="282" y="670" type="qcurve" smooth="yes"/>
      <point x="359" y="670"/>
      <point x="516" y="652"/>
      <point x="559" y="639" type="qcurve"/>
      <point x="568" y="614"/>
      <point x="567" y="535"/>
      <point x="559" y="504" type="qcurve"/>
      <point x="543" y="508"/>
      <point x="513" y="513"/>
      <point x="498" y="515" type="qcurve"/>
      <point x="495" y="455"/>
      <point x="491" y="349"/>
      <point x="491" y="304" type="qcurve" smooth="yes"/>
      <point x="491" y="202"/>
      <point x="511" y="56"/>
    </contour>
    <contour>
      <point x="101" y="247" type="qcurve" smooth="yes"/>
      <point x="101" y="230"/>
      <point x="128" y="210"/>
      <point x="150" y="210" type="qcurve" smooth="yes"/>
      <point x="166" y="210"/>
      <point x="189" y="218"/>
      <point x="197" y="227" type="qcurve"/>
      <point x="185" y="251"/>
      <point x="151" y="277"/>
      <point x="133" y="277" type="qcurve" smooth="yes"/>
      <point x="119" y="277"/>
      <point x="101" y="261"/>
    </contour>
    <contour>
      <point x="417" y="10" type="move" name="blwm"/>
    </contour>
    <contour>
      <point x="220" y="0" type="move" name="nukt"/>
    </contour>
    <contour>
      <point x="449" y="690" type="move" name="reph"/>
    </contour>
    <contour>
      <point x="449" y="690" type="move" name="chandrabindu"/>
    </contour>
    <contour>
      <point x="304" y="0" type="move" name="haln"/>
    </contour>
  </outline>
</glyph>
<glyph name="bn_sha" format="1">
  <advance width="663"/>
  <unicode hex="09B6"/>
  <outline>
    <contour>
      <point x="603" y="438" type="qcurve" smooth="yes"/>
      <point x="597" y="245"/>
      <point x="577" y="43"/>
      <point x="561" y="-36" type="qcurve"/>
      <point x="520" y="-36"/>
      <point x="426" y="-25"/>
      <point x="396" y="-16" type="qcurve"/>
      <point x="421" y="71"/>
      <point x="450" y="275"/>
      <point x="454" y="396" type="qcurve"/>
      <point x="452" y="440"/>
      <point x="400" y="498"/>
      <point x="364" y="498" type="qcurve" smooth="yes"/>
      <point x="356" y="498"/>
      <point x="342" y="495"/>
      <point x="336" y="492" type="qcurve"/>
      <point x="378" y="470"/>
      <point x="426" y="395"/>
      <point x="426" y="350" type="qcurve" smooth="yes"/>
      <point x="426" y="297"/>
      <point x="361" y="230"/>
      <point x="311" y="230" type="qcurve" smooth="yes"/>
      <point x="281" y="230"/>
      <point x="231" y="256"/>
      <point x="213" y="280" type="qcurve"/>
      <point x="193" y="256"/>
      <point x="142" y="229"/>
      <point x="113" y="229" type="qcurve" smooth="yes"/>
      <point x="65" y="229"/>
      <point x="2" y="294"/>
      <point x="2" y="345" type="qcurve" smooth="yes"/>
      <point x="2" y="401"/>
      <point x="77" y="495"/>
      <point x="133" y="512" type="qcurve"/>
      <point x="126" y="513"/>
      <point x="108" y="515"/>
      <point x="98" y="515" type="qcurve" smooth="yes"/>
      <point x="79" y="515"/>
      <point x="29" y="509"/>
      <point x="0" y="504" type="qcurve"/>
      <point x="-5" y="517"/>
      <point x="-10" y="555"/>
      <point x="-10" y="575" type="qcurve" smooth="yes"/>
      <point x="-10" y="595"/>
      <point x="-5" y="629"/>
      <point x="0" y="639" type="qcurve"/>
      <point x="23" y="644"/>
      <point x="70" y="649"/>
      <point x="87" y="649" type="qcurve" smooth="yes"/>
      <point x="140" y="649"/>
      <point x="204" y="596"/>
      <point x="219" y="539" type="qcurve"/>
      <point x="239" y="595"/>
      <point x="310" y="659"/>
      <point x="351" y="659" type="qcurve" smooth="yes"/>
      <point x="400" y="659"/>
      <point x="475" y="563"/>
      <point x="492" y="480" type="qcurve"/>
      <point x="492" y="524" type="line" smooth="yes"/>
      <point x="492" y="553"/>
      <point x="519" y="594"/>
      <point x="547" y="607" type="qcurve" smooth="yes"/>
      <point x="567" y="616"/>
      <point x="632" y="634"/>
      <point x="663" y="639" type="qcurve"/>
      <point x="668" y="629"/>
      <point x="674" y="599"/>
      <point x="674" y="581" type="qcurve" smooth="yes"/>
      <point x="674" y="562"/>
      <point x="668" y="519"/>
      <point x="663" y="504" type="qcurve"/>
      <point x="658" y="503"/>
      <point x="638" y="497"/>
      <point x="632" y="494" type="qcurve" smooth="yes"/>
      <point x="615" y="487"/>
      <point x="604" y="466"/>
    </contour>
    <contour>
      <point x="292" y="396" type="qcurve" smooth="yes"/>
      <point x="292" y="368"/>
      <point x="317" y="323"/>
      <point x="333" y="323" type="qcurve" smooth="yes"/>
      <point x="341" y="323"/>
      <point x="351" y="336"/>
      <point x="351" y="348" type="qcurve" smooth="yes"/>
      <point x="351" y="370"/>
      <point x="321" y="409"/>
      <point x="296" y="421" type="qcurve"/>
      <point x="294" y="416"/>
      <point x="292" y="404"/>
    </contour>
    <contour>
      <point x="126" y="336" type="qcurve" smooth="yes"/>
      <point x="126" y="324"/>
      <point x="136" y="310"/>
      <point x="145" y="310" type="qcurve" smooth="yes"/>
      <point x="160" y="310"/>
      <point x="180" y="346"/>
      <point x="180" y="373" type="qcurve" smooth="yes"/>
      <point x="180" y="383"/>
      <point x="177" y="403"/>
      <point x="173" y="413" type="qcurve"/>
      <point x="154" y="403"/>
      <point x="126" y="356"/>
    </contour>
    <contour>
      <point x="466" y="0" type="move" name="blwm"/>
    </contour>
    <contour>
      <point x="193" y="0" type="move" name="nukt"/>
    </contour>
    <contour>
      <point x="576" y="690" type="move" name="reph"/>
    </contour>
    <contour>
      <point x="576" y="690" type="move" name="chandrabindu"/>
    </contour>
    <contour>
      <point x="282.0" y="0.0" type="move" name="haln"/>
    </contour>
  </outline>
</glyph>
<glyph name="bn_sa" format="1">
  <advance width="584"/>
  <unicode hex="09B8"/>
  <outline>
    <contour>
      <point x="252" y="397" type="qcurve"/>
      <point x="261" y="399"/>
      <point x="279" y="400"/>
      <point x="289" y="400" type="qcurve" smooth="yes"/>
      <point x="311" y="400"/>
      <point x="353" y="380"/>
      <point x="374" y="359" type="qcurve"/>
      <point x="376" y="389"/>
      <point x="382" y="457"/>
      <point x="390" y="527" type="qcurve"/>
      <point x="367" y="529"/>
      <point x="317" y="531"/>
      <point x="291" y="531" type="qcurve" smooth="yes"/>
      <point x="276" y="531"/>
      <point x="242" y="530"/>
      <point x="215" y="529" type="qcurve"/>
      <point x="216" y="519"/>
      <point x="225" y="497"/>
      <point x="238" y="477" type="qcurve" smooth="yes"/>
      <point x="250" y="458"/>
      <point x="258" y="438"/>
      <point x="258" y="429" type="qcurve" smooth="yes"/>
      <point x="258" y="420"/>
      <point x="255" y="404"/>
    </contour>
    <contour>
      <point x="536" y="-21" type="qcurve"/>
      <point x="508" y="-27"/>
      <point x="419" y="-34"/>
      <point x="368" y="-34" type="qcurve"/>
      <point x="367" y="-11"/>
      <point x="366" y="47"/>
      <point x="366" y="110" type="qcurve" smooth="yes"/>
      <point x="366" y="161"/>
      <point x="366" y="208"/>
      <point x="367" y="228" type="qcurve"/>
      <point x="365" y="247"/>
      <point x="346" y="269"/>
      <point x="329" y="269" type="qcurve" smooth="yes"/>
      <point x="314" y="269"/>
      <point x="286" y="239"/>
      <point x="260" y="188" type="qcurve" smooth="yes"/>
      <point x="220" y="110"/>
      <point x="160" y="58"/>
      <point x="123" y="58" type="qcurve" smooth="yes"/>
      <point x="107" y="58"/>
      <point x="66" y="66"/>
      <point x="48" y="73" type="qcurve"/>
      <point x="29" y="106"/>
      <point x="11" y="189"/>
      <point x="11" y="240" type="qcurve"/>
      <point x="21" y="230"/>
      <point x="42" y="222"/>
      <point x="55" y="222" type="qcurve" smooth="yes"/>
      <point x="64" y="222"/>
      <point x="84" y="240"/>
      <point x="98" y="263" type="qcurve"/>
      <point x="102" y="269"/>
      <point x="128" y="309"/>
      <point x="134" y="321" type="qcurve" smooth="yes"/>
      <point x="145" y="340"/>
      <point x="155" y="371"/>
      <point x="155" y="385" type="qcurve" smooth="yes"/>
      <point x="155" y="406"/>
      <point x="127" y="442"/>
      <point x="83" y="466" type="qcurve" smooth="yes"/>
      <point x="54" y="482"/>
      <point x="33" y="500"/>
      <point x="29" y="509" type="qcurve"/>
      <point x="23" y="508"/>
      <point x="9" y="506"/>
      <point x="0" y="504" type="qcurve"/>
      <point x="-5" y="518"/>
      <point x="-10" y="560"/>
      <point x="-10" y="581" type="qcurve" smooth="yes"/>
      <point x="-10" y="600"/>
      <point x="-5" y="630"/>
      <point x="0" y="639" type="qcurve"/>
      <point x="60" y="654"/>
      <point x="213" y="670"/>
      <point x="295" y="670" type="qcurve" smooth="yes"/>
      <point x="368" y="670"/>
      <point x="544" y="651"/>
      <point x="584" y="639" type="qcurve"/>
      <point x="588" y="628"/>
      <point x="592" y="597"/>
      <point x="592" y="577" type="qcurve" smooth="yes"/>
      <point x="592" y="557"/>
      <point x="588" y="518"/>
      <point x="584" y="504" type="qcurve"/>
      <point x="568" y="507"/>
      <point x="534" y="513"/>
      <point x="515" y="515" type="qcurve"/>
      <point x="515" y="502"/>
      <point x="512" y="347"/>
      <point x="512" y="303" type="qcurve" smooth="yes"/>
      <point x="512" y="193"/>
      <point x="524" y="34"/>
    </contour>
    <contour>
      <point x="426" y="-10" type="move" name="blwm"/>
    </contour>
    <contour>
      <point x="234" y="0" type="move" name="nukt"/>
    </contour>
    <contour>
      <point x="468" y="690" type="move" name="reph"/>
    </contour>
    <contour>
      <point x="468" y="690" type="move" name="chandrabindu"/>
    </contour>
    <contour>
      <point x="312" y="0" type="move" name="haln"/>
    </contour>
  </outline>
</glyph>
<glyph name="bn_ha" format="1">
  <advance width="526"/>
  <unicode hex="09B9"/>
  <outline>
    <contour>
      <point x="526" y="504" type="qcurve"/>
      <point x="474" y="516"/>
      <point x="334" y="531"/>
      <point x="262" y="531" type="qcurve" smooth="yes"/>
      <point x="194" y="531"/>
      <point x="63" y="518"/>
      <point x="0" y="504" type="qcurve"/>
      <point x="-5" y="519"/>
      <point x="-10" y="561"/>
      <point x="-10" y="581" type="qcurve" smooth="yes"/>
      <point x="-10" y="600"/>
      <point x="-5" y="630"/>
      <point x="0" y="639" type="qcurve"/>
      <point x="57" y="654"/>
      <point x="192" y="670"/>
      <point x="265" y="670" type="qcurve" smooth="yes"/>
      <point x="342" y="670"/>
      <point x="484" y="653"/>
      <point x="526" y="639" type="qcurve"/>
      <point x="530" y="628"/>
      <point x="535" y="596"/>
      <point x="535" y="578" type="qcurve" smooth="yes"/>
      <point x="535" y="558"/>
      <point x="530" y="518"/>
    </contour>
    <contour>
      <point x="533" y="-62" type="qcurve"/>
      <point x="513" y="-88"/>
      <point x="471" y="-132"/>
      <point x="449" y="-150" type="qcurve"/>
      <point x="354" y="-55"/>
      <point x="158" y="71"/>
      <point x="56" y="104" type="qcurve"/>
      <point x="36" y="279" type="line"/>
      <point x="81" y="266"/>
      <point x="170" y="252"/>
      <point x="210" y="252" type="qcurve" smooth="yes"/>
      <point x="267" y="252"/>
      <point x="319" y="282"/>
      <point x="319" y="315" type="qcurve" smooth="yes"/>
      <point x="319" y="345"/>
      <point x="284" y="388"/>
      <point x="260" y="388" type="qcurve" smooth="yes"/>
      <point x="248" y="388"/>
      <point x="235" y="375"/>
      <point x="235" y="362" type="qcurve" smooth="yes"/>
      <point x="235" y="356"/>
      <point x="239" y="345"/>
      <point x="250" y="333" type="qcurve"/>
      <point x="224" y="316"/>
      <point x="146" y="293"/>
      <point x="112" y="293" type="qcurve"/>
      <point x="99" y="310"/>
      <point x="86" y="353"/>
      <point x="86" y="377" type="qcurve" smooth="yes"/>
      <point x="86" y="434"/>
      <point x="157" y="500"/>
      <point x="215" y="500" type="qcurve" smooth="yes"/>
      <point x="308" y="500"/>
      <point x="466" y="339"/>
      <point x="466" y="245" type="qcurve" smooth="yes"/>
      <point x="466" y="185"/>
      <point x="392" y="109"/>
      <point x="323" y="96" type="qcurve"/>
      <point x="372" y="63"/>
      <point x="476" y="-16"/>
    </contour>
    <contour>
      <point x="285" y="0" type="move" name="blwm"/>
    </contour>
    <contour>
      <point x="194" y="-66" type="move" name="nukt"/>
    </contour>
    <contour>
      <point x="266" y="690" type="move" name="reph"/>
    </contour>
    <contour>
      <point x="266" y="690" type="move" name="chandrabindu"/>
    </contour>
    <contour>
      <point x="108.0" y="0.0" type="move" name="haln"/>
    </contour>
  </outline>
</glyph>
<glyph name="bn_nukta" format="1">
  <advance width="0"/>
  <unicode hex="09BC"/>
  <outline>
    <contour>
      <point x="-94" y="-67" type="qcurve" smooth="yes"/>
      <point x="-94" y="-29"/>
      <point x="-42" y="24"/>
      <point x="-5" y="24" type="qcurve" smooth="yes"/>
      <point x="38" y="24"/>
      <point x="97" y="-37"/>
      <point x="97" y="-81" type="qcurve" smooth="yes"/>
      <point x="97" y="-119"/>
      <point x="46" y="-171"/>
      <point x="9" y="-171" type="qcurve" smooth="yes"/>
      <point x="-35" y="-171"/>
      <point x="-94" y="-111"/>
    </contour>
    <contour>
      <point x="0" y="-28" type="move" name="_nukt"/>
    </contour>
  </outline>
</glyph>
<glyph name="bn_avagraha" format="1">
  <advance width="514"/>
  <unicode hex="09BD"/>
  <outline>
    <contour>
      <point x="172" y="474" type="qcurve" smooth="yes"/>
      <point x="172" y="461"/>
      <point x="196" y="444"/>
      <point x="215" y="444" type="qcurve" smooth="yes"/>
      <point x="239" y="444"/>
      <point x="271" y="469"/>
      <point x="272" y="488" type="qcurve"/>
      <point x="261" y="495"/>
      <point x="234" y="503"/>
      <point x="220" y="503" type="qcurve" smooth="yes"/>
      <point x="197" y="503"/>
      <point x="172" y="487"/>
    </contour>
    <contour>
      <point x="521" y="38" type="qcurve"/>
      <point x="501" y="12"/>
      <point x="459" y="-32"/>
      <point x="437" y="-50" type="qcurve"/>
      <point x="342" y="45"/>
      <point x="146" y="171"/>
      <point x="44" y="204" type="qcurve"/>
      <point x="24" y="379" type="line"/>
      <point x="69" y="359"/>
      <point x="169" y="337"/>
      <point x="215" y="337" type="qcurve" smooth="yes"/>
      <point x="262" y="337"/>
      <point x="313" y="362"/>
      <point x="318" y="388" type="qcurve"/>
      <point x="305" y="378"/>
      <point x="269" y="369"/>
      <point x="246" y="369" type="qcurve" smooth="yes"/>
      <point x="172" y="369"/>
      <point x="73" y="440"/>
      <point x="73" y="501" type="qcurve" smooth="yes"/>
      <point x="73" y="547"/>
      <point x="140" y="600"/>
      <point x="195" y="600" type="qcurve" smooth="yes"/>
      <point x="219" y="600"/>
      <point x="268" y="589"/>
      <point x="291" y="578" type="qcurve"/>
      <point x="298" y="604"/>
      <point x="309" y="658"/>
      <point x="312" y="683" type="qcurve"/>
      <point x="345" y="680"/>
      <point x="413" y="659"/>
      <point x="435" y="645" type="qcurve"/>
      <point x="428" y="605"/>
      <point x="409" y="530"/>
      <point x="397" y="494" type="qcurve"/>
      <point x="424" y="460"/>
      <point x="454" y="382"/>
      <point x="454" y="344" type="qcurve" smooth="yes"/>
      <point x="454" y="285"/>
      <point x="380" y="209"/>
      <point x="311" y="196" type="qcurve"/>
      <point x="360" y="163"/>
      <point x="464" y="84"/>
    </contour>
  </outline>
</glyph>
<glyph name="bn_ikaar" format="1">
  <advance width="288"/>
  <unicode hex="09BF"/>
  <outline>
    <contour>
      <point x="260" y="-50" type="qcurve"/>
      <point x="233" y="-58"/>
      <point x="134" y="-69"/>
      <point x="90" y="-69" type="qcurve"/>
      <point x="80" y="17"/>
      <point x="70" y="280"/>
      <point x="72" y="398" type="qcurve"/>
      <point x="70" y="447"/>
      <point x="34" y="498"/>
      <point x="0" y="504" type="qcurve"/>
      <point x="-10" y="529"/>
      <point x="-11" y="623"/>
      <point x="0" y="639" type="qcurve"/>
      <point x="27" y="632"/>
      <point x="83" y="607"/>
      <point x="107" y="591" type="qcurve"/>
      <point x="62" y="638"/>
      <point x="24" y="721"/>
      <point x="24" y="765" type="qcurve" smooth="yes"/>
      <point x="24" y="844"/>
      <point x="143" y="937"/>
      <point x="248" y="937" type="qcurve" smooth="yes"/>
      <point x="354" y="937"/>
      <point x="625" y="865"/>
      <point x="758" y="803" type="qcurve"/>
      <point x="751" y="779"/>
      <point x="728" y="733"/>
      <point x="708" y="708" type="qcurve"/>
      <point x="576" y="765"/>
      <point x="397" y="811"/>
      <point x="304" y="811" type="qcurve" smooth="yes"/>
      <point x="233" y="811"/>
      <point x="164" y="756"/>
      <point x="164" y="699" type="qcurve" smooth="yes"/>
      <point x="164" y="675"/>
      <point x="172" y="629"/>
      <point x="181" y="602" type="qcurve"/>
      <point x="204" y="615"/>
      <point x="258" y="633"/>
      <point x="288" y="639" type="qcurve"/>
      <point x="299" y="622"/>
      <point x="298" y="537"/>
      <point x="288" y="504" type="qcurve"/>
      <point x="267" y="501"/>
      <point x="234" y="483"/>
      <point x="222" y="468" type="qcurve"/>
      <point x="217" y="329"/>
      <point x="234" y="85"/>
    </contour>
  </outline>
</glyph>
<glyph name="bn_iikaar" format="1">
  <advance width="288"/>
  <unicode hex="09C0"/>
  <outline>
    <contour>
      <point x="227" y="470" type="qcurve"/>
      <point x="228" y="343"/>
      <point x="210" y="65"/>
      <point x="193" y="-72" type="qcurve"/>
      <point x="152" y="-72"/>
      <point x="55" y="-56"/>
      <point x="24" y="-45" type="qcurve"/>
      <point x="48" y="48"/>
      <point x="76" y="253"/>
      <point x="80" y="377" type="qcurve"/>
      <point x="79" y="435"/>
      <point x="39" y="498"/>
      <point x="0" y="504" type="qcurve"/>
      <point x="-11" y="530"/>
      <point x="-11" y="624"/>
      <point x="0" y="639" type="qcurve"/>
      <point x="20" y="634"/>
      <point x="62" y="619"/>
      <point x="83" y="608" type="qcurve"/>
      <point x="71" y="735"/>
      <point x="-89" y="843"/>
      <point x="-277" y="843" type="qcurve" smooth="yes"/>
      <point x="-334" y="843"/>
      <point x="-400" y="824"/>
      <point x="-400" y="807" type="qcurve" smooth="yes"/>
      <point x="-400" y="795"/>
      <point x="-366" y="783"/>
      <point x="-334" y="783" type="qcurve" smooth="yes"/>
      <point x="-312" y="783"/>
      <point x="-270" y="789"/>
      <point x="-237" y="798" type="qcurve" smooth="yes"/>
      <point x="-211" y="806"/>
      <point x="-184" y="810"/>
      <point x="-172" y="810" type="qcurve" smooth="yes"/>
      <point x="-148" y="810"/>
      <point x="-103" y="795"/>
      <point x="-84" y="780" type="qcurve"/>
      <point x="-91" y="754"/>
      <point x="-114" y="704"/>
      <point x="-127" y="688" type="qcurve"/>
      <point x="-138" y="704"/>
      <point x="-168" y="721"/>
      <point x="-185" y="721" type="qcurve" smooth="yes"/>
      <point x="-193" y="721"/>
      <point x="-213" y="717"/>
      <point x="-237" y="710" type="qcurve" smooth="yes"/>
      <point x="-275" y="700"/>
      <point x="-318" y="693"/>
      <point x="-339" y="693" type="qcurve" smooth="yes"/>
      <point x="-408" y="693"/>
      <point x="-493" y="765"/>
      <point x="-493" y="825" type="qcurve" smooth="yes"/>
      <point x="-493" y="896"/>
      <point x="-375" y="977"/>
      <point x="-271" y="977" type="qcurve" smooth="yes"/>
      <point x="-89" y="977"/>
      <point x="173" y="780"/>
      <point x="211" y="616" type="qcurve"/>
      <point x="230" y="624"/>
      <point x="269" y="635"/>
      <point x="288" y="639" type="qcurve"/>
      <point x="299" y="623"/>
      <point x="299" y="539"/>
      <point x="288" y="504" type="qcurve"/>
      <point x="270" y="501"/>
      <point x="240" y="484"/>
    </contour>
  </outline>
</glyph>
